%TF.GenerationSoftware,KiCad,Pcbnew,10.0.1*%
%TF.CreationDate,2026-05-06T13:17:17-07:00*%
%TF.ProjectId,schism v1,73636869-736d-4207-9631-2e6b69636164,v1.0.0*%
%TF.SameCoordinates,Original*%
%TF.FileFunction,Legend,Top*%
%TF.FilePolarity,Positive*%
%FSLAX46Y46*%
G04 Gerber Fmt 4.6, Leading zero omitted, Abs format (unit mm)*
G04 Created by KiCad (PCBNEW 10.0.1) date 2026-05-06 13:17:17*
%MOMM*%
%LPD*%
G01*
G04 APERTURE LIST*
%ADD10C,0.250000*%
%ADD11C,0.150000*%
%ADD12C,0.100000*%
%ADD13C,0.200000*%
%ADD14C,0.120000*%
G04 APERTURE END LIST*
D10*
X257007832Y-140909829D02*
X256835285Y-141553779D01*
X256983182Y-141001822D02*
X257041503Y-140968150D01*
X257041503Y-140968150D02*
X257145821Y-140946803D01*
X257145821Y-140946803D02*
X257283810Y-140983777D01*
X257283810Y-140983777D02*
X257363479Y-141054423D01*
X257363479Y-141054423D02*
X257384826Y-141158741D01*
X257384826Y-141158741D02*
X257249254Y-141664702D01*
X257709218Y-141787949D02*
X257881765Y-141143998D01*
X257968038Y-140822023D02*
X257909716Y-140855695D01*
X257909716Y-140855695D02*
X257943388Y-140914016D01*
X257943388Y-140914016D02*
X258001709Y-140880344D01*
X258001709Y-140880344D02*
X257968038Y-140822023D01*
X257968038Y-140822023D02*
X257943388Y-140914016D01*
X258595476Y-141976122D02*
X258491158Y-141997469D01*
X258491158Y-141997469D02*
X258307172Y-141948170D01*
X258307172Y-141948170D02*
X258227504Y-141877524D01*
X258227504Y-141877524D02*
X258193832Y-141819203D01*
X258193832Y-141819203D02*
X258172485Y-141714885D01*
X258172485Y-141714885D02*
X258246433Y-141438907D01*
X258246433Y-141438907D02*
X258317079Y-141359238D01*
X258317079Y-141359238D02*
X258375400Y-141325567D01*
X258375400Y-141325567D02*
X258479718Y-141304220D01*
X258479718Y-141304220D02*
X258663704Y-141353518D01*
X258663704Y-141353518D02*
X258743372Y-141424164D01*
X259377416Y-142185642D02*
X259273098Y-142206989D01*
X259273098Y-142206989D02*
X259089112Y-142157690D01*
X259089112Y-142157690D02*
X259009444Y-142087044D01*
X259009444Y-142087044D02*
X258988097Y-141982727D01*
X258988097Y-141982727D02*
X259086695Y-141614755D01*
X259086695Y-141614755D02*
X259157341Y-141535087D01*
X259157341Y-141535087D02*
X259261658Y-141513740D01*
X259261658Y-141513740D02*
X259445644Y-141563039D01*
X259445644Y-141563039D02*
X259525312Y-141633685D01*
X259525312Y-141633685D02*
X259546659Y-141738002D01*
X259546659Y-141738002D02*
X259522010Y-141829995D01*
X259522010Y-141829995D02*
X259037396Y-141798741D01*
X259849705Y-142262893D02*
X259883377Y-142321214D01*
X259883377Y-142321214D02*
X259825056Y-142354886D01*
X259825056Y-142354886D02*
X259791384Y-142296565D01*
X259791384Y-142296565D02*
X259849705Y-142262893D01*
X259849705Y-142262893D02*
X259825056Y-142354886D01*
X259923654Y-141986914D02*
X260025554Y-141422632D01*
X260025554Y-141422632D02*
X260083875Y-141388960D01*
X260083875Y-141388960D02*
X260117547Y-141447281D01*
X260117547Y-141447281D02*
X259923654Y-141986914D01*
X259923654Y-141986914D02*
X260083875Y-141388960D01*
X260457566Y-141834182D02*
X260285020Y-142478133D01*
X260432917Y-141926175D02*
X260491238Y-141892503D01*
X260491238Y-141892503D02*
X260595555Y-141871156D01*
X260595555Y-141871156D02*
X260733545Y-141908131D01*
X260733545Y-141908131D02*
X260813213Y-141978777D01*
X260813213Y-141978777D02*
X260834560Y-142083094D01*
X260834560Y-142083094D02*
X260698988Y-142589055D01*
X261572921Y-142823225D02*
X261708493Y-142317264D01*
X261708493Y-142317264D02*
X261687146Y-142212946D01*
X261687146Y-142212946D02*
X261607478Y-142142300D01*
X261607478Y-142142300D02*
X261423492Y-142093001D01*
X261423492Y-142093001D02*
X261319174Y-142114348D01*
X261585246Y-142777228D02*
X261480928Y-142798576D01*
X261480928Y-142798576D02*
X261250946Y-142736952D01*
X261250946Y-142736952D02*
X261171278Y-142666306D01*
X261171278Y-142666306D02*
X261149931Y-142561988D01*
X261149931Y-142561988D02*
X261174580Y-142469995D01*
X261174580Y-142469995D02*
X261245226Y-142390327D01*
X261245226Y-142390327D02*
X261349544Y-142368980D01*
X261349544Y-142368980D02*
X261579526Y-142430604D01*
X261579526Y-142430604D02*
X261683844Y-142409257D01*
X262205432Y-142302522D02*
X262032886Y-142946472D01*
X262180783Y-142394515D02*
X262239104Y-142360843D01*
X262239104Y-142360843D02*
X262343421Y-142339496D01*
X262343421Y-142339496D02*
X262481411Y-142376470D01*
X262481411Y-142376470D02*
X262561079Y-142447116D01*
X262561079Y-142447116D02*
X262582426Y-142551433D01*
X262582426Y-142551433D02*
X262446854Y-143057395D01*
X263044808Y-143217616D02*
X262965140Y-143146970D01*
X262965140Y-143146970D02*
X262931468Y-143088649D01*
X262931468Y-143088649D02*
X262910121Y-142984331D01*
X262910121Y-142984331D02*
X262984070Y-142708352D01*
X262984070Y-142708352D02*
X263054716Y-142628684D01*
X263054716Y-142628684D02*
X263113037Y-142595012D01*
X263113037Y-142595012D02*
X263217354Y-142573665D01*
X263217354Y-142573665D02*
X263355344Y-142610640D01*
X263355344Y-142610640D02*
X263435012Y-142681285D01*
X263435012Y-142681285D02*
X263468684Y-142739607D01*
X263468684Y-142739607D02*
X263490031Y-142843924D01*
X263490031Y-142843924D02*
X263416083Y-143119903D01*
X263416083Y-143119903D02*
X263345437Y-143199571D01*
X263345437Y-143199571D02*
X263287115Y-143233243D01*
X263287115Y-143233243D02*
X263182798Y-143254590D01*
X263182798Y-143254590D02*
X263044808Y-143217616D01*
D11*
X253454644Y-150498368D02*
X253383998Y-150578036D01*
X253383998Y-150578036D02*
X253347024Y-150716025D01*
X253347024Y-150716025D02*
X253356046Y-150866340D01*
X253356046Y-150866340D02*
X253423390Y-150982982D01*
X253423390Y-150982982D02*
X253503058Y-151053628D01*
X253503058Y-151053628D02*
X253674719Y-151148923D01*
X253674719Y-151148923D02*
X253812708Y-151185897D01*
X253812708Y-151185897D02*
X254009019Y-151189200D01*
X254009019Y-151189200D02*
X254113337Y-151167853D01*
X254113337Y-151167853D02*
X254229979Y-151100509D01*
X254229979Y-151100509D02*
X254312950Y-150974845D01*
X254312950Y-150974845D02*
X254337599Y-150882852D01*
X254337599Y-150882852D02*
X254328577Y-150732537D01*
X254328577Y-150732537D02*
X254294905Y-150674216D01*
X254294905Y-150674216D02*
X253972930Y-150587943D01*
X253972930Y-150587943D02*
X253923631Y-150771929D01*
X254497820Y-150284897D02*
X253531895Y-150026078D01*
X253531895Y-150026078D02*
X254645717Y-149732940D01*
X254645717Y-149732940D02*
X253679791Y-149474121D01*
X254768964Y-149272975D02*
X253803038Y-149014156D01*
X253803038Y-149014156D02*
X253864662Y-148784174D01*
X253864662Y-148784174D02*
X253947633Y-148658509D01*
X253947633Y-148658509D02*
X254064275Y-148591166D01*
X254064275Y-148591166D02*
X254168593Y-148569819D01*
X254168593Y-148569819D02*
X254364903Y-148573121D01*
X254364903Y-148573121D02*
X254502893Y-148610095D01*
X254502893Y-148610095D02*
X254674554Y-148705391D01*
X254674554Y-148705391D02*
X254754222Y-148776036D01*
X254754222Y-148776036D02*
X254821565Y-148892679D01*
X254821565Y-148892679D02*
X254830588Y-149042993D01*
X254830588Y-149042993D02*
X254768964Y-149272975D01*
X255738850Y-151603406D02*
X256791049Y-151540250D01*
X256791049Y-151540250D02*
X255911396Y-150959455D01*
X257019499Y-150319692D02*
X257053171Y-150378013D01*
X257053171Y-150378013D02*
X257062193Y-150528327D01*
X257062193Y-150528327D02*
X257037543Y-150620320D01*
X257037543Y-150620320D02*
X256954573Y-150745985D01*
X256954573Y-150745985D02*
X256837930Y-150813328D01*
X256837930Y-150813328D02*
X256733613Y-150834675D01*
X256733613Y-150834675D02*
X256537302Y-150831373D01*
X256537302Y-150831373D02*
X256399313Y-150794399D01*
X256399313Y-150794399D02*
X256227652Y-150699104D01*
X256227652Y-150699104D02*
X256147983Y-150628458D01*
X256147983Y-150628458D02*
X256080640Y-150511815D01*
X256080640Y-150511815D02*
X256071618Y-150361501D01*
X256071618Y-150361501D02*
X256096267Y-150269508D01*
X256096267Y-150269508D02*
X256179238Y-150143844D01*
X256179238Y-150143844D02*
X256237559Y-150110172D01*
X257278318Y-149353766D02*
X257311990Y-149412087D01*
X257311990Y-149412087D02*
X257321012Y-149562401D01*
X257321012Y-149562401D02*
X257296363Y-149654394D01*
X257296363Y-149654394D02*
X257213392Y-149780059D01*
X257213392Y-149780059D02*
X257096750Y-149847403D01*
X257096750Y-149847403D02*
X256992432Y-149868750D01*
X256992432Y-149868750D02*
X256796121Y-149865447D01*
X256796121Y-149865447D02*
X256658132Y-149828473D01*
X256658132Y-149828473D02*
X256486471Y-149733178D01*
X256486471Y-149733178D02*
X256406802Y-149662532D01*
X256406802Y-149662532D02*
X256339459Y-149545890D01*
X256339459Y-149545890D02*
X256330437Y-149395575D01*
X256330437Y-149395575D02*
X256355086Y-149303582D01*
X256355086Y-149303582D02*
X256438057Y-149177918D01*
X256438057Y-149177918D02*
X256496378Y-149144246D01*
X259182878Y-152427633D02*
X258216952Y-152168814D01*
X258216952Y-152168814D02*
X258315549Y-151800842D01*
X258315549Y-151800842D02*
X258386195Y-151721174D01*
X258386195Y-151721174D02*
X258444517Y-151687502D01*
X258444517Y-151687502D02*
X258548834Y-151666155D01*
X258548834Y-151666155D02*
X258686824Y-151703129D01*
X258686824Y-151703129D02*
X258766492Y-151773775D01*
X258766492Y-151773775D02*
X258800164Y-151832096D01*
X258800164Y-151832096D02*
X258821511Y-151936414D01*
X258821511Y-151936414D02*
X258722913Y-152304386D01*
X259577268Y-150955746D02*
X259429372Y-151507704D01*
X259503320Y-151231725D02*
X258537394Y-150972906D01*
X258537394Y-150972906D02*
X258650734Y-151101873D01*
X258650734Y-151101873D02*
X258718078Y-151218515D01*
X258718078Y-151218515D02*
X258739425Y-151322833D01*
X258833188Y-149868991D02*
X258783889Y-150052976D01*
X258783889Y-150052976D02*
X258805236Y-150157294D01*
X258805236Y-150157294D02*
X258838907Y-150215615D01*
X258838907Y-150215615D02*
X258952247Y-150344582D01*
X258952247Y-150344582D02*
X259123909Y-150439878D01*
X259123909Y-150439878D02*
X259491880Y-150538475D01*
X259491880Y-150538475D02*
X259596198Y-150517128D01*
X259596198Y-150517128D02*
X259654519Y-150483457D01*
X259654519Y-150483457D02*
X259725165Y-150403788D01*
X259725165Y-150403788D02*
X259774464Y-150219803D01*
X259774464Y-150219803D02*
X259753117Y-150115485D01*
X259753117Y-150115485D02*
X259719445Y-150057164D01*
X259719445Y-150057164D02*
X259639777Y-149986518D01*
X259639777Y-149986518D02*
X259409795Y-149924894D01*
X259409795Y-149924894D02*
X259305477Y-149946241D01*
X259305477Y-149946241D02*
X259247156Y-149979913D01*
X259247156Y-149979913D02*
X259176510Y-150059581D01*
X259176510Y-150059581D02*
X259127211Y-150243567D01*
X259127211Y-150243567D02*
X259148558Y-150347885D01*
X259148558Y-150347885D02*
X259182230Y-150406206D01*
X259182230Y-150406206D02*
X259261898Y-150476852D01*
X261636330Y-153085033D02*
X260670404Y-152826214D01*
X260670404Y-152826214D02*
X260769001Y-152458242D01*
X260769001Y-152458242D02*
X260839647Y-152378574D01*
X260839647Y-152378574D02*
X260897969Y-152344902D01*
X260897969Y-152344902D02*
X261002286Y-152323555D01*
X261002286Y-152323555D02*
X261140276Y-152360529D01*
X261140276Y-152360529D02*
X261219944Y-152431175D01*
X261219944Y-152431175D02*
X261253616Y-152489496D01*
X261253616Y-152489496D02*
X261274963Y-152593814D01*
X261274963Y-152593814D02*
X261176365Y-152961786D01*
X262030720Y-151613146D02*
X261882824Y-152165104D01*
X261956772Y-151889125D02*
X260990846Y-151630306D01*
X260990846Y-151630306D02*
X261104186Y-151759273D01*
X261104186Y-151759273D02*
X261171530Y-151875915D01*
X261171530Y-151875915D02*
X261192877Y-151980233D01*
X261225016Y-150756373D02*
X261249665Y-150664380D01*
X261249665Y-150664380D02*
X261320311Y-150584712D01*
X261320311Y-150584712D02*
X261378632Y-150551040D01*
X261378632Y-150551040D02*
X261482950Y-150529693D01*
X261482950Y-150529693D02*
X261679261Y-150532995D01*
X261679261Y-150532995D02*
X261909243Y-150594619D01*
X261909243Y-150594619D02*
X262080904Y-150689914D01*
X262080904Y-150689914D02*
X262160572Y-150760560D01*
X262160572Y-150760560D02*
X262194244Y-150818881D01*
X262194244Y-150818881D02*
X262215591Y-150923199D01*
X262215591Y-150923199D02*
X262190942Y-151015192D01*
X262190942Y-151015192D02*
X262120296Y-151094860D01*
X262120296Y-151094860D02*
X262061975Y-151128532D01*
X262061975Y-151128532D02*
X261957657Y-151149879D01*
X261957657Y-151149879D02*
X261761346Y-151146577D01*
X261761346Y-151146577D02*
X261531364Y-151084953D01*
X261531364Y-151084953D02*
X261359703Y-150989658D01*
X261359703Y-150989658D02*
X261280035Y-150919012D01*
X261280035Y-150919012D02*
X261246363Y-150860691D01*
X261246363Y-150860691D02*
X261225016Y-150756373D01*
%TO.C,T1*%
X261474157Y-162394939D02*
X264227046Y-163132573D01*
X263182363Y-156019828D02*
X261474157Y-162394939D01*
X264576452Y-161828573D02*
X265585846Y-158061462D01*
X265081149Y-159945018D02*
X264227046Y-163132573D01*
X265081149Y-159945018D02*
X265935252Y-156757462D01*
X265935252Y-156757462D02*
X263182363Y-156019828D01*
%TO.C,B1*%
X254665751Y-155860121D02*
X254018703Y-158274936D01*
X255079363Y-160112053D02*
X254018703Y-158274936D01*
X256502868Y-154799461D02*
X254665751Y-155860121D01*
X257494178Y-160759101D02*
X255079363Y-160112053D01*
X257494178Y-160759101D02*
X259331295Y-159698441D01*
X258917683Y-155446509D02*
X256502868Y-154799461D01*
X258917683Y-155446509D02*
X259978343Y-157283626D01*
X259978343Y-157283626D02*
X259331295Y-159698441D01*
%TO.C,D11*%
D12*
X186222762Y-100710351D02*
X186619781Y-100759099D01*
X186619781Y-100759099D02*
X186552753Y-101304999D01*
X186619781Y-100759099D02*
X186686809Y-100213198D01*
X186619781Y-100759099D02*
X187264056Y-100435202D01*
X187166562Y-101229239D02*
X186619781Y-100759099D01*
X187215309Y-100832220D02*
X187711582Y-100893155D01*
X187264056Y-100435202D02*
X187166562Y-101229239D01*
%TO.C,D14*%
X204783100Y-117094906D02*
X205177025Y-117164365D01*
X205177025Y-117164365D02*
X205081517Y-117706009D01*
X205177025Y-117164365D02*
X205272530Y-116622720D01*
X205177025Y-117164365D02*
X205837367Y-116874631D01*
X205698449Y-117662477D02*
X205177025Y-117164365D01*
X205767908Y-117268554D02*
X206260312Y-117355378D01*
X205837367Y-116874631D02*
X205698449Y-117662477D01*
%TO.C,D3*%
X142470729Y-114460130D02*
X142870729Y-114460130D01*
X142870729Y-114460130D02*
X142870729Y-113910128D01*
X142870729Y-114460130D02*
X142870729Y-115010130D01*
X142870729Y-114460130D02*
X143470729Y-114060130D01*
X143470729Y-114060130D02*
X143470729Y-114860130D01*
X143470729Y-114460130D02*
X143970729Y-114460130D01*
X143470729Y-114860130D02*
X142870729Y-114460130D01*
%TO.C,D6*%
X162889501Y-123460625D02*
X163288954Y-123481559D01*
X163288954Y-123481559D02*
X163260169Y-124030806D01*
X163288954Y-123481559D02*
X163317738Y-122932313D01*
X163288954Y-123481559D02*
X163909065Y-123113509D01*
X163867197Y-123912413D02*
X163288954Y-123481559D01*
X163888132Y-123512961D02*
X164387447Y-123539129D01*
X163909065Y-123113509D02*
X163867197Y-123912413D01*
%TO.C,D7*%
X163779214Y-106483918D02*
X164178667Y-106504852D01*
X164178667Y-106504852D02*
X164149882Y-107054099D01*
X164178667Y-106504852D02*
X164207451Y-105955606D01*
X164178667Y-106504852D02*
X164798778Y-106136802D01*
X164756910Y-106935706D02*
X164178667Y-106504852D01*
X164777845Y-106536254D02*
X165277160Y-106562422D01*
X164798778Y-106136802D02*
X164756910Y-106935706D01*
%TO.C,JST1*%
D11*
X245934026Y-158696846D02*
X251632987Y-160223879D01*
X247901050Y-151355811D02*
X245934026Y-158696846D01*
X248163087Y-153082464D02*
X248577199Y-151536983D01*
X248577199Y-151536983D02*
X247901050Y-151355811D01*
X248740784Y-154790172D02*
X249223747Y-154919582D01*
X249046971Y-154613396D02*
X248917561Y-155096360D01*
X251632987Y-160223879D02*
X253600012Y-152882842D01*
X252509754Y-154247149D02*
X248163087Y-153082464D01*
X252923864Y-152701670D02*
X252509754Y-154247149D01*
X253600012Y-152882842D02*
X252923864Y-152701670D01*
%TO.C,D26*%
D12*
X246309546Y-194773309D02*
X246695916Y-194876836D01*
X246695916Y-194876836D02*
X246553565Y-195408097D01*
X246695916Y-194876836D02*
X246838267Y-194345577D01*
X246695916Y-194876836D02*
X247378999Y-194645757D01*
X247171944Y-195418498D02*
X246695916Y-194876836D01*
X247275471Y-195032128D02*
X247758434Y-195161537D01*
X247378999Y-194645757D02*
X247171944Y-195418498D01*
%TO.C,D8*%
X180007425Y-151330205D02*
X180404444Y-151378953D01*
X180404444Y-151378953D02*
X180337416Y-151924853D01*
X180404444Y-151378953D02*
X180471472Y-150833052D01*
X180404444Y-151378953D02*
X181048719Y-151055056D01*
X180951225Y-151849093D02*
X180404444Y-151378953D01*
X180999972Y-151452074D02*
X181496245Y-151513009D01*
X181048719Y-151055056D02*
X180951225Y-151849093D01*
%TO.C,D1*%
X142470732Y-148460133D02*
X142870732Y-148460133D01*
X142870732Y-148460133D02*
X142870732Y-147910131D01*
X142870732Y-148460133D02*
X142870732Y-149010133D01*
X142870732Y-148460133D02*
X143470732Y-148060133D01*
X143470732Y-148060133D02*
X143470732Y-148860133D01*
X143470732Y-148460133D02*
X143970732Y-148460133D01*
X143470732Y-148860133D02*
X142870732Y-148460133D01*
%TO.C,D2*%
X142470730Y-131460133D02*
X142870730Y-131460133D01*
X142870730Y-131460133D02*
X142870730Y-130910131D01*
X142870730Y-131460133D02*
X142870730Y-132010133D01*
X142870730Y-131460133D02*
X143470730Y-131060133D01*
X143470730Y-131060133D02*
X143470730Y-131860133D01*
X143470730Y-131460133D02*
X143970730Y-131460133D01*
X143470730Y-131860133D02*
X142870730Y-131460133D01*
%TO.C,D22*%
X224629470Y-171364460D02*
X225015840Y-171467987D01*
X225015840Y-171467987D02*
X224873489Y-171999248D01*
X225015840Y-171467987D02*
X225158191Y-170936728D01*
X225015840Y-171467987D02*
X225698923Y-171236908D01*
X225491868Y-172009649D02*
X225015840Y-171467987D01*
X225595395Y-171623279D02*
X226078358Y-171752688D01*
X225698923Y-171236908D02*
X225491868Y-172009649D01*
%TO.C,D4*%
X161110078Y-157414028D02*
X161509531Y-157434962D01*
X161509531Y-157434962D02*
X161480746Y-157984209D01*
X161509531Y-157434962D02*
X161538315Y-156885716D01*
X161509531Y-157434962D02*
X162129642Y-157066912D01*
X162087774Y-157865816D02*
X161509531Y-157434962D01*
X162108709Y-157466364D02*
X162608024Y-157492532D01*
X162129642Y-157066912D02*
X162087774Y-157865816D01*
%TO.C,D9*%
X182079204Y-134456919D02*
X182476223Y-134505667D01*
X182476223Y-134505667D02*
X182409195Y-135051567D01*
X182476223Y-134505667D02*
X182543251Y-133959766D01*
X182476223Y-134505667D02*
X183120498Y-134181770D01*
X183023004Y-134975807D02*
X182476223Y-134505667D01*
X183071751Y-134578788D02*
X183568024Y-134639723D01*
X183120498Y-134181770D02*
X183023004Y-134975807D01*
%TO.C,D23*%
X250709470Y-178352572D02*
X251095840Y-178456099D01*
X251095840Y-178456099D02*
X250953489Y-178987360D01*
X251095840Y-178456099D02*
X251238191Y-177924840D01*
X251095840Y-178456099D02*
X251778923Y-178225020D01*
X251571868Y-178997761D02*
X251095840Y-178456099D01*
X251675395Y-178611391D02*
X252158358Y-178740800D01*
X251778923Y-178225020D02*
X251571868Y-178997761D01*
%TO.C,D25*%
X228922880Y-190114572D02*
X229309250Y-190218099D01*
X229309250Y-190218099D02*
X229166899Y-190749360D01*
X229309250Y-190218099D02*
X229451601Y-189686840D01*
X229309250Y-190218099D02*
X229992333Y-189987020D01*
X229785278Y-190759761D02*
X229309250Y-190218099D01*
X229888805Y-190373391D02*
X230371768Y-190502800D01*
X229992333Y-189987020D02*
X229785278Y-190759761D01*
%TO.C,D21*%
X244918894Y-118825528D02*
X245305264Y-118929055D01*
X245305264Y-118929055D02*
X245162913Y-119460316D01*
X245305264Y-118929055D02*
X245447615Y-118397796D01*
X245305264Y-118929055D02*
X245988347Y-118697976D01*
X245781292Y-119470717D02*
X245305264Y-118929055D01*
X245884819Y-119084347D02*
X246367782Y-119213756D01*
X245988347Y-118697976D02*
X245781292Y-119470717D01*
%TO.C,D17*%
X222466387Y-126296865D02*
X222857647Y-126380030D01*
X222857647Y-126380030D02*
X222743296Y-126918010D01*
X222857647Y-126380030D02*
X222971998Y-125842049D01*
X222857647Y-126380030D02*
X223527701Y-126113518D01*
X223361371Y-126896036D02*
X222857647Y-126380030D01*
X223444536Y-126504777D02*
X223933611Y-126608733D01*
X223527701Y-126113518D02*
X223361371Y-126896036D01*
%TO.C,D20*%
X240518970Y-135246264D02*
X240905340Y-135349791D01*
X240905340Y-135349791D02*
X240762989Y-135881052D01*
X240905340Y-135349791D02*
X241047691Y-134818532D01*
X240905340Y-135349791D02*
X241588423Y-135118712D01*
X241381368Y-135891453D02*
X240905340Y-135349791D01*
X241484895Y-135505083D02*
X241967858Y-135634492D01*
X241588423Y-135118712D02*
X241381368Y-135891453D01*
%TO.C,D19*%
X236119047Y-151667002D02*
X236505417Y-151770529D01*
X236505417Y-151770529D02*
X236363066Y-152301790D01*
X236505417Y-151770529D02*
X236647768Y-151239270D01*
X236505417Y-151770529D02*
X237188500Y-151539450D01*
X236981445Y-152312191D02*
X236505417Y-151770529D01*
X237084972Y-151925821D02*
X237567935Y-152055230D01*
X237188500Y-151539450D02*
X236981445Y-152312191D01*
%TO.C,D12*%
X198879066Y-150578369D02*
X199272991Y-150647828D01*
X199272991Y-150647828D02*
X199177483Y-151189472D01*
X199272991Y-150647828D02*
X199368496Y-150106183D01*
X199272991Y-150647828D02*
X199933333Y-150358094D01*
X199794415Y-151145940D02*
X199272991Y-150647828D01*
X199863874Y-150752017D02*
X200356278Y-150838841D01*
X199933333Y-150358094D02*
X199794415Y-151145940D01*
%TO.C,MCU1*%
X276328651Y-116122878D02*
X276164301Y-116736241D01*
X275715288Y-115958528D01*
X276328651Y-116122878D01*
G36*
X276328651Y-116122878D02*
G01*
X276164301Y-116736241D01*
X275715288Y-115958528D01*
X276328651Y-116122878D01*
G37*
D13*
X276329945Y-116118048D02*
X268438552Y-145569127D01*
X251264391Y-140967324D01*
X259155784Y-111516245D01*
X276329945Y-116118048D01*
%TO.C,D18*%
D12*
X226000887Y-109668357D02*
X226392147Y-109751522D01*
X226392147Y-109751522D02*
X226277796Y-110289502D01*
X226392147Y-109751522D02*
X226506498Y-109213541D01*
X226392147Y-109751522D02*
X227062201Y-109485010D01*
X226895871Y-110267528D02*
X226392147Y-109751522D01*
X226979036Y-109876269D02*
X227468111Y-109980225D01*
X227062201Y-109485010D02*
X226895871Y-110267528D01*
%TO.C,D15*%
X207735120Y-100353176D02*
X208129045Y-100422635D01*
X208129045Y-100422635D02*
X208033537Y-100964279D01*
X208129045Y-100422635D02*
X208224550Y-99880990D01*
X208129045Y-100422635D02*
X208789387Y-100132901D01*
X208650469Y-100920747D02*
X208129045Y-100422635D01*
X208719928Y-100526824D02*
X209212332Y-100613648D01*
X208789387Y-100132901D02*
X208650469Y-100920747D01*
%TO.C,DISP1*%
D14*
X254077802Y-144956415D02*
X253389344Y-147525779D01*
X263319059Y-150186441D02*
X253389344Y-147525779D01*
X264007521Y-147617076D02*
X254077802Y-144956415D01*
X264007521Y-147617076D02*
X263319059Y-150186441D01*
%TO.C,D13*%
D12*
X201831082Y-133836638D02*
X202225007Y-133906097D01*
X202225007Y-133906097D02*
X202129499Y-134447741D01*
X202225007Y-133906097D02*
X202320512Y-133364452D01*
X202225007Y-133906097D02*
X202885349Y-133616363D01*
X202746431Y-134404209D02*
X202225007Y-133906097D01*
X202815890Y-134010286D02*
X203308294Y-134097110D01*
X202885349Y-133616363D02*
X202746431Y-134404209D01*
%TO.C,D24*%
X211536214Y-185455827D02*
X211922584Y-185559354D01*
X211922584Y-185559354D02*
X211780233Y-186090615D01*
X211922584Y-185559354D02*
X212064935Y-185028095D01*
X211922584Y-185559354D02*
X212605667Y-185328275D01*
X212398612Y-186101016D02*
X211922584Y-185559354D01*
X212502139Y-185714646D02*
X212985102Y-185844055D01*
X212605667Y-185328275D02*
X212398612Y-186101016D01*
%TO.C,D5*%
X161999789Y-140437329D02*
X162399242Y-140458263D01*
X162399242Y-140458263D02*
X162370457Y-141007510D01*
X162399242Y-140458263D02*
X162428026Y-139909017D01*
X162399242Y-140458263D02*
X163019353Y-140090213D01*
X162977485Y-140889117D02*
X162399242Y-140458263D01*
X162998420Y-140489665D02*
X163497735Y-140515833D01*
X163019353Y-140090213D02*
X162977485Y-140889117D01*
%TO.C,D16*%
X218931891Y-142925373D02*
X219323151Y-143008538D01*
X219323151Y-143008538D02*
X219208800Y-143546518D01*
X219323151Y-143008538D02*
X219437502Y-142470557D01*
X219323151Y-143008538D02*
X219993205Y-142742026D01*
X219826875Y-143524544D02*
X219323151Y-143008538D01*
X219910040Y-143133285D02*
X220399115Y-143237241D01*
X219993205Y-142742026D02*
X219826875Y-143524544D01*
%TO.C,D10*%
X184150981Y-117583634D02*
X184548000Y-117632382D01*
X184548000Y-117632382D02*
X184480972Y-118178282D01*
X184548000Y-117632382D02*
X184615028Y-117086481D01*
X184548000Y-117632382D02*
X185192275Y-117308485D01*
X185094781Y-118102522D02*
X184548000Y-117632382D01*
X185143528Y-117705503D02*
X185639801Y-117766438D01*
X185192275Y-117308485D02*
X185094781Y-118102522D01*
%TD*%
M02*
