%TF.GenerationSoftware,KiCad,Pcbnew,10.0.1*%
%TF.CreationDate,2026-05-06T13:17:17-07:00*%
%TF.ProjectId,schism v1,73636869-736d-4207-9631-2e6b69636164,v1.0.0*%
%TF.SameCoordinates,Original*%
%TF.FileFunction,Legend,Bot*%
%TF.FilePolarity,Positive*%
%FSLAX46Y46*%
G04 Gerber Fmt 4.6, Leading zero omitted, Abs format (unit mm)*
G04 Created by KiCad (PCBNEW 10.0.1) date 2026-05-06 13:17:17*
%MOMM*%
%LPD*%
G01*
G04 APERTURE LIST*
%ADD10C,0.250000*%
%ADD11C,0.150000*%
%ADD12C,0.100000*%
%ADD13C,0.200000*%
%ADD14C,0.120000*%
G04 APERTURE END LIST*
D10*
X263493333Y-142647614D02*
X263320787Y-143291564D01*
X263468684Y-142739607D02*
X263435012Y-142681285D01*
X263435012Y-142681285D02*
X263355344Y-142610640D01*
X263355344Y-142610640D02*
X263217355Y-142573665D01*
X263217355Y-142573665D02*
X263113037Y-142595012D01*
X263113037Y-142595012D02*
X263042391Y-142674681D01*
X263042391Y-142674681D02*
X262906819Y-143180642D01*
X262446854Y-143057395D02*
X262619400Y-142413444D01*
X262705673Y-142091469D02*
X262739345Y-142149790D01*
X262739345Y-142149790D02*
X262681024Y-142183462D01*
X262681024Y-142183462D02*
X262647352Y-142125141D01*
X262647352Y-142125141D02*
X262705673Y-142091469D01*
X262705673Y-142091469D02*
X262681024Y-142183462D01*
X261585247Y-142777229D02*
X261664915Y-142847875D01*
X261664915Y-142847875D02*
X261848901Y-142897173D01*
X261848901Y-142897173D02*
X261953218Y-142875826D01*
X261953218Y-142875826D02*
X262011540Y-142842155D01*
X262011540Y-142842155D02*
X262082185Y-142762486D01*
X262082185Y-142762486D02*
X262156134Y-142486508D01*
X262156134Y-142486508D02*
X262134787Y-142382190D01*
X262134787Y-142382190D02*
X262101115Y-142323869D01*
X262101115Y-142323869D02*
X262021447Y-142253223D01*
X262021447Y-142253223D02*
X261837461Y-142203924D01*
X261837461Y-142203924D02*
X261733143Y-142225271D01*
X260803306Y-142567708D02*
X260882975Y-142638354D01*
X260882975Y-142638354D02*
X261066961Y-142687653D01*
X261066961Y-142687653D02*
X261171278Y-142666306D01*
X261171278Y-142666306D02*
X261241924Y-142586638D01*
X261241924Y-142586638D02*
X261340522Y-142218666D01*
X261340522Y-142218666D02*
X261319175Y-142114349D01*
X261319175Y-142114349D02*
X261239507Y-142043703D01*
X261239507Y-142043703D02*
X261055521Y-141994404D01*
X261055521Y-141994404D02*
X260951203Y-142015751D01*
X260951203Y-142015751D02*
X260880557Y-142095419D01*
X260880557Y-142095419D02*
X260855908Y-142187412D01*
X260855908Y-142187412D02*
X261291223Y-142402652D01*
X260355666Y-142398465D02*
X260297345Y-142432137D01*
X260297345Y-142432137D02*
X260331017Y-142490458D01*
X260331017Y-142490458D02*
X260389338Y-142456786D01*
X260389338Y-142456786D02*
X260355666Y-142398465D01*
X260355666Y-142398465D02*
X260331017Y-142490458D01*
X260429615Y-142122486D02*
X260623508Y-141582853D01*
X260623508Y-141582853D02*
X260589836Y-141524532D01*
X260589836Y-141524532D02*
X260531515Y-141558204D01*
X260531515Y-141558204D02*
X260429615Y-142122486D01*
X260429615Y-142122486D02*
X260589836Y-141524532D01*
X260043599Y-141723260D02*
X259871053Y-142367211D01*
X260018949Y-141815253D02*
X259985278Y-141756932D01*
X259985278Y-141756932D02*
X259905609Y-141686286D01*
X259905609Y-141686286D02*
X259767620Y-141649312D01*
X259767620Y-141649312D02*
X259663302Y-141670659D01*
X259663302Y-141670659D02*
X259592656Y-141750327D01*
X259592656Y-141750327D02*
X259457085Y-142256288D01*
X258583152Y-142022119D02*
X258718723Y-141516157D01*
X258718723Y-141516157D02*
X258789369Y-141436489D01*
X258789369Y-141436489D02*
X258893687Y-141415142D01*
X258893687Y-141415142D02*
X259077673Y-141464441D01*
X259077673Y-141464441D02*
X259157341Y-141535087D01*
X258595476Y-141976122D02*
X258675144Y-142046768D01*
X258675144Y-142046768D02*
X258905127Y-142108392D01*
X258905127Y-142108392D02*
X259009444Y-142087045D01*
X259009444Y-142087045D02*
X259080090Y-142007376D01*
X259080090Y-142007376D02*
X259104740Y-141915383D01*
X259104740Y-141915383D02*
X259083393Y-141811066D01*
X259083393Y-141811066D02*
X259003725Y-141740420D01*
X259003725Y-141740420D02*
X258773742Y-141678796D01*
X258773742Y-141678796D02*
X258694074Y-141608150D01*
X258295733Y-141254921D02*
X258123187Y-141898871D01*
X258271083Y-141346914D02*
X258237412Y-141288593D01*
X258237412Y-141288593D02*
X258157743Y-141217947D01*
X258157743Y-141217947D02*
X258019754Y-141180973D01*
X258019754Y-141180973D02*
X257915436Y-141202320D01*
X257915436Y-141202320D02*
X257844790Y-141281988D01*
X257844790Y-141281988D02*
X257709219Y-141787949D01*
X257111264Y-141627728D02*
X257215582Y-141606381D01*
X257215582Y-141606381D02*
X257273903Y-141572709D01*
X257273903Y-141572709D02*
X257344549Y-141493041D01*
X257344549Y-141493041D02*
X257418497Y-141217062D01*
X257418497Y-141217062D02*
X257397150Y-141112744D01*
X257397150Y-141112744D02*
X257363479Y-141054423D01*
X257363479Y-141054423D02*
X257283810Y-140983777D01*
X257283810Y-140983777D02*
X257145821Y-140946803D01*
X257145821Y-140946803D02*
X257041503Y-140968150D01*
X257041503Y-140968150D02*
X256983182Y-141001822D01*
X256983182Y-141001822D02*
X256912536Y-141081490D01*
X256912536Y-141081490D02*
X256838588Y-141357469D01*
X256838588Y-141357469D02*
X256859935Y-141461786D01*
X256859935Y-141461786D02*
X256893607Y-141520108D01*
X256893607Y-141520108D02*
X256973275Y-141590753D01*
X256973275Y-141590753D02*
X257111264Y-141627728D01*
D11*
X254904536Y-148767014D02*
X253938610Y-148508195D01*
X253938610Y-148508195D02*
X253840013Y-148876167D01*
X253840013Y-148876167D02*
X253861360Y-148980484D01*
X253861360Y-148980484D02*
X253895031Y-149038806D01*
X253895031Y-149038806D02*
X253974700Y-149109452D01*
X253974700Y-149109452D02*
X254112689Y-149146426D01*
X254112689Y-149146426D02*
X254217007Y-149125079D01*
X254217007Y-149125079D02*
X254275328Y-149091407D01*
X254275328Y-149091407D02*
X254345974Y-149011739D01*
X254345974Y-149011739D02*
X254444571Y-148643767D01*
X254510145Y-150238901D02*
X254658042Y-149686943D01*
X254584093Y-149962922D02*
X253618168Y-149704103D01*
X253618168Y-149704103D02*
X253780806Y-149649084D01*
X253780806Y-149649084D02*
X253897449Y-149581741D01*
X253897449Y-149581741D02*
X253968095Y-149502073D01*
X253383998Y-150578036D02*
X253359349Y-150670029D01*
X253359349Y-150670029D02*
X253380696Y-150774347D01*
X253380696Y-150774347D02*
X253414367Y-150832668D01*
X253414367Y-150832668D02*
X253494036Y-150903314D01*
X253494036Y-150903314D02*
X253665697Y-150998609D01*
X253665697Y-150998609D02*
X253895679Y-151060233D01*
X253895679Y-151060233D02*
X254091990Y-151063535D01*
X254091990Y-151063535D02*
X254196307Y-151042188D01*
X254196307Y-151042188D02*
X254254628Y-151008516D01*
X254254628Y-151008516D02*
X254325274Y-150928848D01*
X254325274Y-150928848D02*
X254349924Y-150836855D01*
X254349924Y-150836855D02*
X254328577Y-150732538D01*
X254328577Y-150732538D02*
X254294905Y-150674216D01*
X254294905Y-150674216D02*
X254215237Y-150603570D01*
X254215237Y-150603570D02*
X254043576Y-150508275D01*
X254043576Y-150508275D02*
X253813593Y-150446652D01*
X253813593Y-150446652D02*
X253617283Y-150443349D01*
X253617283Y-150443349D02*
X253512965Y-150464696D01*
X253512965Y-150464696D02*
X253454644Y-150498368D01*
X253454644Y-150498368D02*
X253383998Y-150578036D01*
X257357986Y-149424412D02*
X256392060Y-149165593D01*
X256392060Y-149165593D02*
X256293463Y-149533565D01*
X256293463Y-149533565D02*
X256314810Y-149637882D01*
X256314810Y-149637882D02*
X256348481Y-149696204D01*
X256348481Y-149696204D02*
X256428150Y-149766850D01*
X256428150Y-149766850D02*
X256566139Y-149803824D01*
X256566139Y-149803824D02*
X256670457Y-149782477D01*
X256670457Y-149782477D02*
X256728778Y-149748805D01*
X256728778Y-149748805D02*
X256799424Y-149669137D01*
X256799424Y-149669137D02*
X256898021Y-149301165D01*
X256963595Y-150896299D02*
X257111492Y-150344341D01*
X257037543Y-150620320D02*
X256071618Y-150361501D01*
X256071618Y-150361501D02*
X256234256Y-150306482D01*
X256234256Y-150306482D02*
X256350899Y-150239139D01*
X256350899Y-150239139D02*
X256421545Y-150159471D01*
X255775824Y-151465416D02*
X255825123Y-151281431D01*
X255825123Y-151281431D02*
X255895769Y-151201762D01*
X255895769Y-151201762D02*
X255954090Y-151168091D01*
X255954090Y-151168091D02*
X256116729Y-151113072D01*
X256116729Y-151113072D02*
X256313040Y-151116374D01*
X256313040Y-151116374D02*
X256681012Y-151214972D01*
X256681012Y-151214972D02*
X256760680Y-151285618D01*
X256760680Y-151285618D02*
X256794352Y-151343939D01*
X256794352Y-151343939D02*
X256815699Y-151448257D01*
X256815699Y-151448257D02*
X256766400Y-151632243D01*
X256766400Y-151632243D02*
X256695754Y-151711911D01*
X256695754Y-151711911D02*
X256637433Y-151745583D01*
X256637433Y-151745583D02*
X256533115Y-151766930D01*
X256533115Y-151766930D02*
X256303133Y-151705306D01*
X256303133Y-151705306D02*
X256223464Y-151634660D01*
X256223464Y-151634660D02*
X256189793Y-151576339D01*
X256189793Y-151576339D02*
X256168446Y-151472021D01*
X256168446Y-151472021D02*
X256217744Y-151288035D01*
X256217744Y-151288035D02*
X256288390Y-151208367D01*
X256288390Y-151208367D02*
X256346712Y-151174695D01*
X256346712Y-151174695D02*
X256451029Y-151153348D01*
X258882486Y-149685005D02*
X259762139Y-150265799D01*
X259762139Y-150265799D02*
X258709940Y-150328955D01*
X259349704Y-151437058D02*
X259408025Y-151403386D01*
X259408025Y-151403386D02*
X259490995Y-151277721D01*
X259490995Y-151277721D02*
X259515645Y-151185728D01*
X259515645Y-151185728D02*
X259506623Y-151035414D01*
X259506623Y-151035414D02*
X259439279Y-150918772D01*
X259439279Y-150918772D02*
X259359611Y-150848126D01*
X259359611Y-150848126D02*
X259187950Y-150752831D01*
X259187950Y-150752831D02*
X259049960Y-150715857D01*
X259049960Y-150715857D02*
X258853650Y-150712554D01*
X258853650Y-150712554D02*
X258749332Y-150733901D01*
X258749332Y-150733901D02*
X258632690Y-150801245D01*
X258632690Y-150801245D02*
X258549719Y-150926909D01*
X258549719Y-150926909D02*
X258525070Y-151018902D01*
X258525070Y-151018902D02*
X258534092Y-151169216D01*
X258534092Y-151169216D02*
X258567764Y-151227538D01*
X259090885Y-152402984D02*
X259149206Y-152369312D01*
X259149206Y-152369312D02*
X259232176Y-152243647D01*
X259232176Y-152243647D02*
X259256826Y-152151654D01*
X259256826Y-152151654D02*
X259247803Y-152001340D01*
X259247803Y-152001340D02*
X259180460Y-151884698D01*
X259180460Y-151884698D02*
X259100792Y-151814052D01*
X259100792Y-151814052D02*
X258929131Y-151718757D01*
X258929131Y-151718757D02*
X258791141Y-151681782D01*
X258791141Y-151681782D02*
X258594831Y-151678480D01*
X258594831Y-151678480D02*
X258490513Y-151699827D01*
X258490513Y-151699827D02*
X258373871Y-151767171D01*
X258373871Y-151767171D02*
X258290900Y-151892835D01*
X258290900Y-151892835D02*
X258266251Y-151984828D01*
X258266251Y-151984828D02*
X258275273Y-152135142D01*
X258275273Y-152135142D02*
X258308945Y-152193463D01*
X261209389Y-150998680D02*
X261188042Y-150894362D01*
X261188042Y-150894362D02*
X261225016Y-150756373D01*
X261225016Y-150756373D02*
X261307987Y-150630708D01*
X261307987Y-150630708D02*
X261424629Y-150563365D01*
X261424629Y-150563365D02*
X261528947Y-150542018D01*
X261528947Y-150542018D02*
X261725257Y-150545320D01*
X261725257Y-150545320D02*
X261863247Y-150582294D01*
X261863247Y-150582294D02*
X262034908Y-150677590D01*
X262034908Y-150677590D02*
X262114576Y-150748235D01*
X262114576Y-150748235D02*
X262181919Y-150864878D01*
X262181919Y-150864878D02*
X262190942Y-151015192D01*
X262190942Y-151015192D02*
X262166292Y-151107185D01*
X262166292Y-151107185D02*
X262083322Y-151232850D01*
X262083322Y-151232850D02*
X262025001Y-151266521D01*
X262025001Y-151266521D02*
X261703025Y-151180248D01*
X261703025Y-151180248D02*
X261752324Y-150996262D01*
X262006071Y-151705139D02*
X261040145Y-151446320D01*
X261040145Y-151446320D02*
X261858174Y-152257097D01*
X261858174Y-152257097D02*
X260892249Y-151998277D01*
X261734927Y-152717061D02*
X260769001Y-152458242D01*
X260769001Y-152458242D02*
X260707378Y-152688224D01*
X260707378Y-152688224D02*
X260716400Y-152838539D01*
X260716400Y-152838539D02*
X260783744Y-152955181D01*
X260783744Y-152955181D02*
X260863412Y-153025827D01*
X260863412Y-153025827D02*
X261035073Y-153121122D01*
X261035073Y-153121122D02*
X261173062Y-153158096D01*
X261173062Y-153158096D02*
X261369373Y-153161399D01*
X261369373Y-153161399D02*
X261473691Y-153140052D01*
X261473691Y-153140052D02*
X261590333Y-153072708D01*
X261590333Y-153072708D02*
X261673304Y-152947044D01*
X261673304Y-152947044D02*
X261734927Y-152717061D01*
%TO.C,T1*%
X261474157Y-162394939D02*
X264227046Y-163132573D01*
X263182363Y-156019828D02*
X261474157Y-162394939D01*
X264576452Y-161828573D02*
X265585846Y-158061462D01*
X265081149Y-159945018D02*
X264227046Y-163132573D01*
X265081149Y-159945018D02*
X265935252Y-156757462D01*
X265935252Y-156757462D02*
X263182363Y-156019828D01*
%TO.C,B1*%
X254665751Y-155860121D02*
X254018703Y-158274936D01*
X255079363Y-160112053D02*
X254018703Y-158274936D01*
X256502868Y-154799461D02*
X254665751Y-155860121D01*
X257494178Y-160759101D02*
X255079363Y-160112053D01*
X257494178Y-160759101D02*
X259331295Y-159698441D01*
X258917683Y-155446509D02*
X256502868Y-154799461D01*
X258917683Y-155446509D02*
X259978343Y-157283626D01*
X259978343Y-157283626D02*
X259331295Y-159698441D01*
%TO.C,D11*%
D12*
X186222762Y-100710351D02*
X186619781Y-100759099D01*
X186619781Y-100759099D02*
X186552753Y-101304999D01*
X186619781Y-100759099D02*
X186686809Y-100213198D01*
X186619781Y-100759099D02*
X187264056Y-100435202D01*
X187166562Y-101229239D02*
X186619781Y-100759099D01*
X187215309Y-100832220D02*
X187711582Y-100893155D01*
X187264056Y-100435202D02*
X187166562Y-101229239D01*
%TO.C,D14*%
X204783100Y-117094906D02*
X205177025Y-117164365D01*
X205177025Y-117164365D02*
X205081517Y-117706009D01*
X205177025Y-117164365D02*
X205272530Y-116622720D01*
X205177025Y-117164365D02*
X205837367Y-116874631D01*
X205698449Y-117662477D02*
X205177025Y-117164365D01*
X205767908Y-117268554D02*
X206260312Y-117355378D01*
X205837367Y-116874631D02*
X205698449Y-117662477D01*
%TO.C,D3*%
X142470729Y-114460130D02*
X142870729Y-114460130D01*
X142870729Y-114460130D02*
X142870729Y-113910128D01*
X142870729Y-114460130D02*
X142870729Y-115010130D01*
X142870729Y-114460130D02*
X143470729Y-114060130D01*
X143470729Y-114060130D02*
X143470729Y-114860130D01*
X143470729Y-114460130D02*
X143970729Y-114460130D01*
X143470729Y-114860130D02*
X142870729Y-114460130D01*
%TO.C,D6*%
X162889501Y-123460625D02*
X163288954Y-123481559D01*
X163288954Y-123481559D02*
X163260169Y-124030806D01*
X163288954Y-123481559D02*
X163317738Y-122932313D01*
X163288954Y-123481559D02*
X163909065Y-123113509D01*
X163867197Y-123912413D02*
X163288954Y-123481559D01*
X163888132Y-123512961D02*
X164387447Y-123539129D01*
X163909065Y-123113509D02*
X163867197Y-123912413D01*
%TO.C,D7*%
X163779214Y-106483918D02*
X164178667Y-106504852D01*
X164178667Y-106504852D02*
X164149882Y-107054099D01*
X164178667Y-106504852D02*
X164207451Y-105955606D01*
X164178667Y-106504852D02*
X164798778Y-106136802D01*
X164756910Y-106935706D02*
X164178667Y-106504852D01*
X164777845Y-106536254D02*
X165277160Y-106562422D01*
X164798778Y-106136802D02*
X164756910Y-106935706D01*
%TO.C,JST1*%
D11*
X245934026Y-158696846D02*
X251632987Y-160223879D01*
X247901050Y-151355811D02*
X245934026Y-158696846D01*
X248163087Y-153082464D02*
X248577199Y-151536983D01*
X248577199Y-151536983D02*
X247901050Y-151355811D01*
X248740784Y-154790172D02*
X249223747Y-154919582D01*
X249046971Y-154613396D02*
X248917561Y-155096360D01*
X251632987Y-160223879D02*
X253600012Y-152882842D01*
X252509754Y-154247149D02*
X248163087Y-153082464D01*
X252923864Y-152701670D02*
X252509754Y-154247149D01*
X253600012Y-152882842D02*
X252923864Y-152701670D01*
%TO.C,D26*%
D12*
X246309546Y-194773309D02*
X246695916Y-194876836D01*
X246695916Y-194876836D02*
X246553565Y-195408097D01*
X246695916Y-194876836D02*
X246838267Y-194345577D01*
X246695916Y-194876836D02*
X247378999Y-194645757D01*
X247171944Y-195418498D02*
X246695916Y-194876836D01*
X247275471Y-195032128D02*
X247758434Y-195161537D01*
X247378999Y-194645757D02*
X247171944Y-195418498D01*
%TO.C,D8*%
X180007425Y-151330205D02*
X180404444Y-151378953D01*
X180404444Y-151378953D02*
X180337416Y-151924853D01*
X180404444Y-151378953D02*
X180471472Y-150833052D01*
X180404444Y-151378953D02*
X181048719Y-151055056D01*
X180951225Y-151849093D02*
X180404444Y-151378953D01*
X180999972Y-151452074D02*
X181496245Y-151513009D01*
X181048719Y-151055056D02*
X180951225Y-151849093D01*
%TO.C,D1*%
X142470732Y-148460133D02*
X142870732Y-148460133D01*
X142870732Y-148460133D02*
X142870732Y-147910131D01*
X142870732Y-148460133D02*
X142870732Y-149010133D01*
X142870732Y-148460133D02*
X143470732Y-148060133D01*
X143470732Y-148060133D02*
X143470732Y-148860133D01*
X143470732Y-148460133D02*
X143970732Y-148460133D01*
X143470732Y-148860133D02*
X142870732Y-148460133D01*
%TO.C,D2*%
X142470730Y-131460133D02*
X142870730Y-131460133D01*
X142870730Y-131460133D02*
X142870730Y-130910131D01*
X142870730Y-131460133D02*
X142870730Y-132010133D01*
X142870730Y-131460133D02*
X143470730Y-131060133D01*
X143470730Y-131060133D02*
X143470730Y-131860133D01*
X143470730Y-131460133D02*
X143970730Y-131460133D01*
X143470730Y-131860133D02*
X142870730Y-131460133D01*
%TO.C,D22*%
X224629470Y-171364460D02*
X225015840Y-171467987D01*
X225015840Y-171467987D02*
X224873489Y-171999248D01*
X225015840Y-171467987D02*
X225158191Y-170936728D01*
X225015840Y-171467987D02*
X225698923Y-171236908D01*
X225491868Y-172009649D02*
X225015840Y-171467987D01*
X225595395Y-171623279D02*
X226078358Y-171752688D01*
X225698923Y-171236908D02*
X225491868Y-172009649D01*
%TO.C,D4*%
X161110078Y-157414028D02*
X161509531Y-157434962D01*
X161509531Y-157434962D02*
X161480746Y-157984209D01*
X161509531Y-157434962D02*
X161538315Y-156885716D01*
X161509531Y-157434962D02*
X162129642Y-157066912D01*
X162087774Y-157865816D02*
X161509531Y-157434962D01*
X162108709Y-157466364D02*
X162608024Y-157492532D01*
X162129642Y-157066912D02*
X162087774Y-157865816D01*
%TO.C,D9*%
X182079204Y-134456919D02*
X182476223Y-134505667D01*
X182476223Y-134505667D02*
X182409195Y-135051567D01*
X182476223Y-134505667D02*
X182543251Y-133959766D01*
X182476223Y-134505667D02*
X183120498Y-134181770D01*
X183023004Y-134975807D02*
X182476223Y-134505667D01*
X183071751Y-134578788D02*
X183568024Y-134639723D01*
X183120498Y-134181770D02*
X183023004Y-134975807D01*
%TO.C,D23*%
X250709470Y-178352572D02*
X251095840Y-178456099D01*
X251095840Y-178456099D02*
X250953489Y-178987360D01*
X251095840Y-178456099D02*
X251238191Y-177924840D01*
X251095840Y-178456099D02*
X251778923Y-178225020D01*
X251571868Y-178997761D02*
X251095840Y-178456099D01*
X251675395Y-178611391D02*
X252158358Y-178740800D01*
X251778923Y-178225020D02*
X251571868Y-178997761D01*
%TO.C,D25*%
X228922880Y-190114572D02*
X229309250Y-190218099D01*
X229309250Y-190218099D02*
X229166899Y-190749360D01*
X229309250Y-190218099D02*
X229451601Y-189686840D01*
X229309250Y-190218099D02*
X229992333Y-189987020D01*
X229785278Y-190759761D02*
X229309250Y-190218099D01*
X229888805Y-190373391D02*
X230371768Y-190502800D01*
X229992333Y-189987020D02*
X229785278Y-190759761D01*
%TO.C,D21*%
X244918894Y-118825528D02*
X245305264Y-118929055D01*
X245305264Y-118929055D02*
X245162913Y-119460316D01*
X245305264Y-118929055D02*
X245447615Y-118397796D01*
X245305264Y-118929055D02*
X245988347Y-118697976D01*
X245781292Y-119470717D02*
X245305264Y-118929055D01*
X245884819Y-119084347D02*
X246367782Y-119213756D01*
X245988347Y-118697976D02*
X245781292Y-119470717D01*
%TO.C,D17*%
X222466387Y-126296865D02*
X222857647Y-126380030D01*
X222857647Y-126380030D02*
X222743296Y-126918010D01*
X222857647Y-126380030D02*
X222971998Y-125842049D01*
X222857647Y-126380030D02*
X223527701Y-126113518D01*
X223361371Y-126896036D02*
X222857647Y-126380030D01*
X223444536Y-126504777D02*
X223933611Y-126608733D01*
X223527701Y-126113518D02*
X223361371Y-126896036D01*
%TO.C,D20*%
X240518970Y-135246264D02*
X240905340Y-135349791D01*
X240905340Y-135349791D02*
X240762989Y-135881052D01*
X240905340Y-135349791D02*
X241047691Y-134818532D01*
X240905340Y-135349791D02*
X241588423Y-135118712D01*
X241381368Y-135891453D02*
X240905340Y-135349791D01*
X241484895Y-135505083D02*
X241967858Y-135634492D01*
X241588423Y-135118712D02*
X241381368Y-135891453D01*
%TO.C,D19*%
X236119047Y-151667002D02*
X236505417Y-151770529D01*
X236505417Y-151770529D02*
X236363066Y-152301790D01*
X236505417Y-151770529D02*
X236647768Y-151239270D01*
X236505417Y-151770529D02*
X237188500Y-151539450D01*
X236981445Y-152312191D02*
X236505417Y-151770529D01*
X237084972Y-151925821D02*
X237567935Y-152055230D01*
X237188500Y-151539450D02*
X236981445Y-152312191D01*
%TO.C,D12*%
X198879066Y-150578369D02*
X199272991Y-150647828D01*
X199272991Y-150647828D02*
X199177483Y-151189472D01*
X199272991Y-150647828D02*
X199368496Y-150106183D01*
X199272991Y-150647828D02*
X199933333Y-150358094D01*
X199794415Y-151145940D02*
X199272991Y-150647828D01*
X199863874Y-150752017D02*
X200356278Y-150838841D01*
X199933333Y-150358094D02*
X199794415Y-151145940D01*
%TO.C,MCU1*%
X259767853Y-111685425D02*
X258990142Y-112134437D01*
X259155784Y-111516245D01*
X259767853Y-111685425D01*
G36*
X259767853Y-111685425D02*
G01*
X258990142Y-112134437D01*
X259155784Y-111516245D01*
X259767853Y-111685425D01*
G37*
D13*
X276329945Y-116118048D02*
X268438552Y-145569127D01*
X251264391Y-140967324D01*
X259155784Y-111516245D01*
X276329945Y-116118048D01*
%TO.C,D18*%
D12*
X226000887Y-109668357D02*
X226392147Y-109751522D01*
X226392147Y-109751522D02*
X226277796Y-110289502D01*
X226392147Y-109751522D02*
X226506498Y-109213541D01*
X226392147Y-109751522D02*
X227062201Y-109485010D01*
X226895871Y-110267528D02*
X226392147Y-109751522D01*
X226979036Y-109876269D02*
X227468111Y-109980225D01*
X227062201Y-109485010D02*
X226895871Y-110267528D01*
%TO.C,D15*%
X207735120Y-100353176D02*
X208129045Y-100422635D01*
X208129045Y-100422635D02*
X208033537Y-100964279D01*
X208129045Y-100422635D02*
X208224550Y-99880990D01*
X208129045Y-100422635D02*
X208789387Y-100132901D01*
X208650469Y-100920747D02*
X208129045Y-100422635D01*
X208719928Y-100526824D02*
X209212332Y-100613648D01*
X208789387Y-100132901D02*
X208650469Y-100920747D01*
%TO.C,DISP1*%
D14*
X254077802Y-144956415D02*
X253389344Y-147525779D01*
X263319059Y-150186441D02*
X253389344Y-147525779D01*
X264007521Y-147617076D02*
X254077802Y-144956415D01*
X264007521Y-147617076D02*
X263319059Y-150186441D01*
%TO.C,D13*%
D12*
X201831082Y-133836638D02*
X202225007Y-133906097D01*
X202225007Y-133906097D02*
X202129499Y-134447741D01*
X202225007Y-133906097D02*
X202320512Y-133364452D01*
X202225007Y-133906097D02*
X202885349Y-133616363D01*
X202746431Y-134404209D02*
X202225007Y-133906097D01*
X202815890Y-134010286D02*
X203308294Y-134097110D01*
X202885349Y-133616363D02*
X202746431Y-134404209D01*
%TO.C,D24*%
X211536214Y-185455827D02*
X211922584Y-185559354D01*
X211922584Y-185559354D02*
X211780233Y-186090615D01*
X211922584Y-185559354D02*
X212064935Y-185028095D01*
X211922584Y-185559354D02*
X212605667Y-185328275D01*
X212398612Y-186101016D02*
X211922584Y-185559354D01*
X212502139Y-185714646D02*
X212985102Y-185844055D01*
X212605667Y-185328275D02*
X212398612Y-186101016D01*
%TO.C,D5*%
X161999789Y-140437329D02*
X162399242Y-140458263D01*
X162399242Y-140458263D02*
X162370457Y-141007510D01*
X162399242Y-140458263D02*
X162428026Y-139909017D01*
X162399242Y-140458263D02*
X163019353Y-140090213D01*
X162977485Y-140889117D02*
X162399242Y-140458263D01*
X162998420Y-140489665D02*
X163497735Y-140515833D01*
X163019353Y-140090213D02*
X162977485Y-140889117D01*
%TO.C,D16*%
X218931891Y-142925373D02*
X219323151Y-143008538D01*
X219323151Y-143008538D02*
X219208800Y-143546518D01*
X219323151Y-143008538D02*
X219437502Y-142470557D01*
X219323151Y-143008538D02*
X219993205Y-142742026D01*
X219826875Y-143524544D02*
X219323151Y-143008538D01*
X219910040Y-143133285D02*
X220399115Y-143237241D01*
X219993205Y-142742026D02*
X219826875Y-143524544D01*
%TO.C,D10*%
X184150981Y-117583634D02*
X184548000Y-117632382D01*
X184548000Y-117632382D02*
X184480972Y-118178282D01*
X184548000Y-117632382D02*
X184615028Y-117086481D01*
X184548000Y-117632382D02*
X185192275Y-117308485D01*
X185094781Y-118102522D02*
X184548000Y-117632382D01*
X185143528Y-117705503D02*
X185639801Y-117766438D01*
X185192275Y-117308485D02*
X185094781Y-118102522D01*
%TD*%
M02*
