%TF.GenerationSoftware,KiCad,Pcbnew,10.0.1*%
%TF.CreationDate,2026-05-06T13:17:17-07:00*%
%TF.ProjectId,schism v1,73636869-736d-4207-9631-2e6b69636164,v1.0.0*%
%TF.SameCoordinates,Original*%
%TF.FileFunction,Soldermask,Bot*%
%TF.FilePolarity,Negative*%
%FSLAX46Y46*%
G04 Gerber Fmt 4.6, Leading zero omitted, Abs format (unit mm)*
G04 Created by KiCad (PCBNEW 10.0.1) date 2026-05-06 13:17:17*
%MOMM*%
%LPD*%
G01*
G04 APERTURE LIST*
G04 Aperture macros list*
%AMRoundRect*
0 Rectangle with rounded corners*
0 $1 Rounding radius*
0 $2 $3 $4 $5 $6 $7 $8 $9 X,Y pos of 4 corners*
0 Add a 4 corners polygon primitive as box body*
4,1,4,$2,$3,$4,$5,$6,$7,$8,$9,$2,$3,0*
0 Add four circle primitives for the rounded corners*
1,1,$1+$1,$2,$3*
1,1,$1+$1,$4,$5*
1,1,$1+$1,$6,$7*
1,1,$1+$1,$8,$9*
0 Add four rect primitives between the rounded corners*
20,1,$1+$1,$2,$3,$4,$5,0*
20,1,$1+$1,$4,$5,$6,$7,0*
20,1,$1+$1,$6,$7,$8,$9,0*
20,1,$1+$1,$8,$9,$2,$3,0*%
%AMHorizOval*
0 Thick line with rounded ends*
0 $1 width*
0 $2 $3 position (X,Y) of the first rounded end (center of the circle)*
0 $4 $5 position (X,Y) of the second rounded end (center of the circle)*
0 Add line between two ends*
20,1,$1,$2,$3,$4,$5,0*
0 Add two circle primitives to create the rounded ends*
1,1,$1,$2,$3*
1,1,$1,$4,$5*%
%AMFreePoly0*
4,1,16,0.535355,0.785355,0.550000,0.750000,0.550000,-0.750000,0.535355,-0.785355,0.500000,-0.800000,-0.500000,-0.800000,-0.535355,-0.785355,-0.541603,-0.777735,-1.041603,-0.027735,-1.049029,0.009806,-1.041603,0.027735,-0.541603,0.777734,-0.509806,0.799029,-0.500000,0.800000,0.500000,0.800000,0.535355,0.785355,0.535355,0.785355,$1*%
%AMFreePoly1*
4,1,16,0.685355,0.785355,0.700000,0.750000,0.691603,0.722265,0.210093,0.000000,0.691603,-0.722265,0.699029,-0.759806,0.677735,-0.791603,0.650000,-0.800000,-0.500000,-0.800000,-0.535355,-0.785355,-0.550000,-0.750000,-0.550000,0.750000,-0.535355,0.785355,-0.500000,0.800000,0.650000,0.800000,0.685355,0.785355,0.685355,0.785355,$1*%
G04 Aperture macros list end*
%ADD10RoundRect,0.050000X-0.318198X0.551135X-0.551135X-0.318198X0.318198X-0.551135X0.551135X0.318198X0*%
%ADD11C,1.100000*%
%ADD12RoundRect,0.050000X-0.487235X0.596429X-0.720172X-0.272905X0.487235X-0.596429X0.720172X0.272905X0*%
%ADD13RoundRect,0.050000X-0.298322X1.011684X-0.764196X-0.726983X0.298322X-1.011684X0.764196X0.726983X0*%
%ADD14C,0.800000*%
%ADD15C,4.500000*%
%ADD16C,1.801800*%
%ADD17C,3.100000*%
%ADD18C,3.529000*%
%ADD19RoundRect,0.050000X-1.505993X-1.054507X1.054507X-1.505993X1.505993X1.054507X-1.054507X1.505993X0*%
%ADD20RoundRect,0.050000X-1.448740X-1.131880X1.131880X-1.448740X1.448740X1.131880X-1.131880X1.448740X0*%
%ADD21RoundRect,0.050000X-1.366255X-1.230182X1.230182X-1.366255X1.366255X1.230182X-1.230182X1.366255X0*%
%ADD22RoundRect,0.050000X-0.990715X-0.774032X0.774032X-0.990715X0.990715X0.774032X-0.774032X0.990715X0*%
%ADD23RoundRect,0.050000X-0.519767X-0.540686X0.373524X-0.650369X0.519767X0.540686X-0.373524X0.650369X0*%
%ADD24C,2.005000*%
%ADD25RoundRect,0.050000X-1.592168X-0.919239X0.919239X-1.592168X1.592168X0.919239X-0.919239X1.592168X0*%
%ADD26RoundRect,0.050000X-1.029867X-0.721121X0.721121X-1.029867X1.029867X0.721121X-0.721121X1.029867X0*%
%ADD27RoundRect,0.050000X-0.547352X-0.512743X0.338975X-0.669026X0.547352X0.512743X-0.338975X0.669026X0*%
%ADD28RoundRect,0.050000X-0.889000X-0.889000X0.889000X-0.889000X0.889000X0.889000X-0.889000X0.889000X0*%
%ADD29RoundRect,0.050000X-0.450000X-0.600000X0.450000X-0.600000X0.450000X0.600000X-0.450000X0.600000X0*%
%ADD30RoundRect,0.050000X-1.300000X-1.300000X1.300000X-1.300000X1.300000X1.300000X-1.300000X1.300000X0*%
%ADD31RoundRect,0.050000X-0.934308X-0.841255X0.841255X-0.934308X0.934308X0.841255X-0.841255X0.934308X0*%
%ADD32RoundRect,0.050000X-0.480785X-0.575627X0.417982X-0.622729X0.480785X0.575627X-0.417982X0.622729X0*%
%ADD33RoundRect,0.050000X-0.799552X-0.665746X0.359559X-0.976328X0.799552X0.665746X-0.359559X0.976328X0*%
%ADD34HorizOval,1.300000X-0.064705X-0.241481X0.064705X0.241481X0*%
%ADD35RoundRect,0.050000X-1.088798X-0.628618X0.628618X-1.088798X1.088798X0.628618X-0.628618X1.088798X0*%
%ADD36RoundRect,0.050000X-0.589958X-0.463087X0.279375X-0.696024X0.589958X0.463087X-0.279375X0.696024X0*%
%ADD37RoundRect,0.050000X-1.541877X-1.001307X1.001307X-1.541877X1.541877X1.001307X-1.001307X1.541877X0*%
%ADD38RoundRect,0.050000X-1.054407X-0.684740X0.684740X-1.054407X1.054407X0.684740X-0.684740X1.054407X0*%
%ADD39RoundRect,0.050000X-0.564913X-0.493328X0.315419X-0.680449X0.564913X0.493328X-0.315419X0.680449X0*%
%ADD40C,1.852600*%
%ADD41FreePoly0,165.000000*%
%ADD42FreePoly1,165.000000*%
%ADD43FreePoly1,345.000000*%
%ADD44FreePoly0,345.000000*%
%ADD45C,0.900000*%
%ADD46HorizOval,1.800000X0.000000X0.000000X0.000000X0.000000X0*%
%ADD47RoundRect,0.050000X-0.501910X0.445069X-0.657201X-0.134486X0.501910X-0.445069X0.657201X0.134486X0*%
G04 APERTURE END LIST*
D10*
%TO.C,T1*%
X265797297Y-156306387D03*
X263672261Y-155736985D03*
D11*
X264165378Y-158146723D03*
X263388920Y-161044501D03*
D10*
X263882037Y-163454239D03*
X261757001Y-162884837D03*
D12*
X262355196Y-156885229D03*
X261578739Y-159783007D03*
X261190510Y-161231896D03*
%TD*%
D13*
%TO.C,B1*%
X259587825Y-155263726D03*
X257983147Y-161252466D03*
X256013899Y-154306096D03*
X254409221Y-160294836D03*
%TD*%
D14*
%TO.C,_3*%
X216568953Y-151604959D03*
X217337731Y-150603067D03*
X216733789Y-152857009D03*
X218589781Y-150438231D03*
D15*
X218162731Y-152032009D03*
D14*
X217735681Y-153625787D03*
X219591673Y-151207009D03*
X218987731Y-153460951D03*
X219756509Y-152459059D03*
%TD*%
D16*
%TO.C,S15*%
X203925527Y-94604306D03*
D17*
X205069112Y-90998102D03*
X210375176Y-89699764D03*
X210375176Y-89699764D03*
D18*
X209341970Y-95559371D03*
D17*
X214917189Y-92734583D03*
D16*
X214758413Y-96514436D03*
D19*
X207149930Y-89131067D03*
X218142435Y-93303279D03*
%TD*%
D16*
%TO.C,S8*%
X175902180Y-145788595D03*
D17*
X176855461Y-142127481D03*
X182086305Y-140553224D03*
X182086305Y-140553224D03*
D18*
X181361182Y-146458876D03*
D17*
X186780923Y-143346176D03*
D16*
X186820184Y-147129157D03*
D20*
X178835716Y-140154104D03*
X190031511Y-143745297D03*
%TD*%
D16*
%TO.C,S6*%
X158407694Y-118218881D03*
D17*
X159103267Y-114500188D03*
X164211552Y-112564883D03*
X164211552Y-112564883D03*
D18*
X163900155Y-118506729D03*
D17*
X169089563Y-115023548D03*
D16*
X169392616Y-118794577D03*
D21*
X160941044Y-112393483D03*
X172360074Y-115194948D03*
%TD*%
D22*
%TO.C,D11*%
X183185571Y-100337430D03*
D23*
X185329470Y-100600669D03*
X188604874Y-101002837D03*
D24*
X190748773Y-101266076D03*
%TD*%
D16*
%TO.C,S23*%
X247415416Y-172293553D03*
D17*
X248868951Y-168800741D03*
X254267980Y-167969799D03*
X254267980Y-167969799D03*
D18*
X252728008Y-173717058D03*
D17*
X258528209Y-171388931D03*
D16*
X258040600Y-175140563D03*
D25*
X251104574Y-167122167D03*
X261691616Y-172236564D03*
%TD*%
D26*
%TO.C,D14*%
X201769586Y-116563542D03*
D27*
X203896773Y-116938624D03*
X207146639Y-117511660D03*
D24*
X209273826Y-117886742D03*
%TD*%
D28*
%TO.C,D3*%
X139410728Y-114460130D03*
D29*
X141570729Y-114460129D03*
X144870729Y-114460131D03*
D24*
X147030730Y-114460130D03*
%TD*%
D16*
%TO.C,S19*%
X232824992Y-145607989D03*
D17*
X234278527Y-142115177D03*
X239677556Y-141284235D03*
X239677556Y-141284235D03*
D18*
X238137584Y-147031494D03*
D17*
X243937785Y-144703367D03*
D16*
X243450176Y-148454999D03*
D25*
X236514150Y-140436603D03*
X247101192Y-145551000D03*
%TD*%
D16*
%TO.C,S1*%
X137720731Y-143460130D03*
D17*
X138220731Y-139710129D03*
X143220731Y-137510130D03*
X143220731Y-137510130D03*
D18*
X143220731Y-143460130D03*
D17*
X148220731Y-139710130D03*
D16*
X148720731Y-143460130D03*
D30*
X139945731Y-137510130D03*
X151495731Y-139710130D03*
%TD*%
D31*
%TO.C,D6*%
X159833695Y-123300477D03*
D32*
X161990735Y-123413523D03*
X165286213Y-123586231D03*
D24*
X167443253Y-123699277D03*
%TD*%
D31*
%TO.C,D7*%
X160723408Y-106323770D03*
D32*
X162880448Y-106436816D03*
X166175926Y-106609524D03*
D24*
X168332966Y-106722570D03*
%TD*%
D16*
%TO.C,S10*%
X180045737Y-112042025D03*
D17*
X180999018Y-108380911D03*
X186229862Y-106806654D03*
X186229862Y-106806654D03*
D18*
X185504739Y-112712306D03*
D17*
X190924480Y-109599606D03*
D16*
X190963741Y-113382587D03*
D20*
X182979273Y-106407534D03*
X194175068Y-109998727D03*
%TD*%
D16*
%TO.C,S26*%
X243015493Y-188714290D03*
D17*
X244469028Y-185221478D03*
X249868057Y-184390536D03*
X249868057Y-184390536D03*
D18*
X248328085Y-190137795D03*
D17*
X254128286Y-187809668D03*
D16*
X253640677Y-191561300D03*
D25*
X246704651Y-183542904D03*
X257291693Y-188657301D03*
%TD*%
D33*
%TO.C,JST1*%
X249435199Y-153164507D03*
D34*
X251367051Y-153682145D03*
%TD*%
D35*
%TO.C,D26*%
X243353813Y-193981321D03*
D36*
X245440212Y-194540373D03*
X248627768Y-195394473D03*
D24*
X250714167Y-195953525D03*
%TD*%
D22*
%TO.C,D8*%
X176970234Y-150957284D03*
D23*
X179114133Y-151220523D03*
X182389537Y-151622691D03*
D24*
X184533436Y-151885930D03*
%TD*%
D28*
%TO.C,D1*%
X139410731Y-148460133D03*
D29*
X141570732Y-148460132D03*
X144870732Y-148460134D03*
D24*
X147030733Y-148460133D03*
%TD*%
D16*
%TO.C,S18*%
X222394247Y-103790037D03*
D17*
X223662990Y-100225939D03*
D18*
X227774059Y-104933551D03*
D17*
X229011134Y-99113574D03*
X229011134Y-99113574D03*
X233444466Y-102305056D03*
D16*
X233153871Y-106077065D03*
D37*
X225807698Y-98432663D03*
X236647898Y-102985968D03*
%TD*%
D16*
%TO.C,S13*%
X198021486Y-128087768D03*
D17*
X199165071Y-124481564D03*
X204471135Y-123183226D03*
X204471135Y-123183226D03*
D18*
X203437929Y-129042833D03*
D17*
X209013148Y-126218045D03*
D16*
X208854372Y-129997898D03*
D19*
X201245889Y-122614529D03*
X212238394Y-126786741D03*
%TD*%
D14*
%TO.C,_5*%
X222786169Y-91605257D03*
X223501459Y-90564505D03*
X223016307Y-92846965D03*
X224743167Y-90334367D03*
D15*
X224400113Y-91948311D03*
D14*
X224057059Y-93562255D03*
X225783919Y-91049657D03*
X225298767Y-93332117D03*
X226014057Y-92291365D03*
%TD*%
D16*
%TO.C,S7*%
X159297406Y-101242181D03*
D17*
X159992979Y-97523488D03*
X165101264Y-95588183D03*
X165101264Y-95588183D03*
D18*
X164789867Y-101530029D03*
D17*
X169979275Y-98046848D03*
D16*
X170282328Y-101817877D03*
D21*
X161830756Y-95416783D03*
X173249786Y-98218248D03*
%TD*%
D28*
%TO.C,D2*%
X139410729Y-131460133D03*
D29*
X141570730Y-131460132D03*
X144870730Y-131460134D03*
D24*
X147030731Y-131460133D03*
%TD*%
D16*
%TO.C,S25*%
X225628824Y-184055549D03*
D17*
X227082359Y-180562737D03*
X232481388Y-179731795D03*
X232481388Y-179731795D03*
D18*
X230941416Y-185479054D03*
D17*
X236741617Y-183150927D03*
D16*
X236254008Y-186902559D03*
D25*
X229317982Y-178884163D03*
X239905024Y-183998560D03*
%TD*%
D35*
%TO.C,D22*%
X221673737Y-170572472D03*
D36*
X223760136Y-171131524D03*
X226947692Y-171985624D03*
D24*
X229034091Y-172544676D03*
%TD*%
D31*
%TO.C,D4*%
X158054272Y-157253880D03*
D32*
X160211312Y-157366926D03*
X163506790Y-157539634D03*
D24*
X165663830Y-157652680D03*
%TD*%
D22*
%TO.C,D9*%
X179042013Y-134083998D03*
D23*
X181185912Y-134347237D03*
X184461316Y-134749405D03*
D24*
X186605215Y-135012644D03*
%TD*%
D35*
%TO.C,D23*%
X247753737Y-177560584D03*
D36*
X249840136Y-178119636D03*
X253027692Y-178973736D03*
D24*
X255114091Y-179532788D03*
%TD*%
D35*
%TO.C,D25*%
X225967147Y-189322584D03*
D36*
X228053546Y-189881636D03*
X231241102Y-190735736D03*
D24*
X233327501Y-191294788D03*
%TD*%
D35*
%TO.C,D21*%
X241963161Y-118033540D03*
D36*
X244049560Y-118592592D03*
X247237116Y-119446692D03*
D24*
X249323515Y-120005744D03*
%TD*%
D14*
%TO.C,_2*%
X147570729Y-155460130D03*
X148054003Y-154293405D03*
X148054003Y-156626857D03*
X149220728Y-157110131D03*
D15*
X149220729Y-155460131D03*
D14*
X149220730Y-153810131D03*
X150387455Y-154293405D03*
X150387455Y-156626857D03*
X150870729Y-155460132D03*
%TD*%
D38*
%TO.C,D17*%
X219473257Y-125660654D03*
D39*
X221586055Y-126109745D03*
X224813943Y-126795853D03*
D24*
X226926741Y-127244944D03*
%TD*%
D16*
%TO.C,S16*%
X215325249Y-137047060D03*
D17*
X216593992Y-133482962D03*
D18*
X220705061Y-138190574D03*
D17*
X221942136Y-132370597D03*
X221942136Y-132370597D03*
X226375468Y-135562079D03*
D16*
X226084873Y-139334088D03*
D37*
X218738700Y-131689686D03*
X229578900Y-136242991D03*
%TD*%
D35*
%TO.C,D20*%
X237563237Y-134454276D03*
D36*
X239649636Y-135013328D03*
X242837192Y-135867428D03*
D24*
X244923591Y-136426480D03*
%TD*%
D16*
%TO.C,S14*%
X200973506Y-111346038D03*
D17*
X202117091Y-107739834D03*
X207423155Y-106441496D03*
X207423155Y-106441496D03*
D18*
X206389949Y-112301103D03*
D17*
X211965168Y-109476315D03*
D16*
X211806392Y-113256168D03*
D19*
X204197909Y-105872799D03*
X215190414Y-110045011D03*
%TD*%
D35*
%TO.C,D19*%
X233163314Y-150875014D03*
D36*
X235249713Y-151434066D03*
X238437269Y-152288166D03*
D24*
X240523668Y-152847218D03*
%TD*%
D14*
%TO.C,_1*%
X149570729Y-97460131D03*
X150054003Y-96293406D03*
X150054003Y-98626858D03*
X151220728Y-99110132D03*
D15*
X151220729Y-97460132D03*
D14*
X151220730Y-95810132D03*
X152387455Y-96293406D03*
X152387455Y-98626858D03*
X152870729Y-97460133D03*
%TD*%
D16*
%TO.C,S9*%
X177973958Y-128915308D03*
D17*
X178927239Y-125254194D03*
X184158083Y-123679937D03*
X184158083Y-123679937D03*
D18*
X183432960Y-129585589D03*
D17*
X188852701Y-126472889D03*
D16*
X188891962Y-130255870D03*
D20*
X180907494Y-123280817D03*
X192103289Y-126872010D03*
%TD*%
D16*
%TO.C,S12*%
X195069466Y-144829503D03*
D17*
X196213051Y-141223299D03*
X201519115Y-139924961D03*
X201519115Y-139924961D03*
D18*
X200485909Y-145784568D03*
D17*
X206061128Y-142959780D03*
D16*
X205902352Y-146739633D03*
D19*
X198293869Y-139356264D03*
X209286374Y-143528476D03*
%TD*%
D16*
%TO.C,S3*%
X137720732Y-109460131D03*
D17*
X138220732Y-105710130D03*
X143220732Y-103510131D03*
X143220732Y-103510131D03*
D18*
X143220732Y-109460131D03*
D17*
X148220732Y-105710131D03*
D16*
X148720732Y-109460131D03*
D30*
X139945732Y-103510131D03*
X151495732Y-105710131D03*
%TD*%
D14*
%TO.C,_4*%
X236746881Y-192211004D03*
X237515659Y-191209112D03*
X236911717Y-193463054D03*
X238767709Y-191044276D03*
D15*
X238340659Y-192638054D03*
D14*
X237913609Y-194231832D03*
X239769601Y-191813054D03*
X239165659Y-194066996D03*
X239934437Y-193065104D03*
%TD*%
D26*
%TO.C,D12*%
X195865552Y-150047005D03*
D27*
X197992739Y-150422087D03*
X201242605Y-150995123D03*
D24*
X203369792Y-151370205D03*
%TD*%
D16*
%TO.C,S4*%
X156628271Y-152172283D03*
D17*
X157323844Y-148453590D03*
X162432129Y-146518285D03*
X162432129Y-146518285D03*
D18*
X162120732Y-152460131D03*
D17*
X167310140Y-148976950D03*
D16*
X167613193Y-152747979D03*
D21*
X159161621Y-146346885D03*
X170580651Y-149148350D03*
%TD*%
D16*
%TO.C,S2*%
X137720733Y-126460132D03*
D17*
X138220733Y-122710131D03*
X143220733Y-120510132D03*
X143220733Y-120510132D03*
D18*
X143220733Y-126460132D03*
D17*
X148220733Y-122710132D03*
D16*
X148720733Y-126460132D03*
D30*
X139945733Y-120510132D03*
X151495733Y-122710132D03*
%TD*%
D40*
%TO.C,MCU1*%
X254135911Y-135157565D03*
X260052515Y-113076501D03*
X259395115Y-115529953D03*
X258080314Y-120436856D03*
X257422914Y-122890307D03*
X256765513Y-125343759D03*
X256108113Y-127797211D03*
X255450713Y-130250662D03*
X254793312Y-132704114D03*
X253478512Y-137611016D03*
X252821111Y-140064470D03*
X258737715Y-117983406D03*
D41*
X259920402Y-120929906D03*
X255318600Y-138104066D03*
X261892604Y-113569551D03*
X261235204Y-116023003D03*
X260577803Y-118476456D03*
X259263002Y-123383358D03*
X256633401Y-133197164D03*
X255976001Y-135650615D03*
X258605604Y-125836808D03*
X257948202Y-128290262D03*
X257290801Y-130743717D03*
X254661201Y-140557520D03*
D42*
X262635792Y-116398290D03*
X261978392Y-118851741D03*
X261320991Y-121305193D03*
X260663591Y-123758643D03*
X260006191Y-126212096D03*
X259348790Y-128665549D03*
X258691390Y-131118999D03*
X257376589Y-136025902D03*
X256719189Y-138479354D03*
X256061788Y-140932806D03*
X258033991Y-133572451D03*
X263293194Y-113944839D03*
D43*
X271532538Y-116152564D03*
X270217737Y-121059467D03*
X269560337Y-123512919D03*
X268902936Y-125966371D03*
X268245536Y-128419822D03*
X266930735Y-133326725D03*
X266273335Y-135780177D03*
X265615935Y-138233627D03*
X264958534Y-140687080D03*
X264301134Y-143140531D03*
X267588137Y-130873272D03*
X270875139Y-118606016D03*
D44*
X272933135Y-116527852D03*
X270303535Y-126341655D03*
X269646134Y-128795110D03*
X268988732Y-131248564D03*
X271618335Y-121434757D03*
X270960935Y-123888208D03*
X268331334Y-133702014D03*
X267016533Y-138608916D03*
X266359132Y-141062369D03*
X265701732Y-143515821D03*
X272275736Y-118981306D03*
X267673934Y-136155466D03*
D40*
X268856621Y-139101966D03*
X274773225Y-117020902D03*
X274115824Y-119474356D03*
X272801024Y-124381258D03*
X272143623Y-126834710D03*
X271486223Y-129288161D03*
X270828823Y-131741613D03*
X270171422Y-134195065D03*
X269514022Y-136648516D03*
X268199221Y-141555419D03*
X267541821Y-144008871D03*
X273458425Y-121927807D03*
D45*
X269943596Y-115726808D03*
X262909943Y-121730952D03*
X263567344Y-119277501D03*
X269286195Y-118180260D03*
X264224744Y-116824048D03*
X264882144Y-114370596D03*
X262252543Y-124184404D03*
X261595143Y-126637854D03*
X260937742Y-129091306D03*
X260280342Y-131544756D03*
X259622942Y-133998209D03*
X258965541Y-136451661D03*
X258308141Y-138905112D03*
X257650740Y-141358564D03*
X262712192Y-142714776D03*
X264026992Y-137807871D03*
X264684393Y-135354420D03*
X263369592Y-140261324D03*
X265341793Y-132900968D03*
X265999193Y-130447518D03*
X266656594Y-127994066D03*
X267313994Y-125540616D03*
X268628795Y-120633711D03*
X267971394Y-123087163D03*
%TD*%
D14*
%TO.C,_6*%
X193875051Y-116186952D03*
X194553582Y-115121869D03*
X194148383Y-117419872D03*
X195786502Y-114848537D03*
D15*
X195499984Y-116473470D03*
D14*
X195213466Y-118098403D03*
X196851585Y-115527068D03*
X196446386Y-117825071D03*
X197124917Y-116759988D03*
%TD*%
D16*
%TO.C,S11*%
X182117513Y-95168740D03*
D17*
X183070794Y-91507626D03*
X188301638Y-89933369D03*
X188301638Y-89933369D03*
D18*
X187576515Y-95839021D03*
D17*
X192996256Y-92726321D03*
D16*
X193035517Y-96509302D03*
D20*
X185051049Y-89534249D03*
X196246844Y-93125442D03*
%TD*%
D16*
%TO.C,S17*%
X218859748Y-120418548D03*
D17*
X220128491Y-116854450D03*
D18*
X224239560Y-121562062D03*
D17*
X225476635Y-115742085D03*
X225476635Y-115742085D03*
X229909967Y-118933567D03*
D16*
X229619372Y-122705576D03*
D37*
X222273199Y-115061174D03*
X233113399Y-119614479D03*
%TD*%
D16*
%TO.C,S24*%
X208242163Y-179396806D03*
D17*
X209695698Y-175903994D03*
X215094727Y-175073052D03*
X215094727Y-175073052D03*
D18*
X213554755Y-180820311D03*
D17*
X219354956Y-178492184D03*
D16*
X218867347Y-182243816D03*
D25*
X211931321Y-174225420D03*
X222518363Y-179339817D03*
%TD*%
D38*
%TO.C,D18*%
X223007757Y-109032146D03*
D39*
X225120555Y-109481237D03*
X228348443Y-110167345D03*
D24*
X230461241Y-110616436D03*
%TD*%
D16*
%TO.C,S22*%
X221335418Y-165305438D03*
D17*
X222788953Y-161812626D03*
X228187982Y-160981684D03*
X228187982Y-160981684D03*
D18*
X226648010Y-166728943D03*
D17*
X232448211Y-164400816D03*
D16*
X231960602Y-168152448D03*
D25*
X225024576Y-160134052D03*
X235611618Y-165248449D03*
%TD*%
D16*
%TO.C,S5*%
X157517982Y-135195583D03*
D17*
X158213555Y-131476890D03*
X163321840Y-129541585D03*
X163321840Y-129541585D03*
D18*
X163010443Y-135483431D03*
D17*
X168199851Y-132000250D03*
D16*
X168502904Y-135771279D03*
D21*
X160051332Y-129370185D03*
X171470362Y-132171650D03*
%TD*%
D26*
%TO.C,D15*%
X204721606Y-99821812D03*
D27*
X206848793Y-100196894D03*
X210098659Y-100769930D03*
D24*
X212225846Y-101145012D03*
%TD*%
D46*
%TO.C,DISP1*%
X255018253Y-146585328D03*
X257471705Y-147242726D03*
X259925156Y-147900125D03*
X262378608Y-148557529D03*
D47*
X262831542Y-146867156D03*
X260378091Y-146209757D03*
X257924636Y-145552357D03*
X255471187Y-144894957D03*
X263064477Y-145997824D03*
X260611027Y-145340425D03*
X258157575Y-144683022D03*
X255704123Y-144025623D03*
%TD*%
D16*
%TO.C,S20*%
X237224916Y-129187244D03*
D17*
X238678451Y-125694432D03*
X244077480Y-124863490D03*
X244077480Y-124863490D03*
D18*
X242537508Y-130610749D03*
D17*
X248337709Y-128282622D03*
D16*
X247850100Y-132034254D03*
D25*
X240914074Y-124015858D03*
X251501116Y-129130255D03*
%TD*%
D26*
%TO.C,D13*%
X198817568Y-133305274D03*
D27*
X200944755Y-133680356D03*
X204194621Y-134253392D03*
D24*
X206321808Y-134628474D03*
%TD*%
D16*
%TO.C,S21*%
X241624840Y-112766505D03*
D17*
X243078375Y-109273693D03*
X248477404Y-108442751D03*
X248477404Y-108442751D03*
D18*
X246937432Y-114190010D03*
D17*
X252737633Y-111861883D03*
D16*
X252250024Y-115613515D03*
D25*
X245313998Y-107595119D03*
X255901040Y-112709516D03*
%TD*%
D35*
%TO.C,D24*%
X208580481Y-184663839D03*
D36*
X210666880Y-185222891D03*
X213854436Y-186076991D03*
D24*
X215940835Y-186636043D03*
%TD*%
D31*
%TO.C,D5*%
X158943983Y-140277181D03*
D32*
X161101023Y-140390227D03*
X164396501Y-140562935D03*
D24*
X166553541Y-140675981D03*
%TD*%
D38*
%TO.C,D16*%
X215938761Y-142289162D03*
D39*
X218051559Y-142738253D03*
X221279447Y-143424361D03*
D24*
X223392245Y-143873452D03*
%TD*%
D22*
%TO.C,D10*%
X181113790Y-117210713D03*
D23*
X183257689Y-117473952D03*
X186533093Y-117876120D03*
D24*
X188676992Y-118139359D03*
%TD*%
M02*
