%TF.GenerationSoftware,KiCad,Pcbnew,10.0.1*%
%TF.CreationDate,2026-05-06T13:17:17-07:00*%
%TF.ProjectId,schism v1,73636869-736d-4207-9631-2e6b69636164,v1.0.0*%
%TF.SameCoordinates,Original*%
%TF.FileFunction,Copper,L2,Bot*%
%TF.FilePolarity,Positive*%
%FSLAX46Y46*%
G04 Gerber Fmt 4.6, Leading zero omitted, Abs format (unit mm)*
G04 Created by KiCad (PCBNEW 10.0.1) date 2026-05-06 13:17:17*
%MOMM*%
%LPD*%
G01*
G04 APERTURE LIST*
G04 Aperture macros list*
%AMHorizOval*
0 Thick line with rounded ends*
0 $1 width*
0 $2 $3 position (X,Y) of the first rounded end (center of the circle)*
0 $4 $5 position (X,Y) of the second rounded end (center of the circle)*
0 Add line between two ends*
20,1,$1,$2,$3,$4,$5,0*
0 Add two circle primitives to create the rounded ends*
1,1,$1,$2,$3*
1,1,$1,$4,$5*%
%AMRotRect*
0 Rectangle, with rotation*
0 The origin of the aperture is its center*
0 $1 length*
0 $2 width*
0 $3 Rotation angle, in degrees counterclockwise*
0 Add horizontal line*
21,1,$1,$2,0,0,$3*%
%AMFreePoly0*
4,1,6,0.500000,-0.750000,-0.500000,-0.750000,-1.000000,0.000000,-0.500000,0.750000,0.500000,0.750000,0.500000,-0.750000,0.500000,-0.750000,$1*%
%AMFreePoly1*
4,1,6,0.150000,0.000000,0.650001,-0.750000,-0.500000,-0.750000,-0.500000,0.750000,0.650000,0.750000,0.150000,0.000000,0.150000,0.000000,$1*%
G04 Aperture macros list end*
%TA.AperFunction,SMDPad,CuDef*%
%ADD10RotRect,0.900000X0.900000X255.000000*%
%TD*%
%TA.AperFunction,WasherPad*%
%ADD11C,1.000000*%
%TD*%
%TA.AperFunction,SMDPad,CuDef*%
%ADD12RotRect,0.900000X1.250000X255.000000*%
%TD*%
%TA.AperFunction,SMDPad,CuDef*%
%ADD13RotRect,1.800000X1.100000X255.000000*%
%TD*%
%TA.AperFunction,ComponentPad*%
%ADD14C,0.700000*%
%TD*%
%TA.AperFunction,ComponentPad*%
%ADD15C,4.400000*%
%TD*%
%TA.AperFunction,SMDPad,CuDef*%
%ADD16RotRect,2.600000X2.600000X350.000000*%
%TD*%
%TA.AperFunction,SMDPad,CuDef*%
%ADD17RotRect,2.600000X2.600000X353.000000*%
%TD*%
%TA.AperFunction,SMDPad,CuDef*%
%ADD18RotRect,2.600000X2.600000X357.000000*%
%TD*%
%TA.AperFunction,ComponentPad*%
%ADD19RotRect,1.778000X1.778000X353.000000*%
%TD*%
%TA.AperFunction,SMDPad,CuDef*%
%ADD20RotRect,0.900000X1.200000X353.000000*%
%TD*%
%TA.AperFunction,ComponentPad*%
%ADD21C,1.905000*%
%TD*%
%TA.AperFunction,SMDPad,CuDef*%
%ADD22RotRect,2.600000X2.600000X345.000000*%
%TD*%
%TA.AperFunction,ComponentPad*%
%ADD23RotRect,1.778000X1.778000X350.000000*%
%TD*%
%TA.AperFunction,SMDPad,CuDef*%
%ADD24RotRect,0.900000X1.200000X350.000000*%
%TD*%
%TA.AperFunction,ComponentPad*%
%ADD25R,1.778000X1.778000*%
%TD*%
%TA.AperFunction,SMDPad,CuDef*%
%ADD26R,0.900000X1.200000*%
%TD*%
%TA.AperFunction,SMDPad,CuDef*%
%ADD27R,2.600000X2.600000*%
%TD*%
%TA.AperFunction,ComponentPad*%
%ADD28RotRect,1.778000X1.778000X357.000000*%
%TD*%
%TA.AperFunction,SMDPad,CuDef*%
%ADD29RotRect,0.900000X1.200000X357.000000*%
%TD*%
%TA.AperFunction,ComponentPad*%
%ADD30RotRect,1.200000X1.700000X345.000000*%
%TD*%
%TA.AperFunction,ComponentPad*%
%ADD31HorizOval,1.200000X-0.064705X-0.241481X0.064705X0.241481X0*%
%TD*%
%TA.AperFunction,ComponentPad*%
%ADD32RotRect,1.778000X1.778000X345.000000*%
%TD*%
%TA.AperFunction,SMDPad,CuDef*%
%ADD33RotRect,0.900000X1.200000X345.000000*%
%TD*%
%TA.AperFunction,SMDPad,CuDef*%
%ADD34RotRect,2.600000X2.600000X348.000000*%
%TD*%
%TA.AperFunction,ComponentPad*%
%ADD35RotRect,1.778000X1.778000X348.000000*%
%TD*%
%TA.AperFunction,SMDPad,CuDef*%
%ADD36RotRect,0.900000X1.200000X348.000000*%
%TD*%
%TA.AperFunction,ComponentPad*%
%ADD37C,1.752600*%
%TD*%
%TA.AperFunction,SMDPad,CuDef*%
%ADD38FreePoly0,165.000000*%
%TD*%
%TA.AperFunction,SMDPad,CuDef*%
%ADD39FreePoly1,165.000000*%
%TD*%
%TA.AperFunction,SMDPad,CuDef*%
%ADD40FreePoly1,345.000000*%
%TD*%
%TA.AperFunction,SMDPad,CuDef*%
%ADD41FreePoly0,345.000000*%
%TD*%
%TA.AperFunction,ComponentPad*%
%ADD42C,0.800000*%
%TD*%
%TA.AperFunction,ComponentPad*%
%ADD43HorizOval,1.700000X0.000000X0.000000X0.000000X0.000000X0*%
%TD*%
%TA.AperFunction,SMDPad,CuDef*%
%ADD44RotRect,0.600000X1.200000X255.000000*%
%TD*%
%TA.AperFunction,ViaPad*%
%ADD45C,0.800000*%
%TD*%
%TA.AperFunction,Conductor*%
%ADD46C,0.250000*%
%TD*%
G04 APERTURE END LIST*
D10*
%TO.P,T1,*%
%TO.N,*%
X265797297Y-156306387D03*
X263672261Y-155736985D03*
D11*
X264165378Y-158146723D03*
X263388920Y-161044501D03*
D10*
X263882037Y-163454239D03*
X261757001Y-162884837D03*
D12*
%TO.P,T1,1*%
%TO.N,pos*%
X262355196Y-156885229D03*
%TO.P,T1,2*%
%TO.N,RAW*%
X261578739Y-159783007D03*
%TO.P,T1,3*%
%TO.N,N/C*%
X261190510Y-161231896D03*
%TD*%
D13*
%TO.P,B1,1*%
%TO.N,GND*%
X259587825Y-155263726D03*
X257983147Y-161252466D03*
%TO.P,B1,2*%
%TO.N,RST*%
X256013899Y-154306096D03*
X254409221Y-160294836D03*
%TD*%
D14*
%TO.P,_3,1*%
%TO.N,N/C*%
X216568953Y-151604959D03*
X217337731Y-150603067D03*
X216733789Y-152857009D03*
X218589781Y-150438231D03*
D15*
X218162731Y-152032009D03*
D14*
X217735681Y-153625787D03*
X219591673Y-151207009D03*
X218987731Y-153460951D03*
X219756509Y-152459059D03*
%TD*%
D16*
%TO.P,S15,1*%
%TO.N,P3*%
X207149930Y-89131067D03*
%TO.P,S15,2*%
%TO.N,middle_top*%
X218142435Y-93303279D03*
%TD*%
D17*
%TO.P,S8,1*%
%TO.N,P2*%
X178835716Y-140154104D03*
%TO.P,S8,2*%
%TO.N,ring_mods*%
X190031511Y-143745297D03*
%TD*%
D18*
%TO.P,S6,1*%
%TO.N,P0*%
X160941044Y-112393483D03*
%TO.P,S6,2*%
%TO.N,pinky_home*%
X172360074Y-115194948D03*
%TD*%
D19*
%TO.P,D11,1*%
%TO.N,P6*%
X183185571Y-100337430D03*
D20*
X185329470Y-100600669D03*
%TO.P,D11,2*%
%TO.N,ring_top*%
X188604874Y-101002837D03*
D21*
X190748773Y-101266076D03*
%TD*%
D22*
%TO.P,S23,1*%
%TO.N,P5*%
X251104574Y-167122167D03*
%TO.P,S23,2*%
%TO.N,mid_top*%
X261691616Y-172236564D03*
%TD*%
D23*
%TO.P,D14,1*%
%TO.N,P7*%
X201769586Y-116563542D03*
D24*
X203896773Y-116938624D03*
%TO.P,D14,2*%
%TO.N,middle_home*%
X207146639Y-117511660D03*
D21*
X209273826Y-117886742D03*
%TD*%
D25*
%TO.P,D3,1*%
%TO.N,P6*%
X139410728Y-114460130D03*
D26*
X141570729Y-114460129D03*
%TO.P,D3,2*%
%TO.N,tabs_top*%
X144870729Y-114460131D03*
D21*
X147030730Y-114460130D03*
%TD*%
D22*
%TO.P,S19,1*%
%TO.N,P5*%
X236514150Y-140436603D03*
%TO.P,S19,2*%
%TO.N,inner_bottom*%
X247101192Y-145551000D03*
%TD*%
D27*
%TO.P,S1,1*%
%TO.N,P1*%
X139945731Y-137510130D03*
%TO.P,S1,2*%
%TO.N,tabs_bottom*%
X151495731Y-139710130D03*
%TD*%
D28*
%TO.P,D6,1*%
%TO.N,P7*%
X159833695Y-123300477D03*
D29*
X161990735Y-123413523D03*
%TO.P,D6,2*%
%TO.N,pinky_home*%
X165286213Y-123586231D03*
D21*
X167443253Y-123699277D03*
%TD*%
D28*
%TO.P,D7,1*%
%TO.N,P6*%
X160723408Y-106323770D03*
D29*
X162880448Y-106436816D03*
%TO.P,D7,2*%
%TO.N,pinky_top*%
X166175926Y-106609524D03*
D21*
X168332966Y-106722570D03*
%TD*%
D17*
%TO.P,S10,1*%
%TO.N,P2*%
X182979273Y-106407534D03*
%TO.P,S10,2*%
%TO.N,ring_home*%
X194175068Y-109998727D03*
%TD*%
D22*
%TO.P,S26,1*%
%TO.N,P5*%
X246704651Y-183542904D03*
%TO.P,S26,2*%
%TO.N,right_main*%
X257291693Y-188657301D03*
%TD*%
D30*
%TO.P,JST1,1*%
%TO.N,pos*%
X249435199Y-153164507D03*
D31*
%TO.P,JST1,2*%
%TO.N,GND*%
X251367051Y-153682145D03*
%TD*%
D32*
%TO.P,D26,1*%
%TO.N,P15*%
X243353813Y-193981321D03*
D33*
X245440212Y-194540373D03*
%TO.P,D26,2*%
%TO.N,right_main*%
X248627768Y-195394473D03*
D21*
X250714167Y-195953525D03*
%TD*%
D19*
%TO.P,D8,1*%
%TO.N,P14*%
X176970234Y-150957284D03*
D20*
X179114133Y-151220523D03*
%TO.P,D8,2*%
%TO.N,ring_mods*%
X182389537Y-151622691D03*
D21*
X184533436Y-151885930D03*
%TD*%
D25*
%TO.P,D1,1*%
%TO.N,P8*%
X139410731Y-148460133D03*
D26*
X141570732Y-148460132D03*
%TO.P,D1,2*%
%TO.N,tabs_bottom*%
X144870732Y-148460134D03*
D21*
X147030733Y-148460133D03*
%TD*%
D34*
%TO.P,S18,1*%
%TO.N,P4*%
X225807698Y-98432663D03*
%TO.P,S18,2*%
%TO.N,index_top*%
X236647898Y-102985968D03*
%TD*%
D16*
%TO.P,S13,1*%
%TO.N,P3*%
X201245889Y-122614529D03*
%TO.P,S13,2*%
%TO.N,middle_bottom*%
X212238394Y-126786741D03*
%TD*%
D14*
%TO.P,_5,1*%
%TO.N,N/C*%
X222786169Y-91605257D03*
X223501459Y-90564505D03*
X223016307Y-92846965D03*
X224743167Y-90334367D03*
D15*
X224400113Y-91948311D03*
D14*
X224057059Y-93562255D03*
X225783919Y-91049657D03*
X225298767Y-93332117D03*
X226014057Y-92291365D03*
%TD*%
D18*
%TO.P,S7,1*%
%TO.N,P0*%
X161830756Y-95416783D03*
%TO.P,S7,2*%
%TO.N,pinky_top*%
X173249786Y-98218248D03*
%TD*%
D25*
%TO.P,D2,1*%
%TO.N,P7*%
X139410729Y-131460133D03*
D26*
X141570730Y-131460132D03*
%TO.P,D2,2*%
%TO.N,tabs_home*%
X144870730Y-131460134D03*
D21*
X147030731Y-131460133D03*
%TD*%
D22*
%TO.P,S25,1*%
%TO.N,P4*%
X229317982Y-178884163D03*
%TO.P,S25,2*%
%TO.N,mid_main*%
X239905024Y-183998560D03*
%TD*%
D32*
%TO.P,D22,1*%
%TO.N,P14*%
X221673737Y-170572472D03*
D33*
X223760136Y-171131524D03*
%TO.P,D22,2*%
%TO.N,left_top*%
X226947692Y-171985624D03*
D21*
X229034091Y-172544676D03*
%TD*%
D28*
%TO.P,D4,1*%
%TO.N,P14*%
X158054272Y-157253880D03*
D29*
X160211312Y-157366926D03*
%TO.P,D4,2*%
%TO.N,pinky_mods*%
X163506790Y-157539634D03*
D21*
X165663830Y-157652680D03*
%TD*%
D19*
%TO.P,D9,1*%
%TO.N,P8*%
X179042013Y-134083998D03*
D20*
X181185912Y-134347237D03*
%TO.P,D9,2*%
%TO.N,ring_bottom*%
X184461316Y-134749405D03*
D21*
X186605215Y-135012644D03*
%TD*%
D32*
%TO.P,D23,1*%
%TO.N,P14*%
X247753737Y-177560584D03*
D33*
X249840136Y-178119636D03*
%TO.P,D23,2*%
%TO.N,mid_top*%
X253027692Y-178973736D03*
D21*
X255114091Y-179532788D03*
%TD*%
D32*
%TO.P,D25,1*%
%TO.N,P15*%
X225967147Y-189322584D03*
D33*
X228053546Y-189881636D03*
%TO.P,D25,2*%
%TO.N,mid_main*%
X231241102Y-190735736D03*
D21*
X233327501Y-191294788D03*
%TD*%
D32*
%TO.P,D21,1*%
%TO.N,P6*%
X241963161Y-118033540D03*
D33*
X244049560Y-118592592D03*
%TO.P,D21,2*%
%TO.N,inner_top*%
X247237116Y-119446692D03*
D21*
X249323515Y-120005744D03*
%TD*%
D14*
%TO.P,_2,1*%
%TO.N,N/C*%
X147570729Y-155460130D03*
X148054003Y-154293405D03*
X148054003Y-156626857D03*
X149220728Y-157110131D03*
D15*
X149220729Y-155460131D03*
D14*
X149220730Y-153810131D03*
X150387455Y-154293405D03*
X150387455Y-156626857D03*
X150870729Y-155460132D03*
%TD*%
D35*
%TO.P,D17,1*%
%TO.N,P7*%
X219473257Y-125660654D03*
D36*
X221586055Y-126109745D03*
%TO.P,D17,2*%
%TO.N,index_home*%
X224813943Y-126795853D03*
D21*
X226926741Y-127244944D03*
%TD*%
D34*
%TO.P,S16,1*%
%TO.N,P4*%
X218738700Y-131689686D03*
%TO.P,S16,2*%
%TO.N,index_bottom*%
X229578900Y-136242991D03*
%TD*%
D32*
%TO.P,D20,1*%
%TO.N,P7*%
X237563237Y-134454276D03*
D33*
X239649636Y-135013328D03*
%TO.P,D20,2*%
%TO.N,inner_home*%
X242837192Y-135867428D03*
D21*
X244923591Y-136426480D03*
%TD*%
D16*
%TO.P,S14,1*%
%TO.N,P3*%
X204197909Y-105872799D03*
%TO.P,S14,2*%
%TO.N,middle_home*%
X215190414Y-110045011D03*
%TD*%
D32*
%TO.P,D19,1*%
%TO.N,P8*%
X233163314Y-150875014D03*
D33*
X235249713Y-151434066D03*
%TO.P,D19,2*%
%TO.N,inner_bottom*%
X238437269Y-152288166D03*
D21*
X240523668Y-152847218D03*
%TD*%
D14*
%TO.P,_1,1*%
%TO.N,N/C*%
X149570729Y-97460131D03*
X150054003Y-96293406D03*
X150054003Y-98626858D03*
X151220728Y-99110132D03*
D15*
X151220729Y-97460132D03*
D14*
X151220730Y-95810132D03*
X152387455Y-96293406D03*
X152387455Y-98626858D03*
X152870729Y-97460133D03*
%TD*%
D17*
%TO.P,S9,1*%
%TO.N,P2*%
X180907494Y-123280817D03*
%TO.P,S9,2*%
%TO.N,ring_bottom*%
X192103289Y-126872010D03*
%TD*%
D16*
%TO.P,S12,1*%
%TO.N,P3*%
X198293869Y-139356264D03*
%TO.P,S12,2*%
%TO.N,middle_mods*%
X209286374Y-143528476D03*
%TD*%
D27*
%TO.P,S3,1*%
%TO.N,P1*%
X139945732Y-103510131D03*
%TO.P,S3,2*%
%TO.N,tabs_top*%
X151495732Y-105710131D03*
%TD*%
D14*
%TO.P,_4,1*%
%TO.N,N/C*%
X236746881Y-192211004D03*
X237515659Y-191209112D03*
X236911717Y-193463054D03*
X238767709Y-191044276D03*
D15*
X238340659Y-192638054D03*
D14*
X237913609Y-194231832D03*
X239769601Y-191813054D03*
X239165659Y-194066996D03*
X239934437Y-193065104D03*
%TD*%
D23*
%TO.P,D12,1*%
%TO.N,P14*%
X195865552Y-150047005D03*
D24*
X197992739Y-150422087D03*
%TO.P,D12,2*%
%TO.N,middle_mods*%
X201242605Y-150995123D03*
D21*
X203369792Y-151370205D03*
%TD*%
D18*
%TO.P,S4,1*%
%TO.N,P0*%
X159161621Y-146346885D03*
%TO.P,S4,2*%
%TO.N,pinky_mods*%
X170580651Y-149148350D03*
%TD*%
D27*
%TO.P,S2,1*%
%TO.N,P1*%
X139945733Y-120510132D03*
%TO.P,S2,2*%
%TO.N,tabs_home*%
X151495733Y-122710132D03*
%TD*%
D37*
%TO.P,MCU1,*%
%TO.N,*%
X254135911Y-135157565D03*
X260052515Y-113076501D03*
X259395115Y-115529953D03*
X258080314Y-120436856D03*
X257422914Y-122890307D03*
X256765513Y-125343759D03*
X256108113Y-127797211D03*
X255450713Y-130250662D03*
X254793312Y-132704114D03*
X253478512Y-137611016D03*
X252821111Y-140064470D03*
X258737715Y-117983406D03*
D38*
X259920402Y-120929906D03*
X255318600Y-138104066D03*
X261892604Y-113569551D03*
X261235204Y-116023003D03*
X260577803Y-118476456D03*
X259263002Y-123383358D03*
X256633401Y-133197164D03*
X255976001Y-135650615D03*
X258605604Y-125836808D03*
X257948202Y-128290262D03*
X257290801Y-130743717D03*
X254661201Y-140557520D03*
D39*
%TO.N,GND*%
X262635792Y-116398290D03*
%TO.N,RST*%
X261978392Y-118851741D03*
%TO.N,VCC*%
X261320991Y-121305193D03*
%TO.N,P21*%
X260663591Y-123758643D03*
%TO.N,P20*%
X260006191Y-126212096D03*
%TO.N,P19*%
X259348790Y-128665549D03*
%TO.N,P18*%
X258691390Y-131118999D03*
%TO.N,P14*%
X257376589Y-136025902D03*
%TO.N,P16*%
X256719189Y-138479354D03*
%TO.N,P10*%
X256061788Y-140932806D03*
%TO.N,P15*%
X258033991Y-133572451D03*
%TO.N,RAW*%
X263293194Y-113944839D03*
D40*
%TO.N,P1*%
X271532538Y-116152564D03*
%TO.N,GND*%
X270217737Y-121059467D03*
X269560337Y-123512919D03*
%TO.N,P2*%
X268902936Y-125966371D03*
%TO.N,P3*%
X268245536Y-128419822D03*
%TO.N,P5*%
X266930735Y-133326725D03*
%TO.N,P6*%
X266273335Y-135780177D03*
%TO.N,P7*%
X265615935Y-138233627D03*
%TO.N,P8*%
X264958534Y-140687080D03*
%TO.N,P9*%
X264301134Y-143140531D03*
%TO.N,P4*%
X267588137Y-130873272D03*
%TO.N,P0*%
X270875139Y-118606016D03*
D41*
%TO.N,*%
X272933135Y-116527852D03*
X270303535Y-126341655D03*
X269646134Y-128795110D03*
X268988732Y-131248564D03*
X271618335Y-121434757D03*
X270960935Y-123888208D03*
X268331334Y-133702014D03*
X267016533Y-138608916D03*
X266359132Y-141062369D03*
X265701732Y-143515821D03*
X272275736Y-118981306D03*
X267673934Y-136155466D03*
D37*
X268856621Y-139101966D03*
X274773225Y-117020902D03*
X274115824Y-119474356D03*
X272801024Y-124381258D03*
X272143623Y-126834710D03*
X271486223Y-129288161D03*
X270828823Y-131741613D03*
X270171422Y-134195065D03*
X269514022Y-136648516D03*
X268199221Y-141555419D03*
X267541821Y-144008871D03*
X273458425Y-121927807D03*
D42*
%TO.P,MCU1,B+*%
%TO.N,RAW*%
X269943596Y-115726808D03*
%TO.P,MCU1,GND*%
%TO.N,GND*%
X262909943Y-121730952D03*
X263567344Y-119277501D03*
X269286195Y-118180260D03*
%TO.P,MCU1,P0*%
%TO.N,P0*%
X264224744Y-116824048D03*
%TO.P,MCU1,P1*%
%TO.N,P1*%
X264882144Y-114370596D03*
%TO.P,MCU1,P2*%
%TO.N,P2*%
X262252543Y-124184404D03*
%TO.P,MCU1,P3*%
%TO.N,P3*%
X261595143Y-126637854D03*
%TO.P,MCU1,P4*%
%TO.N,P4*%
X260937742Y-129091306D03*
%TO.P,MCU1,P5*%
%TO.N,P5*%
X260280342Y-131544756D03*
%TO.P,MCU1,P6*%
%TO.N,P6*%
X259622942Y-133998209D03*
%TO.P,MCU1,P7*%
%TO.N,P7*%
X258965541Y-136451661D03*
%TO.P,MCU1,P8*%
%TO.N,P8*%
X258308141Y-138905112D03*
%TO.P,MCU1,P9*%
%TO.N,P9*%
X257650740Y-141358564D03*
%TO.P,MCU1,P10*%
%TO.N,P10*%
X262712192Y-142714776D03*
%TO.P,MCU1,P14*%
%TO.N,P14*%
X264026992Y-137807871D03*
%TO.P,MCU1,P15*%
%TO.N,P15*%
X264684393Y-135354420D03*
%TO.P,MCU1,P16*%
%TO.N,P16*%
X263369592Y-140261324D03*
%TO.P,MCU1,P18*%
%TO.N,P18*%
X265341793Y-132900968D03*
%TO.P,MCU1,P19*%
%TO.N,P19*%
X265999193Y-130447518D03*
%TO.P,MCU1,P20*%
%TO.N,P20*%
X266656594Y-127994066D03*
%TO.P,MCU1,P21*%
%TO.N,P21*%
X267313994Y-125540616D03*
%TO.P,MCU1,RST*%
%TO.N,RST*%
X268628795Y-120633711D03*
%TO.P,MCU1,VCC*%
%TO.N,VCC*%
X267971394Y-123087163D03*
%TD*%
D14*
%TO.P,_6,1*%
%TO.N,N/C*%
X193875051Y-116186952D03*
X194553582Y-115121869D03*
X194148383Y-117419872D03*
X195786502Y-114848537D03*
D15*
X195499984Y-116473470D03*
D14*
X195213466Y-118098403D03*
X196851585Y-115527068D03*
X196446386Y-117825071D03*
X197124917Y-116759988D03*
%TD*%
D17*
%TO.P,S11,1*%
%TO.N,P2*%
X185051049Y-89534249D03*
%TO.P,S11,2*%
%TO.N,ring_top*%
X196246844Y-93125442D03*
%TD*%
D34*
%TO.P,S17,1*%
%TO.N,P4*%
X222273199Y-115061174D03*
%TO.P,S17,2*%
%TO.N,index_home*%
X233113399Y-119614479D03*
%TD*%
D22*
%TO.P,S24,1*%
%TO.N,P3*%
X211931321Y-174225420D03*
%TO.P,S24,2*%
%TO.N,left_main*%
X222518363Y-179339817D03*
%TD*%
D35*
%TO.P,D18,1*%
%TO.N,P6*%
X223007757Y-109032146D03*
D36*
X225120555Y-109481237D03*
%TO.P,D18,2*%
%TO.N,index_top*%
X228348443Y-110167345D03*
D21*
X230461241Y-110616436D03*
%TD*%
D22*
%TO.P,S22,1*%
%TO.N,P4*%
X225024576Y-160134052D03*
%TO.P,S22,2*%
%TO.N,left_top*%
X235611618Y-165248449D03*
%TD*%
D18*
%TO.P,S5,1*%
%TO.N,P0*%
X160051332Y-129370185D03*
%TO.P,S5,2*%
%TO.N,pinky_bottom*%
X171470362Y-132171650D03*
%TD*%
D23*
%TO.P,D15,1*%
%TO.N,P6*%
X204721606Y-99821812D03*
D24*
X206848793Y-100196894D03*
%TO.P,D15,2*%
%TO.N,middle_top*%
X210098659Y-100769930D03*
D21*
X212225846Y-101145012D03*
%TD*%
D43*
%TO.P,DISP1,1*%
%TO.N,DISP1_1*%
X255018253Y-146585328D03*
%TO.P,DISP1,2*%
%TO.N,DISP1_2*%
X257471705Y-147242726D03*
%TO.P,DISP1,3*%
%TO.N,DISP1_3*%
X259925156Y-147900125D03*
%TO.P,DISP1,4*%
%TO.N,DISP1_4*%
X262378608Y-148557529D03*
D44*
%TO.P,DISP1,20*%
X262831542Y-146867156D03*
%TO.P,DISP1,21*%
%TO.N,DISP1_3*%
X260378091Y-146209757D03*
%TO.P,DISP1,22*%
%TO.N,DISP1_2*%
X257924636Y-145552357D03*
%TO.P,DISP1,23*%
%TO.N,DISP1_1*%
X255471187Y-144894957D03*
%TO.P,DISP1,24*%
%TO.N,GND*%
X263064477Y-145997824D03*
%TO.P,DISP1,25*%
%TO.N,VCC*%
X260611027Y-145340425D03*
%TO.P,DISP1,26*%
%TO.N,P16*%
X258157575Y-144683022D03*
%TO.P,DISP1,27*%
%TO.N,P10*%
X255704123Y-144025623D03*
%TD*%
D22*
%TO.P,S20,1*%
%TO.N,P5*%
X240914074Y-124015858D03*
%TO.P,S20,2*%
%TO.N,inner_home*%
X251501116Y-129130255D03*
%TD*%
D23*
%TO.P,D13,1*%
%TO.N,P8*%
X198817568Y-133305274D03*
D24*
X200944755Y-133680356D03*
%TO.P,D13,2*%
%TO.N,middle_bottom*%
X204194621Y-134253392D03*
D21*
X206321808Y-134628474D03*
%TD*%
D22*
%TO.P,S21,1*%
%TO.N,P5*%
X245313998Y-107595119D03*
%TO.P,S21,2*%
%TO.N,inner_top*%
X255901040Y-112709516D03*
%TD*%
D32*
%TO.P,D24,1*%
%TO.N,P15*%
X208580481Y-184663839D03*
D33*
X210666880Y-185222891D03*
%TO.P,D24,2*%
%TO.N,left_main*%
X213854436Y-186076991D03*
D21*
X215940835Y-186636043D03*
%TD*%
D28*
%TO.P,D5,1*%
%TO.N,P8*%
X158943983Y-140277181D03*
D29*
X161101023Y-140390227D03*
%TO.P,D5,2*%
%TO.N,pinky_bottom*%
X164396501Y-140562935D03*
D21*
X166553541Y-140675981D03*
%TD*%
D35*
%TO.P,D16,1*%
%TO.N,P8*%
X215938761Y-142289162D03*
D36*
X218051559Y-142738253D03*
%TO.P,D16,2*%
%TO.N,index_bottom*%
X221279447Y-143424361D03*
D21*
X223392245Y-143873452D03*
%TD*%
D19*
%TO.P,D10,1*%
%TO.N,P7*%
X181113790Y-117210713D03*
D20*
X183257689Y-117473952D03*
%TO.P,D10,2*%
%TO.N,ring_home*%
X186533093Y-117876120D03*
D21*
X188676992Y-118139359D03*
%TD*%
D45*
%TO.N,pos*%
X260909981Y-157549574D03*
%TO.N,RAW*%
X260388518Y-158719194D03*
%TO.N,GND*%
X253472243Y-151689603D03*
X257490740Y-157942737D03*
%TO.N,RST*%
X256041851Y-157554509D03*
%TO.N,P3*%
X211029761Y-87030727D03*
X208077742Y-103772459D03*
X215783680Y-172860418D03*
X205125723Y-120514190D03*
X202173704Y-137255922D03*
%TO.N,P2*%
X182589838Y-137883280D03*
X184661618Y-121009997D03*
X188805174Y-87263428D03*
X186733396Y-104136713D03*
%TO.N,P0*%
X162269424Y-144267619D03*
X165437870Y-93363684D03*
X164548160Y-110340382D03*
X163658448Y-127317087D03*
%TO.N,P5*%
X254956934Y-165757164D03*
X249166357Y-106230118D03*
X240366510Y-139071595D03*
X244766434Y-122650857D03*
X250557010Y-182177902D03*
%TO.N,P1*%
X143220728Y-134960133D03*
X143220731Y-117960132D03*
X143220733Y-100960132D03*
%TO.N,P4*%
X229705760Y-96554614D03*
X226171261Y-113183123D03*
X233170344Y-177519160D03*
X228876936Y-158769049D03*
X222636762Y-129811632D03*
%TO.N,VCC*%
X259277090Y-145480435D03*
%TO.N,P16*%
X259665318Y-144031546D03*
%TD*%
%TO.N,pos*%
D46*
X262191164Y-156841277D02*
X262355195Y-156885230D01*
X260947123Y-157559526D02*
X262191164Y-156841277D01*
%TO.N,RAW*%
X260017976Y-158077397D02*
X260781998Y-155226032D01*
X269055655Y-116239460D02*
X263805845Y-114832779D01*
X270764549Y-142522382D02*
X276434581Y-119742122D01*
X269943595Y-115726808D02*
X269055655Y-116239460D01*
X269797185Y-116273218D02*
X269943595Y-115726808D01*
X260897290Y-159600414D02*
X260388518Y-158719194D01*
X261578738Y-159783008D02*
X260897290Y-159600414D01*
X276434581Y-119742122D02*
X275826609Y-118689082D01*
X268564587Y-150732752D02*
X270764549Y-142522382D01*
X260388518Y-158719194D02*
X260017976Y-158077397D01*
X263805845Y-114832779D02*
X263293194Y-113944840D01*
X260781998Y-155226032D02*
X268564587Y-150732752D01*
X275826609Y-118689082D02*
X270343790Y-117219966D01*
X270343790Y-117219966D02*
X269797185Y-116273218D01*
%TO.N,GND*%
X263797884Y-121218299D02*
X269047684Y-122624978D01*
X257818910Y-152854288D02*
X253472243Y-151689603D01*
X268398255Y-118692912D02*
X263148444Y-117286229D01*
X259122405Y-157000694D02*
X257490740Y-157942737D01*
X263552923Y-149543755D02*
X257818910Y-152854288D01*
X257983146Y-161252467D02*
X258432782Y-159574402D01*
X269054550Y-119044769D02*
X269286195Y-118180259D01*
X269560336Y-123512918D02*
X270217737Y-121059467D01*
X263567344Y-119277500D02*
X262909943Y-121730952D01*
X264267038Y-146878640D02*
X263552923Y-149543755D01*
X262909943Y-121730952D02*
X263797884Y-121218299D01*
X263064477Y-145997824D02*
X263885513Y-146217821D01*
X259587824Y-155263727D02*
X259122405Y-157000694D01*
X263885513Y-146217821D02*
X264267038Y-146878640D01*
X263148444Y-117286229D02*
X262635792Y-116398289D01*
X258432782Y-159574402D02*
X257490740Y-157942737D01*
X269047684Y-122624978D02*
X269560336Y-123512918D01*
X270217737Y-121059467D02*
X269054550Y-119044769D01*
X269286195Y-118180259D02*
X268398255Y-118692912D01*
%TO.N,RST*%
X254409221Y-160294836D02*
X254979078Y-158168101D01*
X268116143Y-119745773D02*
X262866330Y-118339089D01*
X255428259Y-156491734D02*
X256041851Y-157554509D01*
X254979078Y-158168101D02*
X256041851Y-157554509D01*
X268628794Y-120633712D02*
X268116143Y-119745773D01*
X262866330Y-118339089D02*
X261978391Y-118851741D01*
X256013899Y-154306095D02*
X255428259Y-156491734D01*
%TO.N,P3*%
X207950982Y-115480985D02*
X205740265Y-117028943D01*
X211416200Y-98379906D02*
X208692285Y-100287213D01*
X200272530Y-151425692D02*
X202383823Y-155082559D01*
X202173704Y-137255922D02*
X201470541Y-137131936D01*
X207183956Y-156368750D02*
X216075862Y-171769982D01*
X201210432Y-147925393D02*
X200272530Y-151425692D01*
X207374575Y-103648471D02*
X204197909Y-105872798D01*
X204059269Y-140521816D02*
X202233802Y-147334551D01*
X206748042Y-122831102D02*
X205105159Y-132148354D01*
X262483082Y-126125202D02*
X267732883Y-127531882D01*
X212937066Y-89754644D02*
X211416200Y-98379906D01*
X216075862Y-171769982D02*
X215783680Y-172860418D01*
X208077742Y-103772459D02*
X209625701Y-105983176D01*
X267732883Y-127531882D02*
X268245536Y-128419822D01*
X205125723Y-120514190D02*
X204422559Y-120390204D01*
X261595142Y-126637855D02*
X262483082Y-126125202D01*
X208077742Y-103772459D02*
X207374575Y-103648471D01*
X205105159Y-132148354D02*
X202788247Y-133770672D01*
X204422559Y-120390204D02*
X201245890Y-122614532D01*
X202173704Y-137255922D02*
X204059269Y-140521816D01*
X215783680Y-172860418D02*
X214767287Y-172588075D01*
X202233802Y-147334551D02*
X201210432Y-147925393D01*
X205740265Y-117028943D02*
X205125723Y-120514190D01*
X202788247Y-133770672D02*
X202173704Y-137255922D01*
X202383823Y-155082559D02*
X207183956Y-156368750D01*
X209625701Y-105983176D02*
X207950982Y-115480985D01*
X211029761Y-87030727D02*
X212937066Y-89754644D01*
X201470541Y-137131936D02*
X198293870Y-139356266D01*
X208692285Y-100287213D02*
X208077742Y-103772459D01*
X205125723Y-120514190D02*
X206748042Y-122831102D01*
X214767287Y-172588075D02*
X211931321Y-174225420D01*
X211029761Y-87030727D02*
X210326598Y-86906742D01*
X210326598Y-86906742D02*
X207149930Y-89131068D01*
%TO.N,middle_top*%
X210098660Y-100769928D02*
X212225846Y-101145009D01*
X218142436Y-93303281D02*
X217398351Y-97523181D01*
X217398351Y-97523181D02*
X212225846Y-101145009D01*
%TO.N,P2*%
X263140481Y-123671752D02*
X268390284Y-125078432D01*
X186000906Y-104046776D02*
X182979273Y-106407533D01*
X186402970Y-123238829D02*
X185252888Y-132605496D01*
X185095835Y-117473567D02*
X184661618Y-121009997D01*
X188072683Y-87173490D02*
X185051049Y-89534248D01*
X187167615Y-100600283D02*
X186733396Y-104136713D01*
X182589838Y-137883280D02*
X181857353Y-137793346D01*
X186733396Y-104136713D02*
X186000906Y-104046776D01*
X185252888Y-132605496D02*
X183024057Y-134346849D01*
X188805174Y-87263428D02*
X190472608Y-89397645D01*
X181857353Y-137793346D02*
X178835718Y-140154105D01*
X268390284Y-125078432D02*
X268902936Y-125966372D01*
X184661618Y-121009997D02*
X186402970Y-123238829D01*
X262252542Y-124184403D02*
X263140481Y-123671752D01*
X190472608Y-89397645D02*
X189301832Y-98932848D01*
X187230056Y-115806130D02*
X185095835Y-117473567D01*
X186733396Y-104136713D02*
X188400832Y-106270931D01*
X189301832Y-98932848D02*
X187167615Y-100600283D01*
X184661618Y-121009997D02*
X183929129Y-120920060D01*
X183929129Y-120920060D02*
X180907494Y-123280820D01*
X188805174Y-87263428D02*
X188072683Y-87173490D01*
X188400832Y-106270931D02*
X187230056Y-115806130D01*
X183024057Y-134346849D02*
X182589838Y-137883280D01*
%TO.N,ring_mods*%
X190031513Y-143745297D02*
X189509303Y-147998356D01*
X189509303Y-147998356D02*
X184533436Y-151885930D01*
X182389535Y-151622690D02*
X184533436Y-151885930D01*
%TO.N,P0*%
X163851041Y-127327178D02*
X163658448Y-127317087D01*
X165941496Y-119480396D02*
X166327611Y-112112859D01*
X270362487Y-117718076D02*
X270875139Y-118606016D01*
X167217325Y-95136156D02*
X165630468Y-93373777D01*
X165051781Y-136457098D02*
X165437898Y-129089562D01*
X166327611Y-112112859D02*
X164740755Y-110350477D01*
X162269424Y-144267619D02*
X161514801Y-144228072D01*
X162561230Y-138699605D02*
X165051781Y-136457098D01*
X265112684Y-116311395D02*
X270362487Y-117718076D01*
X164740755Y-110350477D02*
X164548160Y-110340382D01*
X162404512Y-127251368D02*
X160051329Y-129370185D01*
X165437870Y-93363684D02*
X164183937Y-93297967D01*
X264224744Y-116824048D02*
X265112684Y-116311395D01*
X163658448Y-127317087D02*
X162404512Y-127251368D01*
X162269424Y-144267619D02*
X162561230Y-138699605D01*
X166831206Y-102503695D02*
X167217325Y-95136156D01*
X164548160Y-110340382D02*
X163294224Y-110274666D01*
X165630468Y-93373777D02*
X165437870Y-93363684D01*
X164548160Y-110340382D02*
X164866135Y-104273055D01*
X165437898Y-129089562D02*
X163851041Y-127327178D01*
X163294224Y-110274666D02*
X160941044Y-112393483D01*
X164866135Y-104273055D02*
X166831206Y-102503695D01*
X163658448Y-127317087D02*
X163976423Y-121249755D01*
X164183937Y-93297967D02*
X161830753Y-95416781D01*
X161514801Y-144228072D02*
X159161619Y-146346885D01*
X163976423Y-121249755D02*
X165941496Y-119480396D01*
%TO.N,pinky_home*%
X165286212Y-123586230D02*
X167443252Y-123699275D01*
X172135816Y-119474076D02*
X167443252Y-123699275D01*
X172360075Y-115194947D02*
X172135816Y-119474076D01*
%TO.N,P6*%
X225120554Y-109481235D02*
X225120555Y-109481239D01*
X139410732Y-114460135D02*
X141570730Y-114460131D01*
X259622943Y-133998209D02*
X260510883Y-133485557D01*
X223007758Y-109032146D02*
X225120554Y-109481235D01*
X265760681Y-134892235D02*
X266273335Y-135780176D01*
X183185571Y-100337428D02*
X185329472Y-100600668D01*
X160723408Y-106323774D02*
X162880449Y-106436819D01*
X241963161Y-118033540D02*
X244049560Y-118592588D01*
X260510883Y-133485557D02*
X265760681Y-134892235D01*
X244049560Y-118592588D02*
X244049561Y-118592592D01*
X204721605Y-99821810D02*
X206848793Y-100196891D01*
%TO.N,ring_top*%
X195724634Y-97378508D02*
X190748772Y-101266077D01*
X196246843Y-93125442D02*
X195724634Y-97378508D01*
X188604873Y-101002835D02*
X190748772Y-101266077D01*
%TO.N,P5*%
X246465282Y-108707652D02*
X249505842Y-113974060D01*
X249540613Y-181905561D02*
X246704651Y-183542904D01*
X246867305Y-107207280D02*
X246465282Y-108707652D01*
X240366510Y-139071595D02*
X241886361Y-133399435D01*
X249505842Y-113974060D02*
X248626286Y-117256610D01*
X240601505Y-139134563D02*
X240366510Y-139071595D01*
X256431778Y-167967607D02*
X254522302Y-175093867D01*
X241841354Y-141282043D02*
X240601505Y-139134563D01*
X244331803Y-131987559D02*
X246241279Y-124861298D01*
X240366510Y-139071595D02*
X239350120Y-138799254D01*
X237449269Y-152981063D02*
X238444427Y-149267084D01*
X250557010Y-182177902D02*
X249540613Y-181905561D01*
X254956934Y-165757164D02*
X255191932Y-165820132D01*
X244766434Y-122650857D02*
X243750038Y-122378515D01*
X254956934Y-165757164D02*
X242971383Y-162545645D01*
X242971383Y-162545645D02*
X237449269Y-152981063D01*
X239350120Y-138799254D02*
X236514151Y-140436603D01*
X243750038Y-122378515D02*
X240914074Y-124015857D01*
X266418082Y-132438784D02*
X266930735Y-133326725D01*
X255191932Y-165820132D02*
X256431778Y-167967607D01*
X261168281Y-131032104D02*
X266418082Y-132438784D01*
X254956934Y-165757164D02*
X253940539Y-165484822D01*
X245769940Y-118905722D02*
X244766434Y-122650857D01*
X246241279Y-124861298D02*
X245001435Y-122713824D01*
X238444427Y-149267084D02*
X239931878Y-148408304D01*
X248149962Y-105957776D02*
X245313998Y-107595119D01*
X248626286Y-117256610D02*
X245769940Y-118905722D01*
X245001435Y-122713824D02*
X244766434Y-122650857D01*
X252076860Y-176505743D02*
X250557010Y-182177902D01*
X248752071Y-106119109D02*
X246867305Y-107207280D01*
X253940539Y-165484822D02*
X251104574Y-167122167D01*
X239931878Y-148408304D02*
X241841354Y-141282043D01*
X241886361Y-133399435D02*
X244331803Y-131987559D01*
X260280343Y-131544756D02*
X261168281Y-131032104D01*
X249166357Y-106230118D02*
X248149962Y-105957776D01*
X249166357Y-106230118D02*
X248752071Y-106119109D01*
X254522302Y-175093867D02*
X252076860Y-176505743D01*
%TO.N,mid_top*%
X260582575Y-176375557D02*
X255114092Y-179532789D01*
X253027692Y-178973738D02*
X255114090Y-179532785D01*
X261691615Y-172236562D02*
X260582575Y-176375557D01*
X255114090Y-179532785D02*
X255114092Y-179532789D01*
%TO.N,P7*%
X265103283Y-137345688D02*
X265615934Y-138233628D01*
X239649636Y-135013324D02*
X239649636Y-135013326D01*
X258965541Y-136451660D02*
X259853483Y-135939008D01*
X259853483Y-135939008D02*
X265103283Y-137345688D01*
X181113791Y-117210715D02*
X183257691Y-117473951D01*
X221586053Y-126109744D02*
X221586056Y-126109747D01*
X219473257Y-125660656D02*
X221586053Y-126109744D01*
X139410730Y-131460133D02*
X141570732Y-131460133D01*
X201769588Y-116563541D02*
X203896773Y-116938624D01*
X159833695Y-123300476D02*
X161990736Y-123413521D01*
X237563237Y-134454275D02*
X239649636Y-135013324D01*
%TO.N,middle_home*%
X214446328Y-114264915D02*
X209273826Y-117886741D01*
X207146640Y-117511660D02*
X209273826Y-117886741D01*
X215190412Y-110045013D02*
X214446328Y-114264915D01*
%TO.N,tabs_top*%
X144870732Y-114460132D02*
X147030731Y-114460134D01*
X151495731Y-105710133D02*
X151495731Y-109995134D01*
X151495731Y-109995134D02*
X147030731Y-114460134D01*
%TO.N,inner_bottom*%
X238437269Y-152288168D02*
X240523667Y-152847215D01*
X240523667Y-152847215D02*
X240523669Y-152847218D01*
X245992153Y-149689988D02*
X240523669Y-152847218D01*
X247101192Y-145550998D02*
X245992153Y-149689988D01*
%TO.N,P1*%
X143220728Y-134960133D02*
X143220729Y-129415135D01*
X265770084Y-113857944D02*
X271019885Y-115264624D01*
X264882145Y-114370596D02*
X265770084Y-113857944D01*
X143220731Y-117960132D02*
X143220731Y-112415132D01*
X143322382Y-117960132D02*
X143220731Y-117960132D01*
X145310230Y-102947982D02*
X143322382Y-100960132D01*
X271019885Y-115264624D02*
X271532538Y-116152564D01*
X145310232Y-127325631D02*
X145310232Y-119947982D01*
X143220731Y-117960132D02*
X142495732Y-117960133D01*
X143220733Y-100960132D02*
X142495731Y-100960132D01*
X142495733Y-134960130D02*
X139945730Y-137510128D01*
X145310232Y-119947982D02*
X143322382Y-117960132D01*
X145310232Y-110325632D02*
X145310230Y-102947982D01*
X143220729Y-129415135D02*
X145310232Y-127325631D01*
X143322382Y-100960132D02*
X143220733Y-100960132D01*
X142495731Y-100960132D02*
X139945732Y-103510133D01*
X142495732Y-117960133D02*
X139945731Y-120510130D01*
X143220731Y-112415132D02*
X145310232Y-110325632D01*
X143220728Y-134960133D02*
X142495733Y-134960130D01*
%TO.N,tabs_bottom*%
X151495731Y-139710133D02*
X151495732Y-143995134D01*
X144870730Y-148460134D02*
X147030731Y-148460134D01*
X151495732Y-143995134D02*
X147030731Y-148460134D01*
%TO.N,pinky_top*%
X166175926Y-106609528D02*
X168332966Y-106722571D01*
X173249786Y-98218246D02*
X173025526Y-102497370D01*
X173025526Y-102497370D02*
X168332966Y-106722571D01*
%TO.N,ring_home*%
X186533093Y-117876121D02*
X188676993Y-118139360D01*
X194175067Y-109998726D02*
X193652857Y-114251791D01*
X193652857Y-114251791D02*
X188676993Y-118139360D01*
%TO.N,right_main*%
X248627768Y-195394475D02*
X250714166Y-195953522D01*
X256182653Y-192796293D02*
X250714167Y-195953526D01*
X257291693Y-188657301D02*
X256182653Y-192796293D01*
X250714166Y-195953522D02*
X250714167Y-195953526D01*
%TO.N,P15*%
X264684393Y-135354420D02*
X263796451Y-135867073D01*
X225967146Y-189322583D02*
X228053543Y-189881633D01*
X228053543Y-189881633D02*
X228053545Y-189881634D01*
X258546643Y-134460391D02*
X258033990Y-133572451D01*
X243353813Y-193981323D02*
X245440211Y-194540370D01*
X245440211Y-194540370D02*
X245440212Y-194540374D01*
X210666879Y-185222887D02*
X210666880Y-185222891D01*
X208580482Y-184663840D02*
X210666879Y-185222887D01*
X263796451Y-135867073D02*
X258546643Y-134460391D01*
%TO.N,P14*%
X264026991Y-137807872D02*
X263139051Y-138320524D01*
X223760135Y-171131523D02*
X223760137Y-171131524D01*
X176970234Y-150957283D02*
X179114134Y-151220522D01*
X195865553Y-150047005D02*
X197992740Y-150422087D01*
X158054274Y-157253881D02*
X160211313Y-157366926D01*
X263139051Y-138320524D02*
X257889241Y-136913842D01*
X257889241Y-136913842D02*
X257376589Y-136025903D01*
X249840135Y-178119633D02*
X249840137Y-178119637D01*
X221673737Y-170572474D02*
X223760135Y-171131523D01*
X247753737Y-177560586D02*
X249840135Y-178119633D01*
%TO.N,P8*%
X264445881Y-139799140D02*
X264958534Y-140687080D01*
X259196080Y-138392460D02*
X264445881Y-139799140D01*
X215938761Y-142289161D02*
X218051559Y-142738250D01*
X218051559Y-142738250D02*
X218051558Y-142738254D01*
X235249712Y-151434063D02*
X235249714Y-151434066D01*
X139410730Y-148460132D02*
X141570732Y-148460130D01*
X158943985Y-140277179D02*
X161101025Y-140390226D01*
X198817567Y-133305274D02*
X200944756Y-133680353D01*
X179042012Y-134083999D02*
X181185914Y-134347238D01*
X258308140Y-138905113D02*
X259196080Y-138392460D01*
X233163314Y-150875016D02*
X235249712Y-151434063D01*
%TO.N,P4*%
X227857753Y-176095655D02*
X225935975Y-172767037D01*
X233170344Y-177519160D02*
X232153949Y-177246817D01*
X229111934Y-158832018D02*
X228876936Y-158769049D01*
X225771842Y-124403176D02*
X227667128Y-115486558D01*
X267075485Y-129985335D02*
X267588137Y-130873271D01*
X225413247Y-113022002D02*
X222273200Y-115061174D01*
X227860541Y-158496708D02*
X225024576Y-160134052D01*
X224328338Y-132741528D02*
X222636762Y-129811632D01*
X229705760Y-96554614D02*
X228947744Y-96393494D01*
X225935975Y-172767037D02*
X226954852Y-168964535D01*
X261825682Y-128578654D02*
X267075485Y-129985335D01*
X226954852Y-168964535D02*
X228442305Y-168105755D01*
X227667128Y-115486558D02*
X226171261Y-113183123D01*
X232153949Y-177246817D02*
X229317983Y-178884163D01*
X223468408Y-125899042D02*
X225771842Y-124403176D01*
X220309705Y-143930171D02*
X221291919Y-140264498D01*
X228442305Y-168105755D02*
X230351780Y-160979493D01*
X228876936Y-158769049D02*
X227860541Y-158496708D01*
X222636762Y-129811632D02*
X223468408Y-125899042D01*
X221291919Y-140264498D02*
X222499355Y-139567384D01*
X222499355Y-139567384D02*
X224328338Y-132741528D01*
X226171261Y-113183123D02*
X227334517Y-107710437D01*
X227334517Y-107710437D02*
X229637951Y-106214570D01*
X233170344Y-177519160D02*
X227857753Y-176095655D01*
X230351780Y-160979493D02*
X229111934Y-158832018D01*
X260937742Y-129091306D02*
X261825682Y-128578654D01*
X226171261Y-113183123D02*
X225413247Y-113022002D01*
X221878751Y-129650512D02*
X218738701Y-131689686D01*
X228947744Y-96393494D02*
X225807700Y-98432663D01*
X231201627Y-98858049D02*
X229705760Y-96554614D01*
X222636762Y-129811632D02*
X221878751Y-129650512D01*
X228876936Y-158769049D02*
X220309705Y-143930171D01*
X229637951Y-106214570D02*
X231201627Y-98858049D01*
%TO.N,index_top*%
X235756996Y-107177334D02*
X230461242Y-110616438D01*
X236647899Y-102985966D02*
X235756996Y-107177334D01*
X230461239Y-110616434D02*
X230461242Y-110616438D01*
X228348443Y-110167346D02*
X230461239Y-110616434D01*
%TO.N,middle_bottom*%
X211494311Y-131006646D02*
X206321806Y-134628474D01*
X212238394Y-126786745D02*
X211494311Y-131006646D01*
X204194620Y-134253391D02*
X206321806Y-134628474D01*
%TO.N,tabs_home*%
X151495730Y-122710131D02*
X151495733Y-126995132D01*
X144870730Y-131460130D02*
X147030733Y-131460131D01*
X151495733Y-126995132D02*
X147030733Y-131460131D01*
%TO.N,mid_main*%
X231241101Y-190735735D02*
X233327498Y-191294785D01*
X239905024Y-183998561D02*
X238795983Y-188137557D01*
X238795983Y-188137557D02*
X233327500Y-191294786D01*
X233327498Y-191294785D02*
X233327500Y-191294786D01*
%TO.N,left_top*%
X229034090Y-172544674D02*
X229034092Y-172544676D01*
X235611617Y-165248450D02*
X234502577Y-169387444D01*
X234502577Y-169387444D02*
X229034092Y-172544676D01*
X226947692Y-171985626D02*
X229034090Y-172544674D01*
%TO.N,pinky_mods*%
X163506790Y-157539633D02*
X165663830Y-157652679D01*
X170580652Y-149148351D02*
X170356392Y-153427478D01*
X170356392Y-153427478D02*
X165663830Y-157652679D01*
%TO.N,ring_bottom*%
X184461315Y-134749406D02*
X186605214Y-135012645D01*
X192103290Y-126872010D02*
X191581080Y-131125074D01*
X191581080Y-131125074D02*
X186605214Y-135012645D01*
%TO.N,inner_top*%
X249323515Y-120005740D02*
X249323516Y-120005744D01*
X254791998Y-116848513D02*
X249323516Y-120005744D01*
X247237116Y-119446692D02*
X249323515Y-120005740D01*
X255901040Y-112709516D02*
X254791998Y-116848513D01*
%TO.N,index_home*%
X233113399Y-119614478D02*
X232222497Y-123805843D01*
X224813943Y-126795854D02*
X226926740Y-127244942D01*
X232222497Y-123805843D02*
X226926741Y-127244947D01*
X226926740Y-127244942D02*
X226926741Y-127244947D01*
%TO.N,index_bottom*%
X223392244Y-143873450D02*
X223392245Y-143873452D01*
X228687999Y-140434349D02*
X223392245Y-143873452D01*
X221279446Y-143424361D02*
X223392244Y-143873450D01*
X229578900Y-136242989D02*
X228687999Y-140434349D01*
%TO.N,inner_home*%
X250392076Y-133269247D02*
X244923591Y-136426478D01*
X251501117Y-129130255D02*
X250392076Y-133269247D01*
X244923591Y-136426476D02*
X244923591Y-136426478D01*
X242837192Y-135867427D02*
X244923591Y-136426476D01*
%TO.N,middle_mods*%
X208542291Y-147748384D02*
X203369792Y-151370205D01*
X209286374Y-143528479D02*
X208542291Y-147748384D01*
X201242605Y-150995124D02*
X203369792Y-151370205D01*
%TO.N,VCC*%
X259865564Y-145140680D02*
X260611027Y-145340425D01*
X266893015Y-123709764D02*
X261943594Y-122383571D01*
X267971393Y-123087162D02*
X266893015Y-123709764D01*
X259277090Y-145480435D02*
X259865564Y-145140680D01*
X261943594Y-122383571D02*
X261320991Y-121305192D01*
%TO.N,P21*%
X261176245Y-124646586D02*
X260663592Y-123758643D01*
X267313993Y-125540616D02*
X266426055Y-126053268D01*
X266426055Y-126053268D02*
X261176245Y-124646586D01*
%TO.N,P20*%
X260572223Y-127192495D02*
X260006190Y-126212096D01*
X266656593Y-127994066D02*
X265676196Y-128560099D01*
X265676196Y-128560099D02*
X260572223Y-127192495D01*
%TO.N,P19*%
X265999193Y-130447517D02*
X265111253Y-130960170D01*
X265111253Y-130960170D02*
X259861441Y-129553488D01*
X259861441Y-129553488D02*
X259348790Y-128665548D01*
%TO.N,P18*%
X265341794Y-132900968D02*
X263847000Y-133763988D01*
X263847000Y-133763988D02*
X259554407Y-132613791D01*
X259554407Y-132613791D02*
X258691390Y-131118999D01*
%TO.N,P16*%
X258157575Y-144683022D02*
X258416678Y-144752450D01*
X258416678Y-144752450D02*
X259665318Y-144031546D01*
X257231841Y-139367294D02*
X256719188Y-138479354D01*
X263369592Y-140261324D02*
X262481652Y-140773976D01*
X262481652Y-140773976D02*
X257231841Y-139367294D01*
%TO.N,P9*%
X263788482Y-142252591D02*
X264301134Y-143140530D01*
X258538681Y-140845911D02*
X263788482Y-142252591D01*
X257650740Y-141358564D02*
X258538681Y-140845911D01*
%TO.N,P10*%
X256383523Y-141490068D02*
X256061788Y-140932807D01*
X262712191Y-142714775D02*
X261824251Y-143227428D01*
X261824251Y-143227428D02*
X256574439Y-141820746D01*
X256574439Y-141820746D02*
X256061788Y-140932807D01*
X255704123Y-144025623D02*
X256383523Y-141490068D01*
%TO.N,left_main*%
X213854437Y-186076992D02*
X215940834Y-186636039D01*
X222518363Y-179339817D02*
X221409323Y-183478810D01*
X215940834Y-186636039D02*
X215940835Y-186636043D01*
X221409323Y-183478810D02*
X215940835Y-186636043D01*
%TO.N,pinky_bottom*%
X171246103Y-136450779D02*
X166553542Y-140675978D01*
X171470362Y-132171650D02*
X171246103Y-136450779D01*
X164396503Y-140562934D02*
X166553542Y-140675978D01*
%TO.N,DISP1_1*%
X255018254Y-146585329D02*
X255471188Y-144894957D01*
%TO.N,DISP1_2*%
X257471708Y-147242728D02*
X257924641Y-145552354D01*
%TO.N,DISP1_3*%
X259925158Y-147900131D02*
X260378092Y-146209760D01*
%TO.N,DISP1_4*%
X262378608Y-148557530D02*
X262831544Y-146867158D01*
%TD*%
M02*
