%TF.GenerationSoftware,KiCad,Pcbnew,10.0.1*%
%TF.CreationDate,2026-05-06T13:17:17-07:00*%
%TF.ProjectId,schism v1,73636869-736d-4207-9631-2e6b69636164,v1.0.0*%
%TF.SameCoordinates,Original*%
%TF.FileFunction,Copper,L1,Top*%
%TF.FilePolarity,Positive*%
%FSLAX46Y46*%
G04 Gerber Fmt 4.6, Leading zero omitted, Abs format (unit mm)*
G04 Created by KiCad (PCBNEW 10.0.1) date 2026-05-06 13:17:17*
%MOMM*%
%LPD*%
G01*
G04 APERTURE LIST*
G04 Aperture macros list*
%AMHorizOval*
0 Thick line with rounded ends*
0 $1 width*
0 $2 $3 position (X,Y) of the first rounded end (center of the circle)*
0 $4 $5 position (X,Y) of the second rounded end (center of the circle)*
0 Add line between two ends*
20,1,$1,$2,$3,$4,$5,0*
0 Add two circle primitives to create the rounded ends*
1,1,$1,$2,$3*
1,1,$1,$4,$5*%
%AMRotRect*
0 Rectangle, with rotation*
0 The origin of the aperture is its center*
0 $1 length*
0 $2 width*
0 $3 Rotation angle, in degrees counterclockwise*
0 Add horizontal line*
21,1,$1,$2,0,0,$3*%
%AMFreePoly0*
4,1,6,1.000000,0.000000,0.500000,-0.750000,-0.500000,-0.750000,-0.500000,0.750000,0.500000,0.750000,1.000000,0.000000,1.000000,0.000000,$1*%
%AMFreePoly1*
4,1,6,0.500000,-0.750000,-0.650000,-0.750000,-0.150000,0.000000,-0.650001,0.750000,0.500000,0.750000,0.500000,-0.750000,0.500000,-0.750000,$1*%
G04 Aperture macros list end*
%TA.AperFunction,SMDPad,CuDef*%
%ADD10RotRect,0.900000X0.900000X255.000000*%
%TD*%
%TA.AperFunction,WasherPad*%
%ADD11C,1.000000*%
%TD*%
%TA.AperFunction,SMDPad,CuDef*%
%ADD12RotRect,0.900000X1.250000X255.000000*%
%TD*%
%TA.AperFunction,SMDPad,CuDef*%
%ADD13RotRect,1.800000X1.100000X255.000000*%
%TD*%
%TA.AperFunction,ComponentPad*%
%ADD14C,0.700000*%
%TD*%
%TA.AperFunction,ComponentPad*%
%ADD15C,4.400000*%
%TD*%
%TA.AperFunction,SMDPad,CuDef*%
%ADD16RotRect,2.600000X2.600000X350.000000*%
%TD*%
%TA.AperFunction,SMDPad,CuDef*%
%ADD17RotRect,2.600000X2.600000X353.000000*%
%TD*%
%TA.AperFunction,SMDPad,CuDef*%
%ADD18RotRect,2.600000X2.600000X357.000000*%
%TD*%
%TA.AperFunction,ComponentPad*%
%ADD19RotRect,1.778000X1.778000X353.000000*%
%TD*%
%TA.AperFunction,SMDPad,CuDef*%
%ADD20RotRect,0.900000X1.200000X353.000000*%
%TD*%
%TA.AperFunction,ComponentPad*%
%ADD21C,1.905000*%
%TD*%
%TA.AperFunction,SMDPad,CuDef*%
%ADD22RotRect,2.600000X2.600000X345.000000*%
%TD*%
%TA.AperFunction,ComponentPad*%
%ADD23RotRect,1.778000X1.778000X350.000000*%
%TD*%
%TA.AperFunction,SMDPad,CuDef*%
%ADD24RotRect,0.900000X1.200000X350.000000*%
%TD*%
%TA.AperFunction,ComponentPad*%
%ADD25R,1.778000X1.778000*%
%TD*%
%TA.AperFunction,SMDPad,CuDef*%
%ADD26R,0.900000X1.200000*%
%TD*%
%TA.AperFunction,SMDPad,CuDef*%
%ADD27R,2.600000X2.600000*%
%TD*%
%TA.AperFunction,ComponentPad*%
%ADD28RotRect,1.778000X1.778000X357.000000*%
%TD*%
%TA.AperFunction,SMDPad,CuDef*%
%ADD29RotRect,0.900000X1.200000X357.000000*%
%TD*%
%TA.AperFunction,ComponentPad*%
%ADD30RotRect,1.200000X1.700000X345.000000*%
%TD*%
%TA.AperFunction,ComponentPad*%
%ADD31HorizOval,1.200000X-0.064705X-0.241481X0.064705X0.241481X0*%
%TD*%
%TA.AperFunction,ComponentPad*%
%ADD32RotRect,1.778000X1.778000X345.000000*%
%TD*%
%TA.AperFunction,SMDPad,CuDef*%
%ADD33RotRect,0.900000X1.200000X345.000000*%
%TD*%
%TA.AperFunction,SMDPad,CuDef*%
%ADD34RotRect,2.600000X2.600000X348.000000*%
%TD*%
%TA.AperFunction,ComponentPad*%
%ADD35RotRect,1.778000X1.778000X348.000000*%
%TD*%
%TA.AperFunction,SMDPad,CuDef*%
%ADD36RotRect,0.900000X1.200000X348.000000*%
%TD*%
%TA.AperFunction,ComponentPad*%
%ADD37C,1.752600*%
%TD*%
%TA.AperFunction,SMDPad,CuDef*%
%ADD38FreePoly0,345.000000*%
%TD*%
%TA.AperFunction,SMDPad,CuDef*%
%ADD39FreePoly1,345.000000*%
%TD*%
%TA.AperFunction,SMDPad,CuDef*%
%ADD40FreePoly1,165.000000*%
%TD*%
%TA.AperFunction,SMDPad,CuDef*%
%ADD41FreePoly0,165.000000*%
%TD*%
%TA.AperFunction,ComponentPad*%
%ADD42C,0.800000*%
%TD*%
%TA.AperFunction,ComponentPad*%
%ADD43HorizOval,1.700000X0.000000X0.000000X0.000000X0.000000X0*%
%TD*%
%TA.AperFunction,SMDPad,CuDef*%
%ADD44RotRect,0.600000X1.200000X75.000000*%
%TD*%
%TA.AperFunction,ViaPad*%
%ADD45C,0.800000*%
%TD*%
%TA.AperFunction,Conductor*%
%ADD46C,0.250000*%
%TD*%
G04 APERTURE END LIST*
D10*
%TO.P,T1,*%
%TO.N,*%
X265797297Y-156306387D03*
X263672261Y-155736985D03*
D11*
X264165378Y-158146723D03*
X263388920Y-161044501D03*
D10*
X263882037Y-163454239D03*
X261757001Y-162884837D03*
D12*
%TO.P,T1,1*%
%TO.N,pos*%
X261190510Y-161231896D03*
%TO.P,T1,2*%
%TO.N,RAW*%
X261966966Y-158334118D03*
%TO.P,T1,3*%
%TO.N,N/C*%
X262355196Y-156885229D03*
%TD*%
D13*
%TO.P,B1,1*%
%TO.N,GND*%
X259587825Y-155263726D03*
X257983147Y-161252466D03*
%TO.P,B1,2*%
%TO.N,RST*%
X256013899Y-154306096D03*
X254409221Y-160294836D03*
%TD*%
D14*
%TO.P,_3,1*%
%TO.N,N/C*%
X216568953Y-151604959D03*
X217337731Y-150603067D03*
X216733789Y-152857009D03*
X218589781Y-150438231D03*
D15*
X218162731Y-152032009D03*
D14*
X217735681Y-153625787D03*
X219591673Y-151207009D03*
X218987731Y-153460951D03*
X219756509Y-152459059D03*
%TD*%
D16*
%TO.P,S15,1*%
%TO.N,P3*%
X213600422Y-90268464D03*
%TO.P,S15,2*%
%TO.N,middle_top*%
X201843867Y-90429403D03*
%TD*%
D17*
%TO.P,S8,1*%
%TO.N,P2*%
X185336893Y-140952350D03*
%TO.P,S8,2*%
%TO.N,ring_mods*%
X173604873Y-141728359D03*
%TD*%
D18*
%TO.P,S6,1*%
%TO.N,P0*%
X167482065Y-112736284D03*
%TO.P,S6,2*%
%TO.N,pinky_home*%
X155832755Y-114328787D03*
%TD*%
D19*
%TO.P,D11,1*%
%TO.N,P6*%
X183185571Y-100337430D03*
D20*
X185329470Y-100600669D03*
%TO.P,D11,2*%
%TO.N,ring_top*%
X188604874Y-101002837D03*
D21*
X190748773Y-101266076D03*
%TD*%
D22*
%TO.P,S23,1*%
%TO.N,P5*%
X257431389Y-168817432D03*
%TO.P,S23,2*%
%TO.N,mid_top*%
X245705543Y-167953109D03*
%TD*%
D23*
%TO.P,D14,1*%
%TO.N,P7*%
X201769586Y-116563542D03*
D24*
X203896773Y-116938624D03*
%TO.P,D14,2*%
%TO.N,middle_home*%
X207146639Y-117511660D03*
D21*
X209273826Y-117886742D03*
%TD*%
D25*
%TO.P,D3,1*%
%TO.N,P6*%
X139410728Y-114460130D03*
D26*
X141570729Y-114460129D03*
%TO.P,D3,2*%
%TO.N,tabs_top*%
X144870729Y-114460131D03*
D21*
X147030730Y-114460130D03*
%TD*%
D22*
%TO.P,S19,1*%
%TO.N,P5*%
X242840965Y-142131868D03*
%TO.P,S19,2*%
%TO.N,inner_bottom*%
X231115119Y-141267545D03*
%TD*%
D27*
%TO.P,S1,1*%
%TO.N,P1*%
X146495731Y-137510130D03*
%TO.P,S1,2*%
%TO.N,tabs_bottom*%
X134945731Y-139710130D03*
%TD*%
D28*
%TO.P,D6,1*%
%TO.N,P7*%
X159833695Y-123300477D03*
D29*
X161990735Y-123413523D03*
%TO.P,D6,2*%
%TO.N,pinky_home*%
X165286213Y-123586231D03*
D21*
X167443253Y-123699277D03*
%TD*%
D28*
%TO.P,D7,1*%
%TO.N,P6*%
X160723408Y-106323770D03*
D29*
X162880448Y-106436816D03*
%TO.P,D7,2*%
%TO.N,pinky_top*%
X166175926Y-106609524D03*
D21*
X168332966Y-106722570D03*
%TD*%
D17*
%TO.P,S10,1*%
%TO.N,P2*%
X189480450Y-107205780D03*
%TO.P,S10,2*%
%TO.N,ring_home*%
X177748430Y-107981789D03*
%TD*%
D22*
%TO.P,S26,1*%
%TO.N,P5*%
X253031466Y-185238169D03*
%TO.P,S26,2*%
%TO.N,right_main*%
X241305620Y-184373846D03*
%TD*%
D30*
%TO.P,JST1,1*%
%TO.N,pos*%
X249435199Y-153164507D03*
D31*
%TO.P,JST1,2*%
%TO.N,GND*%
X251367051Y-153682145D03*
%TD*%
D32*
%TO.P,D26,1*%
%TO.N,P15*%
X243353813Y-193981321D03*
D33*
X245440212Y-194540373D03*
%TO.P,D26,2*%
%TO.N,right_main*%
X248627768Y-195394473D03*
D21*
X250714167Y-195953525D03*
%TD*%
D19*
%TO.P,D8,1*%
%TO.N,P14*%
X176970234Y-150957284D03*
D20*
X179114133Y-151220523D03*
%TO.P,D8,2*%
%TO.N,ring_mods*%
X182389537Y-151622691D03*
D21*
X184533436Y-151885930D03*
%TD*%
D25*
%TO.P,D1,1*%
%TO.N,P8*%
X139410731Y-148460133D03*
D26*
X141570732Y-148460132D03*
%TO.P,D1,2*%
%TO.N,tabs_bottom*%
X144870732Y-148460134D03*
D21*
X147030733Y-148460133D03*
%TD*%
D34*
%TO.P,S18,1*%
%TO.N,P4*%
X232214567Y-99794484D03*
%TO.P,S18,2*%
%TO.N,index_top*%
X220459556Y-99545028D03*
%TD*%
D16*
%TO.P,S13,1*%
%TO.N,P3*%
X207696381Y-123751926D03*
%TO.P,S13,2*%
%TO.N,middle_bottom*%
X195939826Y-123912865D03*
%TD*%
D14*
%TO.P,_5,1*%
%TO.N,N/C*%
X222786169Y-91605257D03*
X223501459Y-90564505D03*
X223016307Y-92846965D03*
X224743167Y-90334367D03*
D15*
X224400113Y-91948311D03*
D14*
X224057059Y-93562255D03*
X225783919Y-91049657D03*
X225298767Y-93332117D03*
X226014057Y-92291365D03*
%TD*%
D18*
%TO.P,S7,1*%
%TO.N,P0*%
X168371777Y-95759584D03*
%TO.P,S7,2*%
%TO.N,pinky_top*%
X156722467Y-97352087D03*
%TD*%
D25*
%TO.P,D2,1*%
%TO.N,P7*%
X139410729Y-131460133D03*
D26*
X141570730Y-131460132D03*
%TO.P,D2,2*%
%TO.N,tabs_home*%
X144870730Y-131460134D03*
D21*
X147030731Y-131460133D03*
%TD*%
D22*
%TO.P,S25,1*%
%TO.N,P4*%
X235644797Y-180579428D03*
%TO.P,S25,2*%
%TO.N,mid_main*%
X223918951Y-179715105D03*
%TD*%
D32*
%TO.P,D22,1*%
%TO.N,P14*%
X221673737Y-170572472D03*
D33*
X223760136Y-171131524D03*
%TO.P,D22,2*%
%TO.N,left_top*%
X226947692Y-171985624D03*
D21*
X229034091Y-172544676D03*
%TD*%
D28*
%TO.P,D4,1*%
%TO.N,P14*%
X158054272Y-157253880D03*
D29*
X160211312Y-157366926D03*
%TO.P,D4,2*%
%TO.N,pinky_mods*%
X163506790Y-157539634D03*
D21*
X165663830Y-157652680D03*
%TD*%
D19*
%TO.P,D9,1*%
%TO.N,P8*%
X179042013Y-134083998D03*
D20*
X181185912Y-134347237D03*
%TO.P,D9,2*%
%TO.N,ring_bottom*%
X184461316Y-134749405D03*
D21*
X186605215Y-135012644D03*
%TD*%
D32*
%TO.P,D23,1*%
%TO.N,P14*%
X247753737Y-177560584D03*
D33*
X249840136Y-178119636D03*
%TO.P,D23,2*%
%TO.N,mid_top*%
X253027692Y-178973736D03*
D21*
X255114091Y-179532788D03*
%TD*%
D32*
%TO.P,D25,1*%
%TO.N,P15*%
X225967147Y-189322584D03*
D33*
X228053546Y-189881636D03*
%TO.P,D25,2*%
%TO.N,mid_main*%
X231241102Y-190735736D03*
D21*
X233327501Y-191294788D03*
%TD*%
D32*
%TO.P,D21,1*%
%TO.N,P6*%
X241963161Y-118033540D03*
D33*
X244049560Y-118592592D03*
%TO.P,D21,2*%
%TO.N,inner_top*%
X247237116Y-119446692D03*
D21*
X249323515Y-120005744D03*
%TD*%
D14*
%TO.P,_2,1*%
%TO.N,N/C*%
X147570729Y-155460130D03*
X148054003Y-154293405D03*
X148054003Y-156626857D03*
X149220728Y-157110131D03*
D15*
X149220729Y-155460131D03*
D14*
X149220730Y-153810131D03*
X150387455Y-154293405D03*
X150387455Y-156626857D03*
X150870729Y-155460132D03*
%TD*%
D35*
%TO.P,D17,1*%
%TO.N,P7*%
X219473257Y-125660654D03*
D36*
X221586055Y-126109745D03*
%TO.P,D17,2*%
%TO.N,index_home*%
X224813943Y-126795853D03*
D21*
X226926741Y-127244944D03*
%TD*%
D34*
%TO.P,S16,1*%
%TO.N,P4*%
X225145569Y-133051507D03*
%TO.P,S16,2*%
%TO.N,index_bottom*%
X213390558Y-132802051D03*
%TD*%
D32*
%TO.P,D20,1*%
%TO.N,P7*%
X237563237Y-134454276D03*
D33*
X239649636Y-135013328D03*
%TO.P,D20,2*%
%TO.N,inner_home*%
X242837192Y-135867428D03*
D21*
X244923591Y-136426480D03*
%TD*%
D16*
%TO.P,S14,1*%
%TO.N,P3*%
X210648401Y-107010196D03*
%TO.P,S14,2*%
%TO.N,middle_home*%
X198891846Y-107171135D03*
%TD*%
D32*
%TO.P,D19,1*%
%TO.N,P8*%
X233163314Y-150875014D03*
D33*
X235249713Y-151434066D03*
%TO.P,D19,2*%
%TO.N,inner_bottom*%
X238437269Y-152288166D03*
D21*
X240523668Y-152847218D03*
%TD*%
D14*
%TO.P,_1,1*%
%TO.N,N/C*%
X149570729Y-97460131D03*
X150054003Y-96293406D03*
X150054003Y-98626858D03*
X151220728Y-99110132D03*
D15*
X151220729Y-97460132D03*
D14*
X151220730Y-95810132D03*
X152387455Y-96293406D03*
X152387455Y-98626858D03*
X152870729Y-97460133D03*
%TD*%
D17*
%TO.P,S9,1*%
%TO.N,P2*%
X187408671Y-124079063D03*
%TO.P,S9,2*%
%TO.N,ring_bottom*%
X175676651Y-124855072D03*
%TD*%
D16*
%TO.P,S12,1*%
%TO.N,P3*%
X204744361Y-140493661D03*
%TO.P,S12,2*%
%TO.N,middle_mods*%
X192987806Y-140654600D03*
%TD*%
D27*
%TO.P,S3,1*%
%TO.N,P1*%
X146495732Y-103510131D03*
%TO.P,S3,2*%
%TO.N,tabs_top*%
X134945732Y-105710131D03*
%TD*%
D14*
%TO.P,_4,1*%
%TO.N,N/C*%
X236746881Y-192211004D03*
X237515659Y-191209112D03*
X236911717Y-193463054D03*
X238767709Y-191044276D03*
D15*
X238340659Y-192638054D03*
D14*
X237913609Y-194231832D03*
X239769601Y-191813054D03*
X239165659Y-194066996D03*
X239934437Y-193065104D03*
%TD*%
D23*
%TO.P,D12,1*%
%TO.N,P14*%
X195865552Y-150047005D03*
D24*
X197992739Y-150422087D03*
%TO.P,D12,2*%
%TO.N,middle_mods*%
X201242605Y-150995123D03*
D21*
X203369792Y-151370205D03*
%TD*%
D18*
%TO.P,S4,1*%
%TO.N,P0*%
X165702642Y-146689686D03*
%TO.P,S4,2*%
%TO.N,pinky_mods*%
X154053332Y-148282189D03*
%TD*%
D27*
%TO.P,S2,1*%
%TO.N,P1*%
X146495733Y-120510132D03*
%TO.P,S2,2*%
%TO.N,tabs_home*%
X134945733Y-122710132D03*
%TD*%
D37*
%TO.P,MCU1,*%
%TO.N,*%
X254135911Y-135157565D03*
X260052515Y-113076501D03*
X259395115Y-115529953D03*
X258080314Y-120436856D03*
X257422914Y-122890307D03*
X256765513Y-125343759D03*
X256108113Y-127797211D03*
X255450713Y-130250662D03*
X254793312Y-132704114D03*
X253478512Y-137611016D03*
X252821111Y-140064470D03*
X258737715Y-117983406D03*
D38*
X259920402Y-120929906D03*
X255318600Y-138104066D03*
X261892604Y-113569551D03*
X261235204Y-116023003D03*
X260577803Y-118476456D03*
X259263002Y-123383358D03*
X256633401Y-133197164D03*
X255976001Y-135650615D03*
X258605604Y-125836808D03*
X257948202Y-128290262D03*
X257290801Y-130743717D03*
X254661201Y-140557520D03*
D39*
%TO.N,P0*%
X262635792Y-116398290D03*
%TO.N,GND*%
X261978392Y-118851741D03*
X261320991Y-121305193D03*
%TO.N,P2*%
X260663591Y-123758643D03*
%TO.N,P3*%
X260006191Y-126212096D03*
%TO.N,P4*%
X259348790Y-128665549D03*
%TO.N,P5*%
X258691390Y-131118999D03*
%TO.N,P7*%
X257376589Y-136025902D03*
%TO.N,P8*%
X256719189Y-138479354D03*
%TO.N,P9*%
X256061788Y-140932806D03*
%TO.N,P6*%
X258033991Y-133572451D03*
%TO.N,P1*%
X263293194Y-113944839D03*
D40*
%TO.N,RAW*%
X271532538Y-116152564D03*
%TO.N,RST*%
X270217737Y-121059467D03*
%TO.N,VCC*%
X269560337Y-123512919D03*
%TO.N,P21*%
X268902936Y-125966371D03*
%TO.N,P20*%
X268245536Y-128419822D03*
%TO.N,P18*%
X266930735Y-133326725D03*
%TO.N,P15*%
X266273335Y-135780177D03*
%TO.N,P14*%
X265615935Y-138233627D03*
%TO.N,P16*%
X264958534Y-140687080D03*
%TO.N,P10*%
X264301134Y-143140531D03*
%TO.N,P19*%
X267588137Y-130873272D03*
%TO.N,GND*%
X270875139Y-118606016D03*
D41*
%TO.N,*%
X272933135Y-116527852D03*
X270303535Y-126341655D03*
X269646134Y-128795110D03*
X268988732Y-131248564D03*
X271618335Y-121434757D03*
X270960935Y-123888208D03*
X268331334Y-133702014D03*
X267016533Y-138608916D03*
X266359132Y-141062369D03*
X265701732Y-143515821D03*
X272275736Y-118981306D03*
X267673934Y-136155466D03*
D37*
X268856621Y-139101966D03*
X274773225Y-117020902D03*
X274115824Y-119474356D03*
X272801024Y-124381258D03*
X272143623Y-126834710D03*
X271486223Y-129288161D03*
X270828823Y-131741613D03*
X270171422Y-134195065D03*
X269514022Y-136648516D03*
X268199221Y-141555419D03*
X267541821Y-144008871D03*
X273458425Y-121927807D03*
D42*
%TO.P,MCU1,B+*%
%TO.N,RAW*%
X269943596Y-115726808D03*
%TO.P,MCU1,GND*%
%TO.N,GND*%
X262909943Y-121730952D03*
X263567344Y-119277501D03*
X269286195Y-118180260D03*
%TO.P,MCU1,P0*%
%TO.N,P0*%
X264224744Y-116824048D03*
%TO.P,MCU1,P1*%
%TO.N,P1*%
X264882144Y-114370596D03*
%TO.P,MCU1,P2*%
%TO.N,P2*%
X262252543Y-124184404D03*
%TO.P,MCU1,P3*%
%TO.N,P3*%
X261595143Y-126637854D03*
%TO.P,MCU1,P4*%
%TO.N,P4*%
X260937742Y-129091306D03*
%TO.P,MCU1,P5*%
%TO.N,P5*%
X260280342Y-131544756D03*
%TO.P,MCU1,P6*%
%TO.N,P6*%
X259622942Y-133998209D03*
%TO.P,MCU1,P7*%
%TO.N,P7*%
X258965541Y-136451661D03*
%TO.P,MCU1,P8*%
%TO.N,P8*%
X258308141Y-138905112D03*
%TO.P,MCU1,P9*%
%TO.N,P9*%
X257650740Y-141358564D03*
%TO.P,MCU1,P10*%
%TO.N,P10*%
X262712192Y-142714776D03*
%TO.P,MCU1,P14*%
%TO.N,P14*%
X264026992Y-137807871D03*
%TO.P,MCU1,P15*%
%TO.N,P15*%
X264684393Y-135354420D03*
%TO.P,MCU1,P16*%
%TO.N,P16*%
X263369592Y-140261324D03*
%TO.P,MCU1,P18*%
%TO.N,P18*%
X265341793Y-132900968D03*
%TO.P,MCU1,P19*%
%TO.N,P19*%
X265999193Y-130447518D03*
%TO.P,MCU1,P20*%
%TO.N,P20*%
X266656594Y-127994066D03*
%TO.P,MCU1,P21*%
%TO.N,P21*%
X267313994Y-125540616D03*
%TO.P,MCU1,RST*%
%TO.N,RST*%
X268628795Y-120633711D03*
%TO.P,MCU1,VCC*%
%TO.N,VCC*%
X267971394Y-123087163D03*
%TD*%
D14*
%TO.P,_6,1*%
%TO.N,N/C*%
X193875051Y-116186952D03*
X194553582Y-115121869D03*
X194148383Y-117419872D03*
X195786502Y-114848537D03*
D15*
X195499984Y-116473470D03*
D14*
X195213466Y-118098403D03*
X196851585Y-115527068D03*
X196446386Y-117825071D03*
X197124917Y-116759988D03*
%TD*%
D17*
%TO.P,S11,1*%
%TO.N,P2*%
X191552226Y-90332495D03*
%TO.P,S11,2*%
%TO.N,ring_top*%
X179820206Y-91108504D03*
%TD*%
D34*
%TO.P,S17,1*%
%TO.N,P4*%
X228680068Y-116422995D03*
%TO.P,S17,2*%
%TO.N,index_home*%
X216925057Y-116173539D03*
%TD*%
D22*
%TO.P,S24,1*%
%TO.N,P3*%
X218258136Y-175920685D03*
%TO.P,S24,2*%
%TO.N,left_main*%
X206532290Y-175056362D03*
%TD*%
D35*
%TO.P,D18,1*%
%TO.N,P6*%
X223007757Y-109032146D03*
D36*
X225120555Y-109481237D03*
%TO.P,D18,2*%
%TO.N,index_top*%
X228348443Y-110167345D03*
D21*
X230461241Y-110616436D03*
%TD*%
D22*
%TO.P,S22,1*%
%TO.N,P4*%
X231351391Y-161829317D03*
%TO.P,S22,2*%
%TO.N,left_top*%
X219625545Y-160964994D03*
%TD*%
D18*
%TO.P,S5,1*%
%TO.N,P0*%
X166592353Y-129712986D03*
%TO.P,S5,2*%
%TO.N,pinky_bottom*%
X154943043Y-131305489D03*
%TD*%
D23*
%TO.P,D15,1*%
%TO.N,P6*%
X204721606Y-99821812D03*
D24*
X206848793Y-100196894D03*
%TO.P,D15,2*%
%TO.N,middle_top*%
X210098659Y-100769930D03*
D21*
X212225846Y-101145012D03*
%TD*%
D43*
%TO.P,DISP1,1*%
%TO.N,DISP1_1*%
X255018253Y-146585328D03*
%TO.P,DISP1,2*%
%TO.N,DISP1_2*%
X257471705Y-147242726D03*
%TO.P,DISP1,3*%
%TO.N,DISP1_3*%
X259925156Y-147900125D03*
%TO.P,DISP1,4*%
%TO.N,DISP1_4*%
X262378608Y-148557529D03*
D44*
%TO.P,DISP1,10*%
%TO.N,DISP1_1*%
X255471187Y-144894957D03*
%TO.P,DISP1,11*%
%TO.N,DISP1_2*%
X257924636Y-145552357D03*
%TO.P,DISP1,12*%
%TO.N,DISP1_3*%
X260378091Y-146209757D03*
%TO.P,DISP1,13*%
%TO.N,DISP1_4*%
X262831542Y-146867156D03*
%TO.P,DISP1,14*%
%TO.N,GND*%
X255704123Y-144025623D03*
%TO.P,DISP1,15*%
%TO.N,VCC*%
X258157575Y-144683022D03*
%TO.P,DISP1,16*%
%TO.N,P16*%
X260611027Y-145340425D03*
%TO.P,DISP1,17*%
%TO.N,P10*%
X263064477Y-145997824D03*
%TD*%
D22*
%TO.P,S20,1*%
%TO.N,P5*%
X247240889Y-125711123D03*
%TO.P,S20,2*%
%TO.N,inner_home*%
X235515043Y-124846800D03*
%TD*%
D23*
%TO.P,D13,1*%
%TO.N,P8*%
X198817568Y-133305274D03*
D24*
X200944755Y-133680356D03*
%TO.P,D13,2*%
%TO.N,middle_bottom*%
X204194621Y-134253392D03*
D21*
X206321808Y-134628474D03*
%TD*%
D22*
%TO.P,S21,1*%
%TO.N,P5*%
X251640813Y-109290384D03*
%TO.P,S21,2*%
%TO.N,inner_top*%
X239914967Y-108426061D03*
%TD*%
D32*
%TO.P,D24,1*%
%TO.N,P15*%
X208580481Y-184663839D03*
D33*
X210666880Y-185222891D03*
%TO.P,D24,2*%
%TO.N,left_main*%
X213854436Y-186076991D03*
D21*
X215940835Y-186636043D03*
%TD*%
D28*
%TO.P,D5,1*%
%TO.N,P8*%
X158943983Y-140277181D03*
D29*
X161101023Y-140390227D03*
%TO.P,D5,2*%
%TO.N,pinky_bottom*%
X164396501Y-140562935D03*
D21*
X166553541Y-140675981D03*
%TD*%
D35*
%TO.P,D16,1*%
%TO.N,P8*%
X215938761Y-142289162D03*
D36*
X218051559Y-142738253D03*
%TO.P,D16,2*%
%TO.N,index_bottom*%
X221279447Y-143424361D03*
D21*
X223392245Y-143873452D03*
%TD*%
D19*
%TO.P,D10,1*%
%TO.N,P7*%
X181113790Y-117210713D03*
D20*
X183257689Y-117473952D03*
%TO.P,D10,2*%
%TO.N,ring_home*%
X186533093Y-117876120D03*
D21*
X188676992Y-118139359D03*
%TD*%
D45*
%TO.N,pos*%
X260909981Y-157549574D03*
%TO.N,RAW*%
X260388518Y-158719194D03*
%TO.N,GND*%
X253472243Y-151689603D03*
X257490740Y-157942737D03*
%TO.N,RST*%
X256041851Y-157554509D03*
%TO.N,P3*%
X211029761Y-87030727D03*
X208077742Y-103772459D03*
X215783680Y-172860418D03*
X205125723Y-120514190D03*
X202173704Y-137255922D03*
%TO.N,P2*%
X182589838Y-137883280D03*
X184661618Y-121009997D03*
X188805174Y-87263428D03*
X186733396Y-104136713D03*
%TO.N,P0*%
X162269424Y-144267619D03*
X165437870Y-93363684D03*
X164548160Y-110340382D03*
X163658448Y-127317087D03*
%TO.N,P5*%
X254956934Y-165757164D03*
X249166357Y-106230118D03*
X240366510Y-139071595D03*
X244766434Y-122650857D03*
X250557010Y-182177902D03*
%TO.N,P1*%
X143220728Y-134960133D03*
X143220731Y-117960132D03*
X143220733Y-100960132D03*
%TO.N,P4*%
X229705760Y-96554614D03*
X226171261Y-113183123D03*
X233170344Y-177519160D03*
X228876936Y-158769049D03*
X222636762Y-129811632D03*
%TO.N,VCC*%
X259277090Y-145480435D03*
%TO.N,P16*%
X259665318Y-144031546D03*
%TD*%
%TO.N,pos*%
D46*
X259775898Y-158204337D02*
X260909981Y-157549574D01*
X261190510Y-161231896D02*
X260967582Y-161172162D01*
X260967582Y-161172162D02*
X259610497Y-158821622D01*
X261052620Y-161194948D02*
X257960143Y-162980391D01*
X248998729Y-154793437D02*
X249435199Y-153164507D01*
X257960143Y-162980391D02*
X252950469Y-161638052D01*
X261190510Y-161231896D02*
X261052620Y-161194948D01*
X252950469Y-161638052D02*
X248998729Y-154793437D01*
X259610497Y-158821622D02*
X259775898Y-158204337D01*
%TO.N,RAW*%
X269943595Y-115726808D02*
X271532538Y-116152564D01*
X261966967Y-158334118D02*
X261344415Y-158167306D01*
X261344415Y-158167306D02*
X260388518Y-158719194D01*
%TO.N,GND*%
X253246982Y-161251629D02*
X250577653Y-156628216D01*
X250577653Y-156628216D02*
X251367051Y-153682144D01*
X255924559Y-143202943D02*
X258269948Y-141848832D01*
X258269948Y-141848832D02*
X263422595Y-122618892D01*
X259587824Y-155263727D02*
X258777595Y-158287548D01*
X255704123Y-144025623D02*
X255924559Y-143202943D01*
X257490740Y-157942737D02*
X258777595Y-158287548D01*
X252006208Y-151296780D02*
X253854302Y-144399596D01*
X263422595Y-122618892D02*
X262909943Y-121730952D01*
X251367051Y-153682144D02*
X252006208Y-151296780D01*
X258777595Y-158287548D02*
X257983146Y-161252467D01*
X257983146Y-161252467D02*
X256482834Y-162118672D01*
X254883086Y-143805627D02*
X255704123Y-144025623D01*
X261320991Y-121305192D02*
X262909943Y-121730952D01*
X270875139Y-118606016D02*
X269286195Y-118180259D01*
X253854302Y-144399596D02*
X254883086Y-143805627D01*
X252006208Y-151296780D02*
X253472243Y-151689603D01*
X261978391Y-118851741D02*
X263567344Y-119277500D01*
X256482834Y-162118672D02*
X253246982Y-161251629D01*
%TO.N,RST*%
X255045510Y-152628796D02*
X257206537Y-153207842D01*
X254859725Y-152307007D02*
X257386008Y-142878789D01*
X268628795Y-120633711D02*
X266681825Y-121757794D01*
X270217737Y-121059467D02*
X268628794Y-120633712D01*
X256013899Y-154306095D02*
X254409221Y-160294836D01*
X256013899Y-154306095D02*
X254859725Y-152307007D01*
X254859725Y-152307007D02*
X255045510Y-152628796D01*
X258961010Y-141008419D02*
X261992629Y-139258113D01*
X266681825Y-121757794D02*
X261992629Y-139258113D01*
X257386008Y-142878789D02*
X258656372Y-142145345D01*
X257206537Y-153207842D02*
X256041851Y-157554509D01*
X258656372Y-142145345D02*
X258961010Y-141008419D01*
%TO.N,P3*%
X218258136Y-175920685D02*
X216620791Y-173084721D01*
X256631354Y-123921886D02*
X255312846Y-121638162D01*
X207696380Y-123751926D02*
X205472054Y-120575258D01*
X254946882Y-108603131D02*
X253532668Y-106153642D01*
X260136895Y-125724303D02*
X259547378Y-124703233D01*
X236497219Y-101589007D02*
X233788934Y-96898123D01*
X258064125Y-109438394D02*
X254946882Y-108603131D01*
X253532668Y-106153642D02*
X236497219Y-101589007D01*
X204744362Y-140493662D02*
X202520032Y-137316989D01*
X260006190Y-126212096D02*
X260136895Y-125724303D01*
X202520032Y-137316989D02*
X202173704Y-137255922D01*
X260006190Y-126212096D02*
X261595142Y-126637855D01*
X221204150Y-94385413D02*
X225550817Y-95550099D01*
X208424072Y-103833527D02*
X208077742Y-103772459D01*
X211029761Y-87030727D02*
X218042849Y-88909879D01*
X226567466Y-94963136D02*
X225550817Y-95550099D01*
X211376093Y-87091795D02*
X211029761Y-87030727D01*
X205472054Y-120575258D02*
X205125723Y-120514190D01*
X218042849Y-88909879D02*
X221204150Y-94385413D01*
X216620791Y-173084721D02*
X215783680Y-172860418D01*
X255312846Y-121638162D02*
X258417679Y-110050767D01*
X258417679Y-110050767D02*
X258064125Y-109438394D01*
X259547378Y-124703233D02*
X256631354Y-123921886D01*
X213600422Y-90268463D02*
X211376093Y-87091795D01*
X210648400Y-107010195D02*
X208424072Y-103833527D01*
X233788934Y-96898123D02*
X226567466Y-94963136D01*
%TO.N,middle_top*%
X203513105Y-92813325D02*
X204670252Y-93017362D01*
X204670252Y-93017362D02*
X210098660Y-100769928D01*
X212225846Y-101145009D02*
X210098660Y-100769928D01*
X201843866Y-90429405D02*
X203513105Y-92813325D01*
%TO.N,P2*%
X234085448Y-96511698D02*
X236793731Y-101202583D01*
X191552225Y-90332494D02*
X189191467Y-87310858D01*
X187408671Y-124079065D02*
X185047911Y-121057427D01*
X259030051Y-109697213D02*
X256323799Y-119797083D01*
X257385910Y-121636715D02*
X260543418Y-122482765D01*
X187119691Y-104184144D02*
X186733396Y-104136713D01*
X188805174Y-87263428D02*
X197626155Y-89627002D01*
X226503890Y-94480226D02*
X234085448Y-96511698D01*
X253829182Y-105767218D02*
X255208040Y-108155470D01*
X262252541Y-124184402D02*
X262252542Y-124184403D01*
X260663592Y-123758643D02*
X262252541Y-124184402D01*
X197626155Y-89627002D02*
X206206916Y-84672898D01*
X182976132Y-137930714D02*
X182589838Y-137883280D01*
X260858999Y-123029370D02*
X260663592Y-123758643D01*
X221500664Y-93998990D02*
X225487240Y-95067190D01*
X185047911Y-121057427D02*
X184661618Y-121009997D01*
X258676498Y-109084841D02*
X259030051Y-109697213D01*
X189191467Y-87310858D02*
X188805174Y-87263428D01*
X217929775Y-87814027D02*
X221500664Y-93998990D01*
X189480450Y-107205778D02*
X187119691Y-104184144D01*
X185336894Y-140952351D02*
X182976132Y-137930714D01*
X236793731Y-101202583D02*
X253829182Y-105767218D01*
X260543418Y-122482765D02*
X260858999Y-123029370D01*
X256323799Y-119797083D02*
X257385910Y-121636715D01*
X225487240Y-95067190D02*
X226503890Y-94480226D01*
X206206916Y-84672898D02*
X217929775Y-87814027D01*
X255208040Y-108155470D02*
X258676498Y-109084841D01*
%TO.N,ring_mods*%
X176968790Y-144684452D02*
X182389535Y-151622690D01*
X182389535Y-151622690D02*
X184533436Y-151885930D01*
X175802551Y-144541255D02*
X176968790Y-144684452D01*
X173604874Y-141728360D02*
X175802551Y-144541255D01*
%TO.N,P0*%
X197562579Y-89144092D02*
X190504132Y-87252787D01*
X166252963Y-93406398D02*
X165437870Y-93363684D01*
X168434160Y-91633774D02*
X165437870Y-93363684D01*
X259260956Y-114108080D02*
X258649553Y-113049102D01*
X262418462Y-114954132D02*
X259260956Y-114108080D01*
X254125695Y-105380795D02*
X237090244Y-100816159D01*
X188371874Y-86396749D02*
X184429619Y-88672811D01*
X184429619Y-88672811D02*
X180565915Y-87637535D01*
X259642423Y-109343661D02*
X259288870Y-108731287D01*
X164473540Y-127359802D02*
X163658448Y-127317087D01*
X180565915Y-87637535D02*
X171992701Y-92587283D01*
X206204577Y-84154632D02*
X197562579Y-89144092D01*
X165363251Y-110383100D02*
X164548160Y-110340382D01*
X234381961Y-96125275D02*
X229862300Y-94914236D01*
X258649553Y-113049102D02*
X259642423Y-109343661D01*
X168371778Y-95759580D02*
X166252963Y-93406398D01*
X237090244Y-100816159D02*
X234381961Y-96125275D01*
X262831200Y-115669015D02*
X262418462Y-114954132D01*
X262635792Y-116398289D02*
X264224744Y-116824048D01*
X166592353Y-129712986D02*
X164473540Y-127359802D01*
X171992701Y-92587283D02*
X168434160Y-91633774D01*
X262635792Y-116398289D02*
X262831200Y-115669015D01*
X259288870Y-108731287D02*
X255469198Y-107707809D01*
X190309678Y-86915982D02*
X188371874Y-86396749D01*
X165702644Y-146689687D02*
X163583829Y-144336505D01*
X163583829Y-144336505D02*
X162269424Y-144267619D01*
X229862300Y-94914236D02*
X226843020Y-89684686D01*
X226843020Y-89684686D02*
X206204577Y-84154632D01*
X255469198Y-107707809D02*
X254125695Y-105380795D01*
X167482066Y-112736284D02*
X165363251Y-110383100D01*
X190504132Y-87252787D02*
X190309678Y-86915982D01*
%TO.N,pinky_home*%
X155832754Y-114328790D02*
X157607055Y-116299348D01*
X158780444Y-116360843D02*
X165286212Y-123586230D01*
X157607055Y-116299348D02*
X158780444Y-116360843D01*
X165286212Y-123586230D02*
X167443252Y-123699275D01*
%TO.N,P6*%
X241963163Y-118033542D02*
X241963161Y-118033540D01*
X154245374Y-113039915D02*
X146099683Y-117742832D01*
X161663886Y-107952726D02*
X160723408Y-106323770D01*
X258033990Y-133572451D02*
X259622943Y-133998209D01*
X254756310Y-131450522D02*
X257442151Y-132170191D01*
X241027732Y-116413328D02*
X224751313Y-112052074D01*
X223007756Y-109032146D02*
X221635054Y-106654554D01*
X206293079Y-102543685D02*
X204721605Y-99821813D01*
X155188744Y-109519211D02*
X154245374Y-113039915D01*
X160723408Y-106323774D02*
X162880449Y-106436819D01*
X182738272Y-102006768D02*
X183185569Y-100337430D01*
X204721605Y-99821810D02*
X206848793Y-100196891D01*
X183185571Y-100337428D02*
X185329472Y-100600668D01*
X223007758Y-109032149D02*
X223007758Y-109032146D01*
X160723408Y-106323770D02*
X155188744Y-109519211D01*
X225120555Y-109481239D02*
X223007758Y-109032149D01*
X248836979Y-121197942D02*
X254756310Y-131450522D01*
X241963161Y-118033539D02*
X241027732Y-116413328D01*
X224751313Y-112052074D02*
X223007756Y-109032146D01*
X244952889Y-120157202D02*
X248836979Y-121197942D01*
X166760686Y-109820340D02*
X161538404Y-108421033D01*
X244049560Y-118592591D02*
X244952889Y-120157202D01*
X258103016Y-133314842D02*
X258033990Y-133572451D01*
X204721605Y-99821813D02*
X194944657Y-105466537D01*
X146099683Y-117742832D02*
X139821165Y-116060507D01*
X182867413Y-102230448D02*
X182738272Y-102006768D01*
X257442151Y-132170191D02*
X258103016Y-133314842D01*
X244049561Y-118592592D02*
X241963163Y-118033542D01*
X194944657Y-105466537D02*
X182867413Y-102230448D01*
X161538404Y-108421033D02*
X161663886Y-107952726D01*
X139821165Y-116060507D02*
X139983951Y-115452982D01*
X139410732Y-114460135D02*
X141570730Y-114460131D01*
X221635054Y-106654554D02*
X206293079Y-102543685D01*
X183185569Y-100337430D02*
X166760686Y-109820340D01*
X139983951Y-115452982D02*
X139410728Y-114460131D01*
%TO.N,ring_top*%
X182017882Y-93921398D02*
X183184124Y-94064595D01*
X188604873Y-101002835D02*
X190748772Y-101266077D01*
X183184124Y-94064595D02*
X188604873Y-101002835D01*
X179820205Y-91108502D02*
X182017882Y-93921398D01*
%TO.N,P5*%
X258329746Y-129697453D02*
X255358408Y-128901286D01*
X255794044Y-165981467D02*
X254956934Y-165757164D01*
X251640813Y-109290384D02*
X250003468Y-106454420D01*
X253290939Y-125320322D02*
X257192934Y-110757873D01*
X258691390Y-131118999D02*
X258836914Y-130575894D01*
X253154570Y-107298755D02*
X249166357Y-106230118D01*
X245603545Y-122875161D02*
X244766434Y-122650857D01*
X247240890Y-125711122D02*
X245603545Y-122875161D01*
X242840966Y-142131868D02*
X241203618Y-139295899D01*
X241203618Y-139295899D02*
X240366510Y-139071595D01*
X258691390Y-131118999D02*
X260280339Y-131544757D01*
X258836914Y-130575894D02*
X258329746Y-129697453D01*
X254424566Y-109498453D02*
X253154570Y-107298755D01*
X255358408Y-128901286D02*
X253290939Y-125320322D01*
X257431389Y-168817432D02*
X255794044Y-165981467D01*
X260280339Y-131544757D02*
X260280343Y-131544756D01*
X253031466Y-185238169D02*
X251394123Y-182402206D01*
X251394123Y-182402206D02*
X250557010Y-182177902D01*
X257192934Y-110757873D02*
X256839380Y-110145502D01*
X256839380Y-110145502D02*
X254424566Y-109498453D01*
X250003468Y-106454420D02*
X249166357Y-106230118D01*
%TO.N,mid_top*%
X253027694Y-178973739D02*
X253027692Y-178973738D01*
X247490351Y-171044487D02*
X248625317Y-171348599D01*
X248625317Y-171348599D02*
X253027692Y-178973738D01*
X255114092Y-179532789D02*
X253027694Y-178973739D01*
X245705543Y-167953108D02*
X247490351Y-171044487D01*
%TO.N,P7*%
X256784752Y-134623643D02*
X257445615Y-135768292D01*
X253966191Y-133868411D02*
X256784752Y-134623643D01*
X140054717Y-132575549D02*
X139410730Y-131460132D01*
X245586740Y-138706289D02*
X253966191Y-133868411D01*
X219473257Y-125660654D02*
X217594084Y-122405832D01*
X159122695Y-125953963D02*
X144500150Y-134396294D01*
X181091282Y-117294714D02*
X165182654Y-126479564D01*
X159682705Y-125005857D02*
X160042672Y-123662437D01*
X219473259Y-125660656D02*
X219473257Y-125660656D01*
X181113790Y-117210713D02*
X181091282Y-117294714D01*
X201769586Y-116563543D02*
X192525779Y-121900457D01*
X241085411Y-137500161D02*
X245586740Y-138706289D01*
X144500150Y-134396294D02*
X139897317Y-133162969D01*
X192525779Y-121900457D02*
X181011713Y-118815273D01*
X257445615Y-135768292D02*
X257376589Y-136025903D01*
X217594084Y-122405832D02*
X202863860Y-118458881D01*
X239649636Y-135013324D02*
X239649636Y-135013326D01*
X139410730Y-131460133D02*
X141570732Y-131460133D01*
X159833695Y-123300476D02*
X161990736Y-123413521D01*
X202863860Y-118458881D02*
X201769586Y-116563543D01*
X139897317Y-133162969D02*
X140054717Y-132575549D01*
X165182654Y-126479564D02*
X159682705Y-125005857D01*
X159833694Y-123300478D02*
X159122695Y-125953963D01*
X203896773Y-116938624D02*
X201769588Y-116563541D01*
X221216814Y-128680584D02*
X219473257Y-125660654D01*
X160042672Y-123662437D02*
X159833694Y-123300478D01*
X257376589Y-136025903D02*
X258965541Y-136451660D01*
X181113791Y-117210715D02*
X183257691Y-117473951D01*
X181011713Y-118815273D02*
X180787778Y-118427406D01*
X237563237Y-134454275D02*
X239649636Y-135013324D01*
X221586056Y-126109747D02*
X219473259Y-125660656D01*
X236611336Y-132805533D02*
X221216814Y-128680584D01*
X180787778Y-118427406D02*
X181113790Y-117210713D01*
X239649636Y-135013326D02*
X241085411Y-137500161D01*
X237563237Y-134454275D02*
X236611336Y-132805533D01*
%TO.N,middle_home*%
X201569918Y-109547274D02*
X207146640Y-117511660D01*
X200412768Y-109343241D02*
X201569918Y-109547274D01*
X198891842Y-107171136D02*
X200412768Y-109343241D01*
X209273826Y-117886741D02*
X207146640Y-117511660D01*
%TO.N,tabs_top*%
X134945729Y-105710131D02*
X136820732Y-107585135D01*
X144870732Y-114460132D02*
X147030731Y-114460134D01*
X137995730Y-107585130D02*
X144870732Y-114460132D01*
X136820732Y-107585135D02*
X137995730Y-107585130D01*
%TO.N,inner_bottom*%
X238437270Y-152288170D02*
X238437269Y-152288168D01*
X240523669Y-152847218D02*
X238437270Y-152288170D01*
X231115120Y-141267543D02*
X232440945Y-143563940D01*
X232440945Y-143563940D02*
X233575915Y-143868054D01*
X233575915Y-143868054D02*
X238437269Y-152288168D01*
%TO.N,P1*%
X146495732Y-120510132D02*
X143945731Y-117960135D01*
X143945731Y-100960134D02*
X143220733Y-100960132D01*
X230158814Y-94527811D02*
X227139532Y-89298262D01*
X165711098Y-92686320D02*
X165441198Y-92218840D01*
X146495733Y-103510132D02*
X143945731Y-100960134D01*
X254422208Y-104994370D02*
X237386757Y-100429736D01*
X263293194Y-113944840D02*
X264882145Y-114370596D01*
X184366042Y-88189903D02*
X180502339Y-87154626D01*
X161658499Y-91205268D02*
X154726155Y-95207659D01*
X234678474Y-95738851D02*
X230158814Y-94527811D01*
X197499003Y-88661183D02*
X190800645Y-86866363D01*
X227139532Y-89298262D02*
X206141001Y-83671723D01*
X263423897Y-113457047D02*
X260599353Y-108564792D01*
X263293194Y-113944840D02*
X263423897Y-113457047D01*
X151345414Y-94301792D02*
X143844423Y-98632492D01*
X255730356Y-107260148D02*
X254422208Y-104994370D01*
X154726155Y-95207659D02*
X151345414Y-94301792D01*
X168370585Y-91150865D02*
X165711098Y-92686320D01*
X143844423Y-98632492D02*
X143220733Y-100960132D01*
X180502339Y-87154626D02*
X171929125Y-92104373D01*
X146495732Y-137510132D02*
X143945731Y-134960135D01*
X165441198Y-92218840D02*
X161658499Y-91205268D01*
X190606191Y-86529558D02*
X188308298Y-85913840D01*
X237386757Y-100429736D02*
X234678474Y-95738851D01*
X190800645Y-86866363D02*
X190606191Y-86529558D01*
X260599353Y-108564792D02*
X255730356Y-107260148D01*
X143945731Y-117960135D02*
X143220731Y-117960132D01*
X171929125Y-92104373D02*
X168370585Y-91150865D01*
X206141001Y-83671723D02*
X197499003Y-88661183D01*
X143945731Y-134960135D02*
X143220728Y-134960133D01*
X188308298Y-85913840D02*
X184366042Y-88189903D01*
%TO.N,tabs_bottom*%
X134945732Y-139710135D02*
X137469833Y-142234233D01*
X137469833Y-142234233D02*
X138644831Y-142234230D01*
X144870730Y-148460134D02*
X147030731Y-148460134D01*
X138644831Y-142234230D02*
X144870730Y-148460134D01*
%TO.N,pinky_top*%
X159670160Y-99384141D02*
X166175926Y-106609528D01*
X158496768Y-99322645D02*
X159670160Y-99384141D01*
X166175926Y-106609528D02*
X168332966Y-106722571D01*
X156722467Y-97352086D02*
X158496768Y-99322645D01*
%TO.N,ring_home*%
X186533093Y-117876121D02*
X188676993Y-118139360D01*
X177748428Y-107981787D02*
X179380948Y-110071318D01*
X179380948Y-110071318D02*
X180547188Y-110214513D01*
X180547188Y-110214513D02*
X186533093Y-117876121D01*
%TO.N,right_main*%
X242631445Y-186670242D02*
X243766410Y-186974354D01*
X243766410Y-186974354D02*
X248627768Y-195394475D01*
X248627770Y-195394476D02*
X248627768Y-195394475D01*
X250714167Y-195953526D02*
X248627770Y-195394476D01*
X241305621Y-184373846D02*
X242631445Y-186670242D01*
%TO.N,P15*%
X224402534Y-190225912D02*
X225967146Y-189322583D01*
X243353813Y-193981322D02*
X244257143Y-195545936D01*
X208580483Y-184663842D02*
X208580482Y-184663840D01*
X225967147Y-189322587D02*
X225967146Y-189322583D01*
X270722697Y-135606324D02*
X267160121Y-134651736D01*
X256879049Y-196082077D02*
X264678235Y-166975122D01*
X264678235Y-166975122D02*
X271954795Y-137740380D01*
X210666881Y-185222890D02*
X211570210Y-186787501D01*
X266468744Y-135050903D02*
X266273335Y-135780176D01*
X253516015Y-198026843D02*
X256880399Y-196084415D01*
X271954795Y-137740380D02*
X270722697Y-135606324D01*
X245440212Y-194540374D02*
X243353815Y-193981324D01*
X244257143Y-195545936D02*
X253516015Y-198026843D01*
X243353815Y-193981324D02*
X243353813Y-193981323D01*
X211570210Y-186787501D02*
X224402534Y-190225912D01*
X227752589Y-192415062D02*
X240261328Y-195766768D01*
X267160121Y-134651736D02*
X266468744Y-135050903D01*
X240261328Y-195766768D02*
X243353813Y-193981322D01*
X210666880Y-185222891D02*
X208580483Y-184663842D01*
X256880399Y-196084415D02*
X256879049Y-196082077D01*
X264684393Y-135354420D02*
X266273335Y-135780176D01*
X228053545Y-189881634D02*
X225967147Y-189322587D01*
X225967146Y-189322583D02*
X227752589Y-192415062D01*
%TO.N,P14*%
X158054274Y-157253881D02*
X160211313Y-157366926D01*
X221673739Y-170572475D02*
X221673737Y-170572474D01*
X261361451Y-177614862D02*
X264242532Y-166862516D01*
X223760136Y-171131525D02*
X224663465Y-172696136D01*
X249840137Y-178119637D02*
X247753739Y-177560587D01*
X176449495Y-152900704D02*
X163105640Y-160604783D01*
X176970233Y-150957284D02*
X176449495Y-152900704D01*
X195865552Y-150047006D02*
X187688031Y-154768300D01*
X247753739Y-177560587D02*
X247753737Y-177560586D01*
X215271832Y-159484048D02*
X221673737Y-170572474D01*
X248657067Y-179125199D02*
X255547574Y-180971504D01*
X176970234Y-150957283D02*
X179114134Y-151220522D01*
X255547574Y-180971504D02*
X261361451Y-177614862D01*
X270762753Y-139918344D02*
X269607400Y-137917214D01*
X163105640Y-160604783D02*
X158256709Y-159305516D01*
X195865553Y-150047005D02*
X197992740Y-150422087D01*
X264242532Y-166862516D02*
X270937326Y-139965121D01*
X246189119Y-178463917D02*
X247753737Y-177560585D01*
X270937326Y-139965121D02*
X270762753Y-139918344D01*
X177611711Y-152068359D02*
X176970233Y-150957284D01*
X158256709Y-159305516D02*
X158568015Y-158143709D01*
X266526225Y-137091615D02*
X265811343Y-137504354D01*
X264026991Y-137807872D02*
X265615934Y-138233628D01*
X198759576Y-155059602D02*
X215271832Y-159484048D01*
X269607400Y-137917214D02*
X266526225Y-137091615D01*
X247753737Y-177560585D02*
X248657067Y-179125199D01*
X223760137Y-171131524D02*
X221673739Y-170572475D01*
X265811343Y-137504354D02*
X265615934Y-138233628D01*
X195865552Y-150047006D02*
X198759576Y-155059602D01*
X224663465Y-172696136D02*
X246189119Y-178463917D01*
X158568015Y-158143709D02*
X158054272Y-157253881D01*
X187688031Y-154768300D02*
X177611711Y-152068359D01*
%TO.N,P8*%
X200311139Y-135892213D02*
X198817569Y-133305274D01*
X179042013Y-134083998D02*
X178474553Y-136201786D01*
X159275893Y-141978909D02*
X159482120Y-141209261D01*
X215938760Y-142289161D02*
X214429618Y-139675248D01*
X165554411Y-143661234D02*
X159275893Y-141978909D01*
X235249714Y-151434066D02*
X233163315Y-150875018D01*
X158943983Y-140277181D02*
X153409318Y-143472621D01*
X233163315Y-150875018D02*
X233163314Y-150875016D01*
X158943985Y-140277179D02*
X161101025Y-140390226D01*
X140125481Y-149698116D02*
X139410732Y-148460134D01*
X152528105Y-146761355D02*
X143790705Y-151805894D01*
X233163314Y-150875015D02*
X218650695Y-146986370D01*
X248883726Y-149495666D02*
X240704154Y-154218145D01*
X159482120Y-141209261D02*
X158943983Y-140277181D01*
X190106904Y-138334379D02*
X179920061Y-135604822D01*
X215938761Y-142289161D02*
X218051559Y-142738250D01*
X153409318Y-143472621D02*
X152528105Y-146761355D01*
X256719188Y-138479354D02*
X256788214Y-138221745D01*
X253148016Y-136278783D02*
X252292891Y-136772490D01*
X179042012Y-134083999D02*
X181185914Y-134347238D01*
X179920061Y-135604822D02*
X179042013Y-134083998D01*
X139410730Y-148460132D02*
X141570732Y-148460130D01*
X143790705Y-151805894D02*
X139844060Y-150748394D01*
X139844060Y-150748394D02*
X140125481Y-149698116D01*
X200944756Y-133680353D02*
X198817567Y-133305274D01*
X214429618Y-139675248D02*
X200311139Y-135892213D01*
X256788214Y-138221745D02*
X256127350Y-137077093D01*
X256719188Y-138479354D02*
X258308140Y-138905113D01*
X218051559Y-142738250D02*
X218051558Y-142738254D01*
X198817569Y-133305274D02*
X190106904Y-138334379D01*
X218650695Y-146986370D02*
X215938760Y-142289161D01*
X252292891Y-136772490D02*
X248883726Y-149495666D01*
X234066645Y-152439629D02*
X233163314Y-150875015D01*
X256127350Y-137077093D02*
X253148016Y-136278783D01*
X178474553Y-136201786D02*
X165554411Y-143661234D01*
X240704154Y-154218145D02*
X234066645Y-152439629D01*
%TO.N,P4*%
X235644798Y-180579428D02*
X234007452Y-177743463D01*
X253271510Y-106601303D02*
X253139762Y-106566001D01*
X259348790Y-128665548D02*
X259483962Y-128161080D01*
X257802967Y-109886055D02*
X254685725Y-109050793D01*
X223106398Y-129911456D02*
X222636762Y-129811632D01*
X228680067Y-116422995D02*
X226640897Y-113282947D01*
X253139762Y-106566001D02*
X253124880Y-106540225D01*
X254337248Y-123540479D02*
X257934769Y-110114343D01*
X258906654Y-127161153D02*
X255973954Y-126375338D01*
X236261836Y-102021786D02*
X236236060Y-102036667D01*
X233686876Y-97621351D02*
X229705760Y-96554614D01*
X232214568Y-99794484D02*
X230175398Y-96654441D01*
X254685725Y-109050793D02*
X253271510Y-106601303D01*
X231351392Y-161829318D02*
X229714047Y-158993352D01*
X226640897Y-113282947D02*
X226171261Y-113183123D01*
X229714047Y-158993352D02*
X228876936Y-158769049D01*
X230175398Y-96654441D02*
X229705760Y-96554614D01*
X257934769Y-110114343D02*
X257802967Y-109886055D01*
X253124880Y-106540225D02*
X236261836Y-102021786D01*
X234007452Y-177743463D02*
X233170344Y-177519160D01*
X225145568Y-133051505D02*
X223106398Y-129911456D01*
X236236060Y-102036667D02*
X233686876Y-97621351D01*
X259348790Y-128665548D02*
X260937742Y-129091306D01*
X259483962Y-128161080D02*
X258906654Y-127161153D01*
X255973954Y-126375338D02*
X254337248Y-123540479D01*
%TO.N,index_top*%
X230461242Y-110616438D02*
X228348445Y-110167349D01*
X223053069Y-102013184D02*
X228348443Y-110167346D01*
X221903749Y-101768889D02*
X223053069Y-102013184D01*
X220459556Y-99545028D02*
X221903749Y-101768889D01*
X228348445Y-110167349D02*
X228348443Y-110167346D01*
%TO.N,middle_bottom*%
X198617899Y-126289009D02*
X204194620Y-134253391D01*
X197460749Y-126084973D02*
X198617899Y-126289009D01*
X206321806Y-134628474D02*
X204194620Y-134253391D01*
X195939827Y-123912867D02*
X197460749Y-126084973D01*
%TO.N,tabs_home*%
X138644831Y-125234233D02*
X144870730Y-131460130D01*
X134945729Y-122710132D02*
X137469832Y-125234232D01*
X137469832Y-125234232D02*
X138644831Y-125234233D01*
X144870730Y-131460130D02*
X147030733Y-131460131D01*
%TO.N,mid_main*%
X226379742Y-182315614D02*
X231241101Y-190735735D01*
X223918952Y-179715105D02*
X225244778Y-182011502D01*
X225244778Y-182011502D02*
X226379742Y-182315614D01*
X231241102Y-190735739D02*
X231241101Y-190735735D01*
X233327500Y-191294786D02*
X231241102Y-190735739D01*
%TO.N,left_top*%
X219625545Y-160964995D02*
X220951371Y-163261392D01*
X229034092Y-172544676D02*
X226947694Y-171985627D01*
X222086332Y-163565504D02*
X226947692Y-171985626D01*
X226947694Y-171985627D02*
X226947692Y-171985626D01*
X220951371Y-163261392D02*
X222086332Y-163565504D01*
%TO.N,pinky_mods*%
X157615260Y-150996426D02*
X163506790Y-157539633D01*
X156441872Y-150934933D02*
X157615260Y-150996426D01*
X163506790Y-157539633D02*
X165663830Y-157652679D01*
X154053333Y-148282191D02*
X156441872Y-150934933D01*
%TO.N,ring_bottom*%
X178475410Y-127087799D02*
X184461315Y-134749406D01*
X184461315Y-134749406D02*
X186605214Y-135012645D01*
X177309170Y-126944601D02*
X178475410Y-127087799D01*
X175676651Y-124855071D02*
X177309170Y-126944601D01*
%TO.N,inner_top*%
X242375757Y-111026571D02*
X247237116Y-119446692D01*
X247237116Y-119446692D02*
X249323515Y-120005740D01*
X241240792Y-110722459D02*
X242375757Y-111026571D01*
X249323515Y-120005740D02*
X249323516Y-120005744D01*
X239914968Y-108426062D02*
X241240792Y-110722459D01*
%TO.N,index_home*%
X218369248Y-118397401D02*
X219518570Y-118641695D01*
X226926741Y-127244947D02*
X224813944Y-126795856D01*
X219518570Y-118641695D02*
X224813943Y-126795854D01*
X224813944Y-126795856D02*
X224813943Y-126795854D01*
X216925056Y-116173538D02*
X218369248Y-118397401D01*
%TO.N,index_bottom*%
X221279447Y-143424365D02*
X221279446Y-143424361D01*
X215984078Y-135270207D02*
X221279446Y-143424361D01*
X214834749Y-135025911D02*
X215984078Y-135270207D01*
X213390558Y-132802049D02*
X214834749Y-135025911D01*
X223392245Y-143873452D02*
X221279447Y-143424365D01*
%TO.N,inner_home*%
X238434818Y-128242292D02*
X242837192Y-135867427D01*
X244923591Y-136426478D02*
X242837194Y-135867430D01*
X237299851Y-127938179D02*
X238434818Y-128242292D01*
X235515044Y-124846799D02*
X237299851Y-127938179D01*
X242837194Y-135867430D02*
X242837192Y-135867427D01*
%TO.N,middle_mods*%
X195665885Y-143030744D02*
X201242605Y-150995124D01*
X192987807Y-140654602D02*
X194508732Y-142826704D01*
X201242605Y-150995124D02*
X203369792Y-151370205D01*
X194508732Y-142826704D02*
X195665885Y-143030744D01*
%TO.N,VCC*%
X258157575Y-144683022D02*
X258353516Y-143951757D01*
X259562890Y-143253526D02*
X260336590Y-143460838D01*
X267971393Y-123087162D02*
X269560336Y-123512918D01*
X260336590Y-143460838D02*
X260344980Y-143475370D01*
X260344980Y-143475370D02*
X260699780Y-143270526D01*
X260699780Y-143270526D02*
X261329761Y-140919405D01*
X258353516Y-143951757D02*
X259562890Y-143253526D01*
X261329761Y-140919405D02*
X262240087Y-140393828D01*
X266677178Y-123834378D02*
X267971393Y-123087162D01*
X258937332Y-144891958D02*
X259277090Y-145480435D01*
X262240087Y-140393828D02*
X266677178Y-123834378D01*
X258157575Y-144683022D02*
X258937332Y-144891958D01*
%TO.N,P21*%
X267313993Y-125540616D02*
X268902936Y-125966372D01*
%TO.N,P20*%
X266656593Y-127994066D02*
X268245536Y-128419822D01*
%TO.N,P19*%
X267588134Y-130873274D02*
X267588137Y-130873271D01*
X265999193Y-130447517D02*
X267588134Y-130873274D01*
%TO.N,P18*%
X265341794Y-132900968D02*
X266930735Y-133326725D01*
%TO.N,P16*%
X259665318Y-144031546D02*
X259890123Y-144091783D01*
X260611027Y-145340425D02*
X261716185Y-141215919D01*
X261716185Y-141215919D02*
X263369592Y-140261324D01*
X259890123Y-144091783D02*
X260611027Y-145340425D01*
X263369592Y-140261324D02*
X264958534Y-140687080D01*
%TO.N,P9*%
X256061788Y-140932807D02*
X257650740Y-141358564D01*
%TO.N,P10*%
X262712191Y-142714775D02*
X262223021Y-144540382D01*
X264301134Y-143140530D02*
X262712191Y-142714775D01*
X262223021Y-144540382D02*
X263064477Y-145997824D01*
%TO.N,left_main*%
X209452061Y-178451854D02*
X213854437Y-186076992D01*
X213854438Y-186076994D02*
X213854437Y-186076992D01*
X208317098Y-178147740D02*
X209452061Y-178451854D01*
X206532290Y-175056362D02*
X208317098Y-178147740D01*
X215940835Y-186636043D02*
X213854438Y-186076994D01*
%TO.N,pinky_bottom*%
X164396503Y-140562934D02*
X166553542Y-140675978D01*
X154943041Y-131305492D02*
X156893289Y-133471460D01*
X156893289Y-133471460D02*
X158066681Y-133532953D01*
X158066681Y-133532953D02*
X164396503Y-140562934D01*
%TO.N,DISP1_1*%
X255018254Y-146585329D02*
X255471188Y-144894957D01*
%TO.N,DISP1_2*%
X257471708Y-147242728D02*
X257924641Y-145552354D01*
%TO.N,DISP1_3*%
X259925158Y-147900131D02*
X260378092Y-146209760D01*
%TO.N,DISP1_4*%
X262378608Y-148557530D02*
X262831544Y-146867158D01*
%TD*%
M02*
