0
SECTION
2
HEADER
9
$INSUNITS
70
4
0
ENDSEC
0
SECTION
2
TABLES
0
TABLE
2
LTYPE
0
LTYPE
72
65
70
0
2
CONTINUOUS
3
______
73
0
40
0
0
LTYPE
72
65
70
0
2
DASHED
3
_ _ _ 
73
2
40
7.5
49
5
49
-2.5
0
LTYPE
72
65
70
0
2
DOTTED
3
. . . 
73
2
40
1.5
49
0.5
49
-1
0
ENDTAB
0
TABLE
2
LAYER
0
ENDTAB
0
ENDSEC
0
SECTION
2
ENTITIES
0
LINE
8
0
6
CONTINUOUS
10
140
20
-141.2180416
11
140
21
-90.8766146
0
LINE
8
0
6
CONTINUOUS
10
141.2858666
20
-89.0084568
11
162.0786785
21
-81.0600703
0
LINE
8
0
6
CONTINUOUS
10
162.0812865
20
-81.0590713
11
185.6194031
21
-72.0235558
0
LINE
8
0
6
CONTINUOUS
10
186.2737376
20
-71.8916885
11
208.2113449
21
-71.2068247
0
LINE
8
0
6
CONTINUOUS
10
208.6210483
20
-71.2362353
11
227.8099437
21
-74.6197552
0
LINE
8
0
6
CONTINUOUS
10
228.3875047
20
-74.8160578
11
246.8057542
21
-84.4219516
0
LINE
8
0
6
CONTINUOUS
10
246.9932053
20
-84.5331064
11
265.5597163
21
-96.9577308
0
LINE
8
0
6
CONTINUOUS
10
266.1543868
20
-97.2274244
11
283.2555938
21
-101.809679
0
LINE
8
0
6
CONTINUOUS
10
284.6787416
20
-104.2245945
11
271.6296287
21
-156.6514925
0
LINE
8
0
6
CONTINUOUS
10
271.6206946
20
-156.6860667
11
262.8254679
21
-189.5102992
0
LINE
8
0
6
CONTINUOUS
10
260.3759782
20
-190.9245129
11
210.0931097
21
-177.4512589
0
LINE
8
0
6
CONTINUOUS
10
208.6648222
20
-175.0574832
11
214.7796234
21
-149.2979467
0
LINE
8
0
6
CONTINUOUS
10
212.5353176
20
-146.8584057
11
178.589634
21
-151.9800844
0
LINE
8
0
6
CONTINUOUS
10
178.1865818
20
-151.9997264
11
158.7989911
21
-150.9836658
0
LINE
8
0
6
CONTINUOUS
10
158.0685015
20
-150.8036864
11
141.1648384
21
-143.0353212
0
ARC
8
0
6
CONTINUOUS
10
142
20
-90.8766146
40
2
50
110.9201607
51
180
0
ARC
8
0
6
CONTINUOUS
10
161.3645451
20
-79.1919125
40
2
50
290.9201607
51
291.0001682
0
ARC
8
0
6
CONTINUOUS
10
186.3361445
20
-73.8907146
40
2
50
91.788119
51
111.0001682
0
ARC
8
0
6
CONTINUOUS
10
208.2737519
20
-73.2058508
40
2
50
79.9999992
51
91.788119
0
ARC
8
0
6
CONTINUOUS
10
227.4626473
20
-76.5893707
40
2
50
62.4560623
51
79.9999992
0
ARC
8
0
6
CONTINUOUS
10
245.8808968
20
-86.1952646
40
2
50
56.2097445
51
62.4560623
0
ARC
8
0
6
CONTINUOUS
10
266.6720249
20
-95.2955727
40
2
50
236.2097445
51
255.0000021
0
ARC
8
0
6
CONTINUOUS
10
282.7379558
20
-103.7415307
40
2
50
346.0230283
51
75.0000021
0
ARC
8
0
6
CONTINUOUS
10
269.6888429
20
-156.1684287
40
2
50
345.0000021
51
346.0230283
0
ARC
8
0
6
CONTINUOUS
10
260.8936162
20
-188.9926612
40
2
50
255.0000021
51
345.0000021
0
ARC
8
0
6
CONTINUOUS
10
210.6107477
20
-175.5194072
40
2
50
166.6462851
51
255.0000021
0
ARC
8
0
6
CONTINUOUS
10
212.8336979
20
-148.8360228
40
2
50
346.6462851
51
98.5799949
0
ARC
8
0
6
CONTINUOUS
10
178.2912538
20
-150.0024673
40
2
50
266.9999974
51
278.5799949
0
ARC
8
0
6
CONTINUOUS
10
158.9036631
20
-148.9864067
40
2
50
245.3180529
51
266.9999974
0
ARC
8
0
6
CONTINUOUS
10
142
20
-141.2180416
40
2
50
180
51
245.3180529
0
LINE
8
0
6
CONTINUOUS
10
141.25
20
-141.25
11
158.75
21
-141.25
0
LINE
8
0
6
CONTINUOUS
10
158.75
20
-141.25
11
158.75
21
-124.75
0
LINE
8
0
6
CONTINUOUS
10
158.75
20
-124.75
11
141.25
21
-124.75
0
LINE
8
0
6
CONTINUOUS
10
141.25
20
-124.75
11
141.25
21
-141.25
0
LINE
8
0
6
CONTINUOUS
10
141.25
20
-124.25
11
158.75
21
-124.25
0
LINE
8
0
6
CONTINUOUS
10
158.75
20
-124.25
11
158.75
21
-107.75
0
LINE
8
0
6
CONTINUOUS
10
158.75
20
-107.75
11
141.25
21
-107.75
0
LINE
8
0
6
CONTINUOUS
10
141.25
20
-107.75
11
141.25
21
-124.25
0
LINE
8
0
6
CONTINUOUS
10
141.25
20
-107.25
11
158.75
21
-107.25
0
LINE
8
0
6
CONTINUOUS
10
158.75
20
-107.25
11
158.75
21
-90.75
0
LINE
8
0
6
CONTINUOUS
10
158.75
20
-90.75
11
141.25
21
-90.75
0
LINE
8
0
6
CONTINUOUS
10
141.25
20
-90.75
11
141.25
21
-107.25
0
LINE
8
0
6
CONTINUOUS
10
159.7302199
20
-149.780754
11
177.2062368
21
-150.6966333
0
LINE
8
0
6
CONTINUOUS
10
177.2062368
20
-150.6966333
11
178.0697801
21
-134.219246
0
LINE
8
0
6
CONTINUOUS
10
178.0697801
20
-134.219246
11
160.5937632
21
-133.3033667
0
LINE
8
0
6
CONTINUOUS
10
160.5937632
20
-133.3033667
11
159.7302199
21
-149.780754
0
LINE
8
0
6
CONTINUOUS
10
160.6199312
20
-132.8040519
11
178.0959481
21
-133.7199312
0
LINE
8
0
6
CONTINUOUS
10
178.0959481
20
-133.7199312
11
178.9594914
21
-117.2425439
0
LINE
8
0
6
CONTINUOUS
10
178.9594914
20
-117.2425439
11
161.4834745
21
-116.3266646
0
LINE
8
0
6
CONTINUOUS
10
161.4834745
20
-116.3266646
11
160.6199312
21
-132.8040519
0
LINE
8
0
6
CONTINUOUS
10
161.5096425
20
-115.8273498
11
178.9856594
21
-116.7432291
0
LINE
8
0
6
CONTINUOUS
10
178.9856594
20
-116.7432291
11
179.8492027
21
-100.2658418
0
LINE
8
0
6
CONTINUOUS
10
179.8492027
20
-100.2658418
11
162.3731858
21
-99.3499625
0
LINE
8
0
6
CONTINUOUS
10
162.3731858
20
-99.3499625
11
161.5096425
21
-115.8273498
0
LINE
8
0
6
CONTINUOUS
10
162.3993538
20
-98.8506477
11
179.8753707
21
-99.766527
0
LINE
8
0
6
CONTINUOUS
10
179.8753707
20
-99.766527
11
180.738914
21
-83.2891397
0
LINE
8
0
6
CONTINUOUS
10
180.738914
20
-83.2891397
11
163.2628971
21
-82.3732604
0
LINE
8
0
6
CONTINUOUS
10
163.2628971
20
-82.3732604
11
162.3993538
21
-98.8506477
0
LINE
8
0
6
CONTINUOUS
10
178.450249
20
-143.1208918
11
195.8198066
21
-145.2536053
0
LINE
8
0
6
CONTINUOUS
10
195.8198066
20
-145.2536053
11
197.8306508
21
-128.8765938
0
LINE
8
0
6
CONTINUOUS
10
197.8306508
20
-128.8765938
11
180.4610932
21
-126.7438803
0
LINE
8
0
6
CONTINUOUS
10
180.4610932
20
-126.7438803
11
178.450249
21
-143.1208918
0
LINE
8
0
6
CONTINUOUS
10
180.5220278
20
-126.2476072
11
197.8915854
21
-128.3803207
0
LINE
8
0
6
CONTINUOUS
10
197.8915854
20
-128.3803207
11
199.9024296
21
-112.0033092
0
LINE
8
0
6
CONTINUOUS
10
199.9024296
20
-112.0033092
11
182.532872
21
-109.8705957
0
LINE
8
0
6
CONTINUOUS
10
182.532872
20
-109.8705957
11
180.5220278
21
-126.2476072
0
LINE
8
0
6
CONTINUOUS
10
182.5938066
20
-109.3743226
11
199.9633642
21
-111.5070361
0
LINE
8
0
6
CONTINUOUS
10
199.9633642
20
-111.5070361
11
201.9742084
21
-95.1300246
0
LINE
8
0
6
CONTINUOUS
10
201.9742084
20
-95.1300246
11
184.6046508
21
-92.9973111
0
LINE
8
0
6
CONTINUOUS
10
184.6046508
20
-92.9973111
11
182.5938066
21
-109.3743226
0
LINE
8
0
6
CONTINUOUS
10
184.6655854
20
-92.501038
11
202.035143
21
-94.6337515
0
LINE
8
0
6
CONTINUOUS
10
202.035143
20
-94.6337515
11
204.0459872
21
-78.25674
0
LINE
8
0
6
CONTINUOUS
10
204.0459872
20
-78.25674
11
186.6764296
21
-76.1240265
0
LINE
8
0
6
CONTINUOUS
10
186.6764296
20
-76.1240265
11
184.6655854
21
-92.501038
0
LINE
8
0
6
CONTINUOUS
10
197.2155149
20
-141.9296774
11
214.4496506
21
-144.9685205
0
LINE
8
0
6
CONTINUOUS
10
214.4496506
20
-144.9685205
11
217.3148455
21
-128.7191926
0
LINE
8
0
6
CONTINUOUS
10
217.3148455
20
-128.7191926
11
200.0807098
21
-125.6803495
0
LINE
8
0
6
CONTINUOUS
10
200.0807098
20
-125.6803495
11
197.2155149
21
-141.9296774
0
LINE
8
0
6
CONTINUOUS
10
200.1675339
20
-125.1879456
11
217.4016696
21
-128.2267887
0
LINE
8
0
6
CONTINUOUS
10
217.4016696
20
-128.2267887
11
220.2668645
21
-111.9774608
0
LINE
8
0
6
CONTINUOUS
10
220.2668645
20
-111.9774608
11
203.0327288
21
-108.9386177
0
LINE
8
0
6
CONTINUOUS
10
203.0327288
20
-108.9386177
11
200.1675339
21
-125.1879456
0
LINE
8
0
6
CONTINUOUS
10
203.1195529
20
-108.4462138
11
220.3536886
21
-111.4850569
0
LINE
8
0
6
CONTINUOUS
10
220.3536886
20
-111.4850569
11
223.2188835
21
-95.235729
0
LINE
8
0
6
CONTINUOUS
10
223.2188835
20
-95.235729
11
205.9847478
21
-92.1968859
0
LINE
8
0
6
CONTINUOUS
10
205.9847478
20
-92.1968859
11
203.1195529
21
-108.4462138
0
LINE
8
0
6
CONTINUOUS
10
206.0715719
20
-91.704482
11
223.3057076
21
-94.7433251
0
LINE
8
0
6
CONTINUOUS
10
223.3057076
20
-94.7433251
11
226.1709025
21
-78.4939972
0
LINE
8
0
6
CONTINUOUS
10
226.1709025
20
-78.4939972
11
208.9367668
21
-75.4551541
0
LINE
8
0
6
CONTINUOUS
10
208.9367668
20
-75.4551541
11
206.0715719
21
-91.704482
0
LINE
8
0
6
CONTINUOUS
10
217.2102664
20
-133.9809298
11
234.3278495
21
-137.6193844
0
LINE
8
0
6
CONTINUOUS
10
234.3278495
20
-137.6193844
11
237.7583924
21
-121.479949
0
LINE
8
0
6
CONTINUOUS
10
237.7583924
20
-121.479949
11
220.6408093
21
-117.8414944
0
LINE
8
0
6
CONTINUOUS
10
220.6408093
20
-117.8414944
11
217.2102664
21
-133.9809298
0
LINE
8
0
6
CONTINUOUS
10
220.7447651
20
-117.3524206
11
237.8623482
21
-120.9908752
0
LINE
8
0
6
CONTINUOUS
10
237.8623482
20
-120.9908752
11
241.2928911
21
-104.8514398
0
LINE
8
0
6
CONTINUOUS
10
241.2928911
20
-104.8514398
11
224.175308
21
-101.2129852
0
LINE
8
0
6
CONTINUOUS
10
224.175308
20
-101.2129852
11
220.7447651
21
-117.3524206
0
LINE
8
0
6
CONTINUOUS
10
224.2792638
20
-100.7239114
11
241.3968469
21
-104.362366
0
LINE
8
0
6
CONTINUOUS
10
241.3968469
20
-104.362366
11
244.8273898
21
-88.2229306
0
LINE
8
0
6
CONTINUOUS
10
244.8273898
20
-88.2229306
11
227.7098067
21
-84.584476
0
LINE
8
0
6
CONTINUOUS
10
227.7098067
20
-84.584476
11
224.2792638
21
-100.7239114
0
LINE
8
0
6
CONTINUOUS
10
234.3297448
20
-142.2755795
11
251.2334468
21
-146.8049128
0
LINE
8
0
6
CONTINUOUS
10
251.2334468
20
-146.8049128
11
255.503961
21
-130.8671367
0
LINE
8
0
6
CONTINUOUS
10
255.503961
20
-130.8671367
11
238.600259
21
-126.3378034
0
LINE
8
0
6
CONTINUOUS
10
238.600259
20
-126.3378034
11
234.3297448
21
-142.2755795
0
LINE
8
0
6
CONTINUOUS
10
238.7296686
20
-125.8548405
11
255.6333706
21
-130.3841738
0
LINE
8
0
6
CONTINUOUS
10
255.6333706
20
-130.3841738
11
259.9038848
21
-114.4463977
0
LINE
8
0
6
CONTINUOUS
10
259.9038848
20
-114.4463977
11
243.0001828
21
-109.9170644
0
LINE
8
0
6
CONTINUOUS
10
243.0001828
20
-109.9170644
11
238.7296686
21
-125.8548405
0
LINE
8
0
6
CONTINUOUS
10
243.1295924
20
-109.4341015
11
260.0332944
21
-113.9634348
0
LINE
8
0
6
CONTINUOUS
10
260.0332944
20
-113.9634348
11
264.3038086
21
-98.0256587
0
LINE
8
0
6
CONTINUOUS
10
264.3038086
20
-98.0256587
11
247.4001066
21
-93.4963254
0
LINE
8
0
6
CONTINUOUS
10
247.4001066
20
-93.4963254
11
243.1295924
21
-109.4341015
0
LINE
8
0
6
CONTINUOUS
10
222.8401709
20
-161.9730334
11
239.7438729
21
-166.5023667
0
LINE
8
0
6
CONTINUOUS
10
239.7438729
20
-166.5023667
11
244.0143871
21
-150.5645906
0
LINE
8
0
6
CONTINUOUS
10
244.0143871
20
-150.5645906
11
227.1106851
21
-146.0352573
0
LINE
8
0
6
CONTINUOUS
10
227.1106851
20
-146.0352573
11
222.8401709
21
-161.9730334
0
LINE
8
0
6
CONTINUOUS
10
248.9201682
20
-168.9611476
11
265.8238702
21
-173.4904809
0
LINE
8
0
6
CONTINUOUS
10
265.8238702
20
-173.4904809
11
270.0943844
21
-157.5527048
0
LINE
8
0
6
CONTINUOUS
10
270.0943844
20
-157.5527048
11
253.1906824
21
-153.0233715
0
LINE
8
0
6
CONTINUOUS
10
253.1906824
20
-153.0233715
11
248.9201682
21
-168.9611476
0
LINE
8
0
6
CONTINUOUS
10
209.7469147
20
-176.064401
11
226.6506167
21
-180.5937343
0
LINE
8
0
6
CONTINUOUS
10
226.6506167
20
-180.5937343
11
230.9211309
21
-164.6559582
0
LINE
8
0
6
CONTINUOUS
10
230.9211309
20
-164.6559582
11
214.0174289
21
-160.1266249
0
LINE
8
0
6
CONTINUOUS
10
214.0174289
20
-160.1266249
11
209.7469147
21
-176.064401
0
LINE
8
0
6
CONTINUOUS
10
227.1335796
20
-180.7231438
11
244.0372816
21
-185.2524771
0
LINE
8
0
6
CONTINUOUS
10
244.0372816
20
-185.2524771
11
248.3077958
21
-169.314701
0
LINE
8
0
6
CONTINUOUS
10
248.3077958
20
-169.314701
11
231.4040938
21
-164.7853677
0
LINE
8
0
6
CONTINUOUS
10
231.4040938
20
-164.7853677
11
227.1335796
21
-180.7231438
0
LINE
8
0
6
CONTINUOUS
10
244.5202444
20
-185.3818866
11
261.4239464
21
-189.9112199
0
LINE
8
0
6
CONTINUOUS
10
261.4239464
20
-189.9112199
11
265.6944606
21
-173.9734438
0
LINE
8
0
6
CONTINUOUS
10
265.6944606
20
-173.9734438
11
248.7907586
21
-169.4441105
0
LINE
8
0
6
CONTINUOUS
10
248.7907586
20
-169.4441105
11
244.5202444
21
-185.3818866
0
ENDSEC
0
EOF