0
SECTION
2
HEADER
9
$INSUNITS
70
4
0
ENDSEC
0
SECTION
2
TABLES
0
TABLE
2
LTYPE
0
LTYPE
72
65
70
0
2
CONTINUOUS
3
______
73
0
40
0
0
LTYPE
72
65
70
0
2
DASHED
3
_ _ _ 
73
2
40
7.5
49
5
49
-2.5
0
LTYPE
72
65
70
0
2
DOTTED
3
. . . 
73
2
40
1.5
49
0.5
49
-1
0
ENDTAB
0
TABLE
2
LAYER
0
ENDTAB
0
ENDSEC
0
SECTION
2
ENTITIES
0
LINE
8
0
6
CONTINUOUS
10
140
20
-142.5
11
158.8600727
21
-142.5
0
LINE
8
0
6
CONTINUOUS
10
140
20
-142.5
11
140
21
-89.5
0
LINE
8
0
6
CONTINUOUS
10
160
20
-120.748891
11
160
21
-89.5
0
LINE
8
0
6
CONTINUOUS
10
160
20
-89.5
11
140
21
-89.5
0
LINE
8
0
6
CONTINUOUS
10
158.4165131
20
-150.963621
11
178.3891038
21
-152.0103401
0
LINE
8
0
6
CONTINUOUS
10
178.3891038
20
-152.0103401
11
178.7868126
21
-144.4216039
0
LINE
8
0
6
CONTINUOUS
10
158.8600727
20
-142.5
11
158.4165131
21
-150.963621
0
LINE
8
0
6
CONTINUOUS
10
180.0942064
20
-119.4750466
11
180.1685264
21
-118.0569359
0
LINE
8
0
6
CONTINUOUS
10
180.1685264
20
-118.0569359
11
180.2731982
21
-116.0596769
0
LINE
8
0
6
CONTINUOUS
10
160.3006075
20
-115.0129578
11
160.1959357
21
-117.0102168
0
LINE
8
0
6
CONTINUOUS
10
160.1959357
20
-117.0102168
11
160
21
-120.748891
0
LINE
8
0
6
CONTINUOUS
10
180.2731982
20
-116.0596769
11
181.0582377
21
-101.0802338
0
LINE
8
0
6
CONTINUOUS
10
181.0582377
20
-101.0802338
11
181.1629095
21
-99.0829748
0
LINE
8
0
6
CONTINUOUS
10
161.1903188
20
-98.0362557
11
161.085647
21
-100.0335147
0
LINE
8
0
6
CONTINUOUS
10
161.085647
20
-100.0335147
11
160.3006075
21
-115.0129578
0
LINE
8
0
6
CONTINUOUS
10
181.1629095
20
-99.0829748
11
182.0526208
21
-82.1062727
0
LINE
8
0
6
CONTINUOUS
10
182.0526208
20
-82.1062727
11
162.0800301
21
-81.0595536
0
LINE
8
0
6
CONTINUOUS
10
162.0800301
20
-81.0595536
11
161.1903188
21
-98.0362557
0
LINE
8
0
6
CONTINUOUS
10
178.7868126
20
-144.4216039
11
196.9081527
21
-146.6466247
0
LINE
8
0
6
CONTINUOUS
10
196.9081527
20
-146.6466247
11
197.3290153
21
-143.2189739
0
LINE
8
0
6
CONTINUOUS
10
201.021378
20
-113.147092
11
205.4390066
21
-77.168394
0
LINE
8
0
6
CONTINUOUS
10
180.0942064
20
-119.4750466
11
185.5880835
21
-74.7310071
0
LINE
8
0
6
CONTINUOUS
10
205.4390066
20
-77.168394
11
185.5880835
21
-74.7310071
0
LINE
8
0
6
CONTINUOUS
10
197.3290153
20
-143.2189739
11
215.4636
21
-146.4165904
0
LINE
8
0
6
CONTINUOUS
10
215.4636
20
-146.4165904
11
217.4230352
21
-135.304081
0
LINE
8
0
6
CONTINUOUS
10
201.021378
20
-113.147092
11
207.9228174
21
-74.0070842
0
LINE
8
0
6
CONTINUOUS
10
226.0469455
20
-86.3954551
11
227.6189724
21
-77.4800477
0
LINE
8
0
6
CONTINUOUS
10
227.6189724
20
-77.4800477
11
207.9228174
21
-74.0070842
0
LINE
8
0
6
CONTINUOUS
10
217.4230352
20
-135.304081
11
233.9617075
21
-138.8194843
0
LINE
8
0
6
CONTINUOUS
10
240.6805736
20
-113.744335
11
246.3099639
21
-87.2601357
0
LINE
8
0
6
CONTINUOUS
10
246.3099639
20
-87.2601357
11
226.7470119
21
-83.1019019
0
LINE
8
0
6
CONTINUOUS
10
226.7470119
20
-83.1019019
11
226.0469455
21
-86.3954551
0
LINE
8
0
6
CONTINUOUS
10
232.7988137
20
-143.159463
11
252.1173302
21
-148.3358439
0
LINE
8
0
6
CONTINUOUS
10
252.1173302
20
-148.3358439
11
265.8347397
21
-97.1417752
0
LINE
8
0
6
CONTINUOUS
10
233.9617075
20
-138.8194843
11
232.7988137
21
-143.159463
0
LINE
8
0
6
CONTINUOUS
10
240.6805736
20
-113.744335
11
246.5162232
21
-91.9653943
0
LINE
8
0
6
CONTINUOUS
10
265.8347397
20
-97.1417752
11
246.5162232
21
-91.9653943
0
LINE
8
0
6
CONTINUOUS
10
241.1453944
20
-166.1014461
11
245.5453182
21
-149.6807071
0
LINE
8
0
6
CONTINUOUS
10
245.5453182
20
-149.6807071
11
226.2268017
21
-144.5043262
0
LINE
8
0
6
CONTINUOUS
10
226.2268017
20
-144.5043262
11
221.8268779
21
-160.9250652
0
LINE
8
0
6
CONTINUOUS
10
262.3078298
20
-191.442151
11
271.6253155
21
-156.6688213
0
LINE
8
0
6
CONTINUOUS
10
271.6253155
20
-156.6688213
11
252.306799
21
-151.4924404
0
LINE
8
0
6
CONTINUOUS
10
252.306799
20
-151.4924404
11
247.9068752
21
-167.9131794
0
LINE
8
0
6
CONTINUOUS
10
208.2159836
20
-176.9482845
11
262.3078298
21
-191.442151
0
LINE
8
0
6
CONTINUOUS
10
221.8268779
20
-160.9250652
11
213.1335455
21
-158.5956938
0
LINE
8
0
6
CONTINUOUS
10
213.1335455
20
-158.5956938
11
208.2159836
21
-176.9482845
0
LINE
8
0
6
CONTINUOUS
10
247.9068752
20
-167.9131794
11
241.1453944
21
-166.1014461
0
ENDSEC
0
EOF