0
SECTION
2
HEADER
9
$INSUNITS
70
4
0
ENDSEC
0
SECTION
2
TABLES
0
TABLE
2
LTYPE
0
LTYPE
72
65
70
0
2
CONTINUOUS
3
______
73
0
40
0
0
LTYPE
72
65
70
0
2
DASHED
3
_ _ _ 
73
2
40
7.5
49
5
49
-2.5
0
LTYPE
72
65
70
0
2
DOTTED
3
. . . 
73
2
40
1.5
49
0.5
49
-1
0
ENDTAB
0
TABLE
2
LAYER
0
ENDTAB
0
ENDSEC
0
SECTION
2
ENTITIES
0
LINE
8
0
6
CONTINUOUS
10
140
20
-141.2180416
11
140
21
-90.8766146
0
LINE
8
0
6
CONTINUOUS
10
141.2858666
20
-89.0084568
11
161.9845279
21
-81.0960608
0
LINE
8
0
6
CONTINUOUS
10
162.1787561
20
-81.0329758
11
185.3644466
21
-74.7912119
0
LINE
8
0
6
CONTINUOUS
10
185.819561
20
-74.7235044
11
207.715251
21
-74.0138119
0
LINE
8
0
6
CONTINUOUS
10
208.1273382
20
-74.0431467
11
227.3136925
21
-77.4262186
0
LINE
8
0
6
CONTINUOUS
10
227.8936339
20
-77.6237647
11
246.2979541
21
-87.2538516
0
LINE
8
0
6
CONTINUOUS
10
246.3220562
20
-87.2662557
11
265.6496344
21
-97.048092
0
LINE
8
0
6
CONTINUOUS
10
266.0351322
20
-97.1954702
11
283.2555938
21
-101.809679
0
LINE
8
0
6
CONTINUOUS
10
284.6787416
20
-104.2245945
11
271.6296287
21
-156.6514925
0
LINE
8
0
6
CONTINUOUS
10
271.6206946
20
-156.6860667
11
262.8254679
21
-189.5102992
0
LINE
8
0
6
CONTINUOUS
10
260.3759782
20
-190.9245129
11
210.0931097
21
-177.4512589
0
LINE
8
0
6
CONTINUOUS
10
208.6648222
20
-175.0574832
11
214.7796234
21
-149.2979467
0
LINE
8
0
6
CONTINUOUS
10
212.5353176
20
-146.8584057
11
178.589634
21
-151.9800844
0
LINE
8
0
6
CONTINUOUS
10
178.1865818
20
-151.9997264
11
158.7989911
21
-150.9836658
0
LINE
8
0
6
CONTINUOUS
10
158.0685015
20
-150.8036864
11
141.1648384
21
-143.0353212
0
ARC
8
0
6
CONTINUOUS
10
142
20
-90.8766146
40
2
50
110.9201607
51
180
0
ARC
8
0
6
CONTINUOUS
10
162.6986613
20
-82.9642186
40
2
50
105.0672493
51
110.9201607
0
ARC
8
0
6
CONTINUOUS
10
185.8843518
20
-76.7224547
40
2
50
91.8564446
51
105.0672493
0
ARC
8
0
6
CONTINUOUS
10
207.7800418
20
-76.0127622
40
2
50
79.9999992
51
91.8564446
0
ARC
8
0
6
CONTINUOUS
10
226.9663961
20
-79.3958341
40
2
50
62.3791234
51
79.9999992
0
ARC
8
0
6
CONTINUOUS
10
247.2251919
20
-85.4817822
40
2
50
242.3791234
51
243.1556777
0
ARC
8
0
6
CONTINUOUS
10
266.5527702
20
-95.2636185
40
2
50
243.1556777
51
255.0000021
0
ARC
8
0
6
CONTINUOUS
10
282.7379558
20
-103.7415307
40
2
50
346.0230283
51
75.0000021
0
ARC
8
0
6
CONTINUOUS
10
269.6888429
20
-156.1684287
40
2
50
345.0000021
51
346.0230283
0
ARC
8
0
6
CONTINUOUS
10
260.8936162
20
-188.9926612
40
2
50
255.0000021
51
345.0000021
0
ARC
8
0
6
CONTINUOUS
10
210.6107477
20
-175.5194072
40
2
50
166.6462851
51
255.0000021
0
ARC
8
0
6
CONTINUOUS
10
212.8336979
20
-148.8360228
40
2
50
346.6462851
51
98.5799949
0
ARC
8
0
6
CONTINUOUS
10
178.2912538
20
-150.0024673
40
2
50
266.9999974
51
278.5799949
0
ARC
8
0
6
CONTINUOUS
10
158.9036631
20
-148.9864067
40
2
50
245.3180529
51
266.9999974
0
ARC
8
0
6
CONTINUOUS
10
142
20
-141.2180416
40
2
50
180
51
245.3180529
0
ENDSEC
0
EOF